M48
;Layer_Color=9474304
;FILE_FORMAT=4:4
METRIC,LZ
;TYPE=PLATED
T1F00S00C0.3000
T2F00S00C1.0000
%
T01
X0010541Y0000889
X0013208
X0015748
X0018161
X0019939Y0006985
X002159Y0017526
X002286
X0008763Y0016637
X0005842Y0016891
X0003048Y0014097
X0000762Y0012573
X0000889Y0015875
X0004191Y000635
T02
X0002032Y0001778
Y0004064
X0022352
Y0001778
Y0013208
Y0015494
X0002032Y0016891
Y0013208
M30
