G04*
G04 #@! TF.GenerationSoftware,Altium Limited,Altium Designer,22.0.2 (36)*
G04*
G04 Layer_Color=65535*
%FSLAX44Y44*%
%MOMM*%
G71*
G04*
G04 #@! TF.SameCoordinates,AA8787E4-6BF2-44C4-880E-DB6B4E9B3A54*
G04*
G04*
G04 #@! TF.FilePolarity,Positive*
G04*
G01*
G75*
%ADD10C,0.2540*%
%ADD11C,0.1524*%
%ADD12C,0.3048*%
G36*
X190176Y146203D02*
X190254D01*
X190465Y146180D01*
X190698Y146147D01*
X190942Y146092D01*
X191209Y146025D01*
X191453Y145936D01*
X191464D01*
X191486Y145925D01*
X191519Y145903D01*
X191564Y145881D01*
X191675Y145825D01*
X191819Y145725D01*
X191986Y145614D01*
X192152Y145470D01*
X192307Y145303D01*
X192452Y145115D01*
Y145104D01*
X192463Y145093D01*
X192485Y145059D01*
X192507Y145026D01*
X192563Y144915D01*
X192629Y144771D01*
X192707Y144593D01*
X192763Y144382D01*
X192818Y144160D01*
X192840Y143916D01*
X191863Y143838D01*
Y143849D01*
Y143872D01*
X191852Y143905D01*
X191841Y143961D01*
X191808Y144083D01*
X191764Y144249D01*
X191697Y144427D01*
X191597Y144604D01*
X191475Y144771D01*
X191320Y144926D01*
X191297Y144937D01*
X191242Y144982D01*
X191131Y145048D01*
X190987Y145115D01*
X190798Y145181D01*
X190576Y145248D01*
X190298Y145292D01*
X189988Y145303D01*
X189832D01*
X189766Y145292D01*
X189677Y145281D01*
X189477Y145259D01*
X189255Y145215D01*
X189033Y145159D01*
X188822Y145070D01*
X188733Y145015D01*
X188645Y144959D01*
X188622Y144948D01*
X188578Y144904D01*
X188511Y144826D01*
X188445Y144738D01*
X188367Y144615D01*
X188300Y144482D01*
X188256Y144327D01*
X188234Y144149D01*
Y144127D01*
Y144083D01*
X188245Y144005D01*
X188267Y143916D01*
X188300Y143805D01*
X188356Y143694D01*
X188423Y143583D01*
X188522Y143472D01*
X188533Y143461D01*
X188589Y143428D01*
X188633Y143394D01*
X188678Y143372D01*
X188744Y143339D01*
X188822Y143294D01*
X188922Y143261D01*
X189033Y143217D01*
X189155Y143172D01*
X189299Y143117D01*
X189455Y143073D01*
X189632Y143017D01*
X189832Y142973D01*
X190054Y142917D01*
X190065D01*
X190110Y142906D01*
X190176Y142895D01*
X190254Y142873D01*
X190354Y142851D01*
X190476Y142817D01*
X190598Y142784D01*
X190731Y142751D01*
X191020Y142673D01*
X191297Y142595D01*
X191431Y142551D01*
X191553Y142506D01*
X191664Y142473D01*
X191752Y142429D01*
X191764D01*
X191786Y142418D01*
X191819Y142395D01*
X191863Y142373D01*
X191986Y142307D01*
X192130Y142218D01*
X192296Y142096D01*
X192463Y141962D01*
X192618Y141807D01*
X192752Y141641D01*
X192763Y141618D01*
X192807Y141563D01*
X192851Y141463D01*
X192918Y141330D01*
X192973Y141174D01*
X193029Y140986D01*
X193062Y140775D01*
X193073Y140553D01*
Y140542D01*
Y140531D01*
Y140497D01*
Y140453D01*
X193051Y140331D01*
X193029Y140175D01*
X192985Y139998D01*
X192929Y139809D01*
X192840Y139609D01*
X192718Y139398D01*
Y139387D01*
X192707Y139376D01*
X192652Y139310D01*
X192574Y139210D01*
X192463Y139099D01*
X192319Y138966D01*
X192141Y138821D01*
X191941Y138688D01*
X191708Y138566D01*
X191697D01*
X191675Y138555D01*
X191642Y138544D01*
X191597Y138522D01*
X191530Y138499D01*
X191453Y138466D01*
X191275Y138422D01*
X191064Y138366D01*
X190809Y138311D01*
X190532Y138277D01*
X190232Y138266D01*
X190054D01*
X189965Y138277D01*
X189865D01*
X189755Y138288D01*
X189621Y138300D01*
X189344Y138344D01*
X189055Y138388D01*
X188767Y138466D01*
X188489Y138566D01*
X188478D01*
X188456Y138577D01*
X188423Y138599D01*
X188378Y138622D01*
X188245Y138688D01*
X188090Y138788D01*
X187912Y138921D01*
X187723Y139077D01*
X187546Y139265D01*
X187379Y139476D01*
Y139487D01*
X187357Y139509D01*
X187346Y139543D01*
X187313Y139587D01*
X187290Y139643D01*
X187257Y139709D01*
X187179Y139876D01*
X187102Y140087D01*
X187035Y140320D01*
X186991Y140586D01*
X186968Y140864D01*
X187923Y140952D01*
Y140941D01*
Y140930D01*
X187934Y140897D01*
Y140852D01*
X187956Y140753D01*
X187990Y140608D01*
X188034Y140464D01*
X188078Y140297D01*
X188156Y140142D01*
X188234Y139998D01*
X188245Y139987D01*
X188278Y139942D01*
X188334Y139865D01*
X188423Y139787D01*
X188533Y139687D01*
X188656Y139587D01*
X188822Y139487D01*
X189000Y139398D01*
X189011D01*
X189022Y139387D01*
X189055Y139376D01*
X189088Y139365D01*
X189200Y139332D01*
X189344Y139288D01*
X189521Y139243D01*
X189721Y139210D01*
X189943Y139188D01*
X190187Y139177D01*
X190287D01*
X190398Y139188D01*
X190532Y139199D01*
X190687Y139221D01*
X190865Y139243D01*
X191042Y139288D01*
X191209Y139343D01*
X191231Y139354D01*
X191286Y139376D01*
X191364Y139421D01*
X191464Y139465D01*
X191564Y139543D01*
X191675Y139620D01*
X191786Y139709D01*
X191875Y139820D01*
X191886Y139831D01*
X191908Y139876D01*
X191941Y139931D01*
X191986Y140020D01*
X192030Y140109D01*
X192063Y140220D01*
X192085Y140342D01*
X192097Y140475D01*
Y140486D01*
Y140542D01*
X192085Y140608D01*
X192074Y140697D01*
X192041Y140786D01*
X192008Y140897D01*
X191952Y141008D01*
X191875Y141108D01*
X191863Y141119D01*
X191830Y141152D01*
X191786Y141197D01*
X191708Y141263D01*
X191619Y141330D01*
X191497Y141407D01*
X191353Y141485D01*
X191186Y141552D01*
X191175Y141563D01*
X191120Y141574D01*
X191031Y141607D01*
X190975Y141618D01*
X190898Y141641D01*
X190820Y141674D01*
X190720Y141696D01*
X190609Y141729D01*
X190476Y141763D01*
X190343Y141796D01*
X190187Y141840D01*
X190010Y141885D01*
X189821Y141929D01*
X189810D01*
X189777Y141940D01*
X189721Y141951D01*
X189655Y141974D01*
X189566Y141996D01*
X189466Y142018D01*
X189244Y142085D01*
X189000Y142162D01*
X188744Y142240D01*
X188522Y142318D01*
X188423Y142362D01*
X188334Y142407D01*
X188323D01*
X188312Y142418D01*
X188245Y142462D01*
X188145Y142517D01*
X188034Y142606D01*
X187901Y142706D01*
X187768Y142828D01*
X187634Y142973D01*
X187523Y143128D01*
X187512Y143150D01*
X187479Y143206D01*
X187435Y143294D01*
X187390Y143406D01*
X187346Y143550D01*
X187302Y143716D01*
X187268Y143894D01*
X187257Y144083D01*
Y144094D01*
Y144105D01*
Y144138D01*
Y144183D01*
X187279Y144293D01*
X187302Y144438D01*
X187335Y144604D01*
X187390Y144793D01*
X187468Y144982D01*
X187579Y145170D01*
Y145181D01*
X187590Y145192D01*
X187645Y145259D01*
X187723Y145348D01*
X187823Y145459D01*
X187956Y145581D01*
X188123Y145714D01*
X188323Y145836D01*
X188545Y145947D01*
X188556D01*
X188578Y145958D01*
X188611Y145969D01*
X188656Y145992D01*
X188711Y146014D01*
X188789Y146036D01*
X188955Y146081D01*
X189166Y146125D01*
X189410Y146169D01*
X189666Y146203D01*
X189954Y146214D01*
X190099D01*
X190176Y146203D01*
D02*
G37*
G36*
X171651Y146103D02*
X171795Y146081D01*
X171973Y146047D01*
X172172Y145992D01*
X172372Y145925D01*
X172572Y145836D01*
X172583D01*
X172594Y145825D01*
X172661Y145792D01*
X172761Y145725D01*
X172872Y145648D01*
X173005Y145537D01*
X173138Y145414D01*
X173271Y145270D01*
X173382Y145104D01*
X173393Y145082D01*
X173427Y145026D01*
X173471Y144926D01*
X173527Y144804D01*
X173582Y144660D01*
X173626Y144493D01*
X173660Y144305D01*
X173671Y144116D01*
Y144094D01*
Y144027D01*
X173660Y143938D01*
X173638Y143816D01*
X173604Y143672D01*
X173549Y143517D01*
X173482Y143361D01*
X173393Y143206D01*
X173382Y143183D01*
X173349Y143139D01*
X173282Y143061D01*
X173194Y142973D01*
X173083Y142873D01*
X172949Y142762D01*
X172794Y142662D01*
X172605Y142562D01*
X172616D01*
X172639Y142551D01*
X172672Y142540D01*
X172716Y142529D01*
X172838Y142484D01*
X172994Y142418D01*
X173171Y142329D01*
X173349Y142218D01*
X173515Y142073D01*
X173671Y141907D01*
X173682Y141885D01*
X173726Y141818D01*
X173793Y141707D01*
X173860Y141563D01*
X173926Y141385D01*
X173993Y141174D01*
X174037Y140930D01*
X174048Y140664D01*
Y140653D01*
Y140619D01*
Y140564D01*
X174037Y140497D01*
X174026Y140408D01*
X174004Y140309D01*
X173982Y140198D01*
X173960Y140076D01*
X173871Y139809D01*
X173804Y139665D01*
X173738Y139532D01*
X173649Y139387D01*
X173549Y139243D01*
X173438Y139099D01*
X173305Y138966D01*
X173293Y138954D01*
X173271Y138932D01*
X173227Y138899D01*
X173171Y138855D01*
X173105Y138799D01*
X173016Y138744D01*
X172916Y138677D01*
X172794Y138622D01*
X172672Y138555D01*
X172528Y138488D01*
X172383Y138433D01*
X172217Y138377D01*
X172039Y138333D01*
X171850Y138300D01*
X171662Y138277D01*
X171451Y138266D01*
X171351D01*
X171284Y138277D01*
X171196Y138288D01*
X171096Y138300D01*
X170985Y138322D01*
X170863Y138344D01*
X170596Y138411D01*
X170319Y138522D01*
X170175Y138588D01*
X170041Y138666D01*
X169908Y138766D01*
X169775Y138866D01*
X169764Y138877D01*
X169742Y138899D01*
X169708Y138932D01*
X169675Y138977D01*
X169620Y139032D01*
X169564Y139110D01*
X169497Y139188D01*
X169431Y139288D01*
X169364Y139398D01*
X169298Y139509D01*
X169175Y139776D01*
X169076Y140087D01*
X169042Y140253D01*
X169020Y140431D01*
X169964Y140553D01*
Y140542D01*
X169975Y140520D01*
X169986Y140475D01*
X169997Y140420D01*
X170008Y140353D01*
X170030Y140275D01*
X170086Y140109D01*
X170163Y139909D01*
X170263Y139720D01*
X170374Y139543D01*
X170508Y139387D01*
X170530Y139376D01*
X170574Y139332D01*
X170663Y139276D01*
X170774Y139221D01*
X170907Y139154D01*
X171073Y139099D01*
X171262Y139054D01*
X171462Y139043D01*
X171529D01*
X171573Y139054D01*
X171695Y139066D01*
X171850Y139099D01*
X172028Y139154D01*
X172217Y139232D01*
X172405Y139343D01*
X172583Y139498D01*
X172605Y139521D01*
X172661Y139587D01*
X172727Y139687D01*
X172816Y139820D01*
X172905Y139987D01*
X172972Y140175D01*
X173027Y140397D01*
X173049Y140642D01*
Y140653D01*
Y140675D01*
Y140708D01*
X173038Y140753D01*
X173027Y140875D01*
X172994Y141019D01*
X172949Y141197D01*
X172872Y141374D01*
X172761Y141552D01*
X172616Y141718D01*
X172594Y141741D01*
X172539Y141785D01*
X172450Y141852D01*
X172328Y141929D01*
X172172Y142007D01*
X171984Y142073D01*
X171773Y142118D01*
X171540Y142140D01*
X171440D01*
X171362Y142129D01*
X171262Y142118D01*
X171151Y142096D01*
X171018Y142073D01*
X170874Y142040D01*
X170985Y142873D01*
X171040D01*
X171085Y142862D01*
X171229D01*
X171351Y142884D01*
X171495Y142906D01*
X171662Y142939D01*
X171850Y142995D01*
X172028Y143073D01*
X172217Y143172D01*
X172228D01*
X172239Y143183D01*
X172295Y143228D01*
X172372Y143306D01*
X172461Y143406D01*
X172550Y143550D01*
X172628Y143716D01*
X172683Y143905D01*
X172705Y144016D01*
Y144138D01*
Y144149D01*
Y144160D01*
Y144227D01*
X172683Y144316D01*
X172661Y144438D01*
X172616Y144571D01*
X172561Y144715D01*
X172472Y144860D01*
X172350Y144993D01*
X172339Y145004D01*
X172283Y145048D01*
X172206Y145104D01*
X172106Y145170D01*
X171973Y145226D01*
X171817Y145281D01*
X171640Y145326D01*
X171440Y145337D01*
X171351D01*
X171251Y145315D01*
X171118Y145292D01*
X170974Y145248D01*
X170829Y145192D01*
X170674Y145104D01*
X170530Y144993D01*
X170519Y144982D01*
X170474Y144926D01*
X170408Y144848D01*
X170330Y144738D01*
X170252Y144593D01*
X170175Y144416D01*
X170108Y144205D01*
X170063Y143961D01*
X169120Y144127D01*
Y144138D01*
X169131Y144171D01*
X169142Y144216D01*
X169153Y144282D01*
X169175Y144360D01*
X169209Y144449D01*
X169275Y144660D01*
X169386Y144904D01*
X169520Y145148D01*
X169686Y145381D01*
X169897Y145592D01*
X169908Y145603D01*
X169930Y145614D01*
X169964Y145637D01*
X170008Y145670D01*
X170063Y145714D01*
X170141Y145759D01*
X170219Y145803D01*
X170319Y145858D01*
X170541Y145947D01*
X170796Y146036D01*
X171096Y146092D01*
X171251Y146114D01*
X171529D01*
X171651Y146103D01*
D02*
G37*
G36*
X154613Y138399D02*
X153636D01*
Y144826D01*
X151394Y138399D01*
X150483D01*
X148264Y144937D01*
Y138399D01*
X147287D01*
Y146081D01*
X148807D01*
X150628Y140631D01*
Y140619D01*
X150639Y140597D01*
X150650Y140564D01*
X150672Y140508D01*
X150716Y140375D01*
X150772Y140209D01*
X150828Y140020D01*
X150894Y139831D01*
X150950Y139654D01*
X150994Y139498D01*
X151005Y139521D01*
X151016Y139576D01*
X151049Y139676D01*
X151094Y139809D01*
X151149Y139987D01*
X151227Y140198D01*
X151305Y140442D01*
X151405Y140730D01*
X153247Y146081D01*
X154613D01*
Y138399D01*
D02*
G37*
G36*
X185681Y145082D02*
X182606D01*
X182195Y143006D01*
X182207Y143017D01*
X182229Y143028D01*
X182262Y143050D01*
X182318Y143084D01*
X182384Y143117D01*
X182462Y143161D01*
X182640Y143250D01*
X182861Y143339D01*
X183106Y143417D01*
X183372Y143472D01*
X183505Y143494D01*
X183750D01*
X183816Y143483D01*
X183905Y143472D01*
X184005Y143461D01*
X184116Y143439D01*
X184238Y143406D01*
X184504Y143328D01*
X184649Y143272D01*
X184793Y143195D01*
X184937Y143117D01*
X185082Y143028D01*
X185215Y142917D01*
X185348Y142795D01*
X185359Y142784D01*
X185381Y142762D01*
X185415Y142728D01*
X185459Y142673D01*
X185514Y142595D01*
X185570Y142517D01*
X185637Y142418D01*
X185703Y142307D01*
X185759Y142184D01*
X185825Y142051D01*
X185881Y141896D01*
X185936Y141741D01*
X185981Y141574D01*
X186014Y141385D01*
X186036Y141197D01*
X186047Y140997D01*
Y140986D01*
Y140952D01*
Y140897D01*
X186036Y140819D01*
X186025Y140730D01*
X186014Y140631D01*
X185992Y140508D01*
X185970Y140386D01*
X185903Y140098D01*
X185792Y139798D01*
X185725Y139643D01*
X185637Y139498D01*
X185548Y139343D01*
X185437Y139199D01*
X185426Y139188D01*
X185403Y139154D01*
X185359Y139110D01*
X185303Y139054D01*
X185226Y138988D01*
X185137Y138899D01*
X185026Y138821D01*
X184904Y138733D01*
X184771Y138644D01*
X184615Y138566D01*
X184449Y138488D01*
X184271Y138411D01*
X184083Y138355D01*
X183872Y138311D01*
X183650Y138277D01*
X183417Y138266D01*
X183317D01*
X183239Y138277D01*
X183150Y138288D01*
X183050Y138300D01*
X182928Y138311D01*
X182806Y138344D01*
X182528Y138411D01*
X182251Y138511D01*
X182107Y138577D01*
X181963Y138655D01*
X181829Y138744D01*
X181696Y138843D01*
X181685Y138855D01*
X181663Y138866D01*
X181641Y138910D01*
X181596Y138954D01*
X181541Y139010D01*
X181485Y139077D01*
X181419Y139165D01*
X181363Y139265D01*
X181297Y139365D01*
X181230Y139487D01*
X181108Y139754D01*
X181008Y140064D01*
X180975Y140231D01*
X180952Y140408D01*
X181940Y140486D01*
Y140475D01*
Y140453D01*
X181951Y140420D01*
X181963Y140364D01*
X181996Y140242D01*
X182040Y140076D01*
X182107Y139909D01*
X182195Y139720D01*
X182306Y139554D01*
X182440Y139398D01*
X182462Y139387D01*
X182506Y139343D01*
X182595Y139288D01*
X182717Y139221D01*
X182850Y139154D01*
X183017Y139099D01*
X183206Y139054D01*
X183417Y139043D01*
X183483D01*
X183528Y139054D01*
X183661Y139066D01*
X183816Y139110D01*
X184005Y139165D01*
X184193Y139254D01*
X184393Y139387D01*
X184482Y139465D01*
X184571Y139554D01*
X184582Y139565D01*
X184593Y139576D01*
X184615Y139609D01*
X184649Y139643D01*
X184726Y139765D01*
X184815Y139920D01*
X184893Y140109D01*
X184970Y140342D01*
X185026Y140619D01*
X185048Y140764D01*
Y140919D01*
Y140930D01*
Y140952D01*
Y140997D01*
X185037Y141052D01*
Y141119D01*
X185026Y141197D01*
X184993Y141374D01*
X184937Y141585D01*
X184860Y141796D01*
X184748Y141996D01*
X184593Y142184D01*
Y142196D01*
X184571Y142207D01*
X184515Y142262D01*
X184415Y142340D01*
X184282Y142429D01*
X184105Y142506D01*
X183905Y142584D01*
X183672Y142640D01*
X183539Y142662D01*
X183328D01*
X183239Y142651D01*
X183128Y142640D01*
X182995Y142606D01*
X182861Y142573D01*
X182717Y142517D01*
X182573Y142451D01*
X182562Y142440D01*
X182517Y142418D01*
X182451Y142362D01*
X182362Y142307D01*
X182273Y142229D01*
X182184Y142129D01*
X182085Y142029D01*
X182007Y141907D01*
X181119Y142029D01*
X181863Y145981D01*
X185681D01*
Y145082D01*
D02*
G37*
G36*
X178533Y138399D02*
X177589D01*
Y144404D01*
X177578Y144393D01*
X177523Y144349D01*
X177456Y144282D01*
X177345Y144205D01*
X177223Y144105D01*
X177067Y143994D01*
X176890Y143872D01*
X176690Y143750D01*
X176679D01*
X176668Y143738D01*
X176601Y143694D01*
X176490Y143639D01*
X176357Y143572D01*
X176202Y143494D01*
X176035Y143417D01*
X175869Y143339D01*
X175702Y143272D01*
Y144183D01*
X175713D01*
X175735Y144205D01*
X175780Y144216D01*
X175835Y144249D01*
X175902Y144282D01*
X175980Y144327D01*
X176168Y144438D01*
X176390Y144560D01*
X176612Y144715D01*
X176845Y144893D01*
X177078Y145082D01*
X177090Y145093D01*
X177101Y145104D01*
X177134Y145137D01*
X177178Y145170D01*
X177278Y145281D01*
X177411Y145414D01*
X177545Y145570D01*
X177689Y145747D01*
X177811Y145925D01*
X177922Y146114D01*
X178533D01*
Y138399D01*
D02*
G37*
G36*
X165768Y146103D02*
X165857Y146092D01*
X165968Y146081D01*
X166090Y146058D01*
X166212Y146036D01*
X166500Y145958D01*
X166789Y145847D01*
X166933Y145781D01*
X167078Y145703D01*
X167211Y145603D01*
X167333Y145492D01*
X167344Y145481D01*
X167366Y145470D01*
X167388Y145426D01*
X167433Y145381D01*
X167488Y145326D01*
X167544Y145248D01*
X167599Y145170D01*
X167666Y145070D01*
X167777Y144860D01*
X167888Y144593D01*
X167932Y144460D01*
X167955Y144305D01*
X167977Y144149D01*
X167988Y143983D01*
Y143961D01*
Y143905D01*
X167977Y143816D01*
X167966Y143694D01*
X167943Y143561D01*
X167899Y143406D01*
X167855Y143239D01*
X167788Y143073D01*
X167777Y143050D01*
X167755Y142995D01*
X167710Y142906D01*
X167644Y142784D01*
X167555Y142651D01*
X167444Y142484D01*
X167311Y142318D01*
X167155Y142129D01*
X167133Y142107D01*
X167078Y142040D01*
X167022Y141985D01*
X166967Y141929D01*
X166900Y141863D01*
X166811Y141774D01*
X166722Y141685D01*
X166611Y141585D01*
X166500Y141474D01*
X166367Y141352D01*
X166223Y141230D01*
X166068Y141086D01*
X165890Y140941D01*
X165712Y140786D01*
X165701Y140775D01*
X165679Y140753D01*
X165635Y140719D01*
X165579Y140675D01*
X165513Y140608D01*
X165435Y140542D01*
X165257Y140397D01*
X165069Y140231D01*
X164891Y140064D01*
X164736Y139920D01*
X164669Y139865D01*
X164613Y139809D01*
X164602Y139798D01*
X164569Y139765D01*
X164525Y139720D01*
X164469Y139654D01*
X164414Y139576D01*
X164347Y139498D01*
X164214Y139310D01*
X167999D01*
Y138399D01*
X162904D01*
Y138411D01*
Y138455D01*
Y138522D01*
X162915Y138610D01*
X162926Y138710D01*
X162948Y138821D01*
X162971Y138932D01*
X163015Y139054D01*
Y139066D01*
X163026Y139077D01*
X163048Y139143D01*
X163093Y139243D01*
X163159Y139376D01*
X163248Y139532D01*
X163359Y139709D01*
X163481Y139887D01*
X163637Y140076D01*
Y140087D01*
X163659Y140098D01*
X163714Y140164D01*
X163814Y140264D01*
X163959Y140408D01*
X164125Y140575D01*
X164336Y140775D01*
X164591Y140997D01*
X164869Y141230D01*
X164880Y141241D01*
X164924Y141274D01*
X164991Y141330D01*
X165069Y141396D01*
X165168Y141485D01*
X165291Y141585D01*
X165413Y141696D01*
X165557Y141818D01*
X165834Y142085D01*
X166112Y142351D01*
X166245Y142484D01*
X166367Y142617D01*
X166478Y142739D01*
X166567Y142862D01*
Y142873D01*
X166589Y142884D01*
X166611Y142917D01*
X166634Y142962D01*
X166711Y143084D01*
X166800Y143228D01*
X166878Y143406D01*
X166956Y143594D01*
X167000Y143805D01*
X167022Y144005D01*
Y144016D01*
Y144027D01*
X167011Y144094D01*
X167000Y144205D01*
X166967Y144327D01*
X166922Y144482D01*
X166845Y144638D01*
X166745Y144793D01*
X166611Y144948D01*
X166589Y144971D01*
X166534Y145015D01*
X166456Y145070D01*
X166334Y145148D01*
X166178Y145215D01*
X166001Y145281D01*
X165790Y145326D01*
X165557Y145337D01*
X165490D01*
X165446Y145326D01*
X165313Y145315D01*
X165157Y145281D01*
X164991Y145237D01*
X164802Y145159D01*
X164625Y145059D01*
X164458Y144926D01*
X164436Y144904D01*
X164391Y144848D01*
X164325Y144760D01*
X164258Y144627D01*
X164181Y144471D01*
X164114Y144271D01*
X164070Y144049D01*
X164047Y143794D01*
X163082Y143894D01*
Y143905D01*
X163093Y143938D01*
Y143994D01*
X163104Y144072D01*
X163126Y144160D01*
X163148Y144260D01*
X163182Y144382D01*
X163215Y144504D01*
X163304Y144771D01*
X163437Y145037D01*
X163515Y145170D01*
X163615Y145303D01*
X163714Y145426D01*
X163825Y145537D01*
X163836Y145548D01*
X163859Y145559D01*
X163892Y145592D01*
X163948Y145625D01*
X164014Y145670D01*
X164092Y145714D01*
X164181Y145770D01*
X164292Y145825D01*
X164414Y145881D01*
X164547Y145936D01*
X164691Y145981D01*
X164847Y146025D01*
X165013Y146058D01*
X165191Y146092D01*
X165379Y146103D01*
X165579Y146114D01*
X165690D01*
X165768Y146103D01*
D02*
G37*
G36*
X159585Y146069D02*
X159774Y146058D01*
X159974Y146047D01*
X160162Y146025D01*
X160329Y146003D01*
X160351D01*
X160429Y145981D01*
X160529Y145958D01*
X160662Y145925D01*
X160806Y145870D01*
X160962Y145803D01*
X161128Y145725D01*
X161272Y145637D01*
X161295Y145625D01*
X161339Y145592D01*
X161406Y145526D01*
X161494Y145448D01*
X161594Y145348D01*
X161694Y145215D01*
X161805Y145070D01*
X161894Y144904D01*
X161905Y144882D01*
X161927Y144826D01*
X161972Y144726D01*
X162016Y144593D01*
X162049Y144438D01*
X162094Y144260D01*
X162116Y144060D01*
X162127Y143849D01*
Y143838D01*
Y143805D01*
Y143761D01*
X162116Y143683D01*
X162105Y143605D01*
X162094Y143505D01*
X162072Y143394D01*
X162049Y143272D01*
X161972Y143017D01*
X161927Y142884D01*
X161861Y142739D01*
X161783Y142595D01*
X161705Y142462D01*
X161605Y142329D01*
X161494Y142196D01*
X161483Y142184D01*
X161461Y142162D01*
X161428Y142129D01*
X161372Y142096D01*
X161306Y142040D01*
X161217Y141985D01*
X161106Y141918D01*
X160984Y141863D01*
X160840Y141796D01*
X160673Y141729D01*
X160495Y141674D01*
X160285Y141629D01*
X160063Y141585D01*
X159818Y141552D01*
X159541Y141530D01*
X159252Y141518D01*
X157288D01*
Y138399D01*
X156266D01*
Y146081D01*
X159419D01*
X159585Y146069D01*
D02*
G37*
G36*
X33795Y152768D02*
X30721D01*
X30310Y150693D01*
X30321Y150704D01*
X30343Y150715D01*
X30376Y150737D01*
X30432Y150770D01*
X30498Y150803D01*
X30576Y150848D01*
X30754Y150937D01*
X30976Y151025D01*
X31220Y151103D01*
X31486Y151159D01*
X31620Y151181D01*
X31864D01*
X31930Y151170D01*
X32019Y151159D01*
X32119Y151148D01*
X32230Y151125D01*
X32352Y151092D01*
X32619Y151014D01*
X32763Y150959D01*
X32907Y150881D01*
X33052Y150803D01*
X33196Y150715D01*
X33329Y150604D01*
X33462Y150482D01*
X33473Y150471D01*
X33496Y150448D01*
X33529Y150415D01*
X33573Y150359D01*
X33629Y150282D01*
X33684Y150204D01*
X33751Y150104D01*
X33817Y149993D01*
X33873Y149871D01*
X33939Y149738D01*
X33995Y149583D01*
X34051Y149427D01*
X34095Y149261D01*
X34128Y149072D01*
X34150Y148883D01*
X34162Y148683D01*
Y148672D01*
Y148639D01*
Y148583D01*
X34150Y148506D01*
X34139Y148417D01*
X34128Y148317D01*
X34106Y148195D01*
X34084Y148073D01*
X34017Y147784D01*
X33906Y147485D01*
X33840Y147329D01*
X33751Y147185D01*
X33662Y147030D01*
X33551Y146885D01*
X33540Y146874D01*
X33518Y146841D01*
X33473Y146797D01*
X33418Y146741D01*
X33340Y146674D01*
X33251Y146586D01*
X33140Y146508D01*
X33018Y146419D01*
X32885Y146330D01*
X32730Y146253D01*
X32563Y146175D01*
X32385Y146097D01*
X32197Y146042D01*
X31986Y145997D01*
X31764Y145964D01*
X31531Y145953D01*
X31431D01*
X31353Y145964D01*
X31264Y145975D01*
X31165Y145986D01*
X31042Y145997D01*
X30920Y146031D01*
X30643Y146097D01*
X30365Y146197D01*
X30221Y146264D01*
X30077Y146341D01*
X29943Y146430D01*
X29810Y146530D01*
X29799Y146541D01*
X29777Y146552D01*
X29755Y146597D01*
X29710Y146641D01*
X29655Y146697D01*
X29599Y146763D01*
X29533Y146852D01*
X29477Y146952D01*
X29411Y147052D01*
X29344Y147174D01*
X29222Y147440D01*
X29122Y147751D01*
X29089Y147917D01*
X29067Y148095D01*
X30055Y148173D01*
Y148162D01*
Y148139D01*
X30066Y148106D01*
X30077Y148051D01*
X30110Y147929D01*
X30154Y147762D01*
X30221Y147596D01*
X30310Y147407D01*
X30421Y147240D01*
X30554Y147085D01*
X30576Y147074D01*
X30621Y147030D01*
X30709Y146974D01*
X30831Y146908D01*
X30965Y146841D01*
X31131Y146785D01*
X31320Y146741D01*
X31531Y146730D01*
X31597D01*
X31642Y146741D01*
X31775Y146752D01*
X31930Y146797D01*
X32119Y146852D01*
X32308Y146941D01*
X32508Y147074D01*
X32596Y147152D01*
X32685Y147240D01*
X32696Y147252D01*
X32707Y147263D01*
X32730Y147296D01*
X32763Y147329D01*
X32841Y147451D01*
X32929Y147607D01*
X33007Y147795D01*
X33085Y148028D01*
X33140Y148306D01*
X33163Y148450D01*
Y148606D01*
Y148617D01*
Y148639D01*
Y148683D01*
X33151Y148739D01*
Y148806D01*
X33140Y148883D01*
X33107Y149061D01*
X33052Y149272D01*
X32974Y149483D01*
X32863Y149682D01*
X32707Y149871D01*
Y149882D01*
X32685Y149893D01*
X32630Y149949D01*
X32530Y150027D01*
X32397Y150115D01*
X32219Y150193D01*
X32019Y150271D01*
X31786Y150326D01*
X31653Y150348D01*
X31442D01*
X31353Y150337D01*
X31242Y150326D01*
X31109Y150293D01*
X30976Y150260D01*
X30831Y150204D01*
X30687Y150138D01*
X30676Y150126D01*
X30632Y150104D01*
X30565Y150049D01*
X30476Y149993D01*
X30387Y149916D01*
X30299Y149816D01*
X30199Y149716D01*
X30121Y149594D01*
X29233Y149716D01*
X29977Y153667D01*
X33795D01*
Y152768D01*
D02*
G37*
G36*
X25370Y153756D02*
X25470D01*
X25703Y153745D01*
X25948Y153712D01*
X26214Y153678D01*
X26458Y153623D01*
X26580Y153589D01*
X26680Y153556D01*
X26691D01*
X26702Y153545D01*
X26769Y153512D01*
X26869Y153467D01*
X26991Y153390D01*
X27124Y153290D01*
X27269Y153157D01*
X27402Y153001D01*
X27535Y152824D01*
Y152812D01*
X27546Y152801D01*
X27590Y152735D01*
X27635Y152624D01*
X27701Y152480D01*
X27757Y152313D01*
X27812Y152113D01*
X27846Y151902D01*
X27857Y151669D01*
Y151658D01*
Y151636D01*
Y151592D01*
X27846Y151536D01*
Y151458D01*
X27835Y151381D01*
X27790Y151192D01*
X27724Y150970D01*
X27635Y150737D01*
X27502Y150504D01*
X27413Y150393D01*
X27324Y150282D01*
X27313Y150271D01*
X27302Y150260D01*
X27269Y150226D01*
X27224Y150193D01*
X27169Y150149D01*
X27102Y150104D01*
X27013Y150049D01*
X26924Y149982D01*
X26813Y149927D01*
X26691Y149871D01*
X26558Y149804D01*
X26414Y149749D01*
X26247Y149705D01*
X26081Y149649D01*
X25892Y149616D01*
X25692Y149583D01*
X25714Y149571D01*
X25759Y149549D01*
X25826Y149505D01*
X25914Y149460D01*
X26114Y149338D01*
X26214Y149261D01*
X26303Y149194D01*
X26325Y149172D01*
X26381Y149116D01*
X26469Y149028D01*
X26580Y148917D01*
X26702Y148761D01*
X26847Y148595D01*
X26991Y148395D01*
X27146Y148173D01*
X28467Y146086D01*
X27202D01*
X26192Y147684D01*
Y147696D01*
X26170Y147718D01*
X26147Y147751D01*
X26114Y147795D01*
X26036Y147917D01*
X25937Y148073D01*
X25814Y148239D01*
X25692Y148417D01*
X25570Y148583D01*
X25459Y148739D01*
X25448Y148750D01*
X25415Y148794D01*
X25359Y148861D01*
X25282Y148939D01*
X25115Y149105D01*
X25026Y149183D01*
X24938Y149249D01*
X24926Y149261D01*
X24904Y149272D01*
X24860Y149294D01*
X24793Y149327D01*
X24727Y149361D01*
X24649Y149394D01*
X24471Y149449D01*
X24460D01*
X24438Y149460D01*
X24394D01*
X24338Y149472D01*
X24260Y149483D01*
X24172D01*
X24049Y149494D01*
X22740D01*
Y146086D01*
X21719D01*
Y153767D01*
X25282D01*
X25370Y153756D01*
D02*
G37*
G36*
X17624Y152857D02*
X17613Y152846D01*
X17590Y152824D01*
X17546Y152779D01*
X17502Y152713D01*
X17435Y152635D01*
X17346Y152546D01*
X17257Y152435D01*
X17157Y152302D01*
X17058Y152169D01*
X16935Y152013D01*
X16813Y151836D01*
X16691Y151658D01*
X16558Y151458D01*
X16425Y151248D01*
X16292Y151014D01*
X16158Y150781D01*
X16147Y150770D01*
X16125Y150726D01*
X16092Y150659D01*
X16036Y150559D01*
X15981Y150437D01*
X15914Y150304D01*
X15837Y150149D01*
X15759Y149971D01*
X15670Y149771D01*
X15570Y149571D01*
X15481Y149349D01*
X15393Y149116D01*
X15215Y148639D01*
X15049Y148128D01*
Y148117D01*
X15037Y148084D01*
X15026Y148028D01*
X15004Y147962D01*
X14982Y147873D01*
X14960Y147762D01*
X14926Y147640D01*
X14904Y147507D01*
X14871Y147351D01*
X14838Y147185D01*
X14782Y146830D01*
X14727Y146441D01*
X14693Y146019D01*
X13728D01*
Y146031D01*
Y146064D01*
Y146108D01*
X13739Y146175D01*
Y146264D01*
X13750Y146375D01*
X13761Y146497D01*
X13772Y146630D01*
X13794Y146785D01*
X13816Y146941D01*
X13850Y147129D01*
X13883Y147318D01*
X13916Y147518D01*
X13961Y147740D01*
X14072Y148195D01*
Y148206D01*
X14083Y148251D01*
X14105Y148317D01*
X14138Y148417D01*
X14172Y148528D01*
X14216Y148661D01*
X14260Y148817D01*
X14327Y148983D01*
X14394Y149172D01*
X14460Y149361D01*
X14627Y149782D01*
X14827Y150226D01*
X15049Y150670D01*
X15060Y150681D01*
X15082Y150726D01*
X15115Y150781D01*
X15159Y150870D01*
X15215Y150970D01*
X15293Y151092D01*
X15370Y151225D01*
X15459Y151370D01*
X15670Y151692D01*
X15892Y152024D01*
X16147Y152369D01*
X16414Y152690D01*
X12651D01*
Y153601D01*
X17624D01*
Y152857D01*
D02*
G37*
G36*
X8888Y153689D02*
X8988D01*
X9221Y153678D01*
X9465Y153645D01*
X9732Y153612D01*
X9976Y153556D01*
X10098Y153523D01*
X10198Y153490D01*
X10209D01*
X10220Y153478D01*
X10287Y153445D01*
X10387Y153401D01*
X10509Y153323D01*
X10642Y153223D01*
X10786Y153090D01*
X10919Y152935D01*
X11053Y152757D01*
Y152746D01*
X11064Y152735D01*
X11108Y152668D01*
X11152Y152557D01*
X11219Y152413D01*
X11275Y152247D01*
X11330Y152047D01*
X11363Y151836D01*
X11374Y151603D01*
Y151592D01*
Y151569D01*
Y151525D01*
X11363Y151469D01*
Y151392D01*
X11352Y151314D01*
X11308Y151125D01*
X11241Y150903D01*
X11152Y150670D01*
X11019Y150437D01*
X10931Y150326D01*
X10842Y150215D01*
X10831Y150204D01*
X10819Y150193D01*
X10786Y150160D01*
X10742Y150126D01*
X10686Y150082D01*
X10620Y150038D01*
X10531Y149982D01*
X10442Y149916D01*
X10331Y149860D01*
X10209Y149804D01*
X10076Y149738D01*
X9931Y149682D01*
X9765Y149638D01*
X9599Y149583D01*
X9410Y149549D01*
X9210Y149516D01*
X9232Y149505D01*
X9277Y149483D01*
X9343Y149438D01*
X9432Y149394D01*
X9632Y149272D01*
X9732Y149194D01*
X9821Y149127D01*
X9843Y149105D01*
X9898Y149050D01*
X9987Y148961D01*
X10098Y148850D01*
X10220Y148694D01*
X10364Y148528D01*
X10509Y148328D01*
X10664Y148106D01*
X11985Y146019D01*
X10720D01*
X9710Y147618D01*
Y147629D01*
X9687Y147651D01*
X9665Y147684D01*
X9632Y147729D01*
X9554Y147851D01*
X9454Y148006D01*
X9332Y148173D01*
X9210Y148350D01*
X9088Y148517D01*
X8977Y148672D01*
X8966Y148683D01*
X8932Y148728D01*
X8877Y148794D01*
X8799Y148872D01*
X8633Y149039D01*
X8544Y149116D01*
X8455Y149183D01*
X8444Y149194D01*
X8422Y149205D01*
X8378Y149227D01*
X8311Y149261D01*
X8244Y149294D01*
X8167Y149327D01*
X7989Y149383D01*
X7978D01*
X7956Y149394D01*
X7911D01*
X7856Y149405D01*
X7778Y149416D01*
X7689D01*
X7567Y149427D01*
X6258D01*
Y146019D01*
X5236D01*
Y153701D01*
X8799D01*
X8888Y153689D01*
D02*
G37*
G36*
X47365Y172773D02*
X47442D01*
X47531Y172762D01*
X47742Y172717D01*
X47975Y172662D01*
X48219Y172573D01*
X48464Y172440D01*
X48586Y172362D01*
X48697Y172273D01*
X48708Y172262D01*
X48719Y172251D01*
X48752Y172218D01*
X48785Y172184D01*
X48841Y172129D01*
X48885Y172062D01*
X49007Y171907D01*
X49130Y171707D01*
X49240Y171463D01*
X49340Y171185D01*
X49407Y170875D01*
X48464Y170797D01*
Y170808D01*
X48452Y170819D01*
X48441Y170886D01*
X48408Y170986D01*
X48364Y171108D01*
X48319Y171241D01*
X48253Y171374D01*
X48175Y171496D01*
X48097Y171596D01*
X48075Y171618D01*
X48031Y171663D01*
X47953Y171729D01*
X47842Y171807D01*
X47698Y171874D01*
X47542Y171940D01*
X47354Y171985D01*
X47154Y172007D01*
X47076D01*
X46987Y171996D01*
X46887Y171973D01*
X46754Y171940D01*
X46621Y171896D01*
X46488Y171840D01*
X46354Y171751D01*
X46332Y171740D01*
X46277Y171696D01*
X46199Y171618D01*
X46099Y171507D01*
X45988Y171374D01*
X45866Y171219D01*
X45755Y171019D01*
X45644Y170797D01*
Y170786D01*
X45633Y170764D01*
X45622Y170730D01*
X45600Y170686D01*
X45589Y170619D01*
X45567Y170542D01*
X45544Y170453D01*
X45522Y170342D01*
X45489Y170220D01*
X45467Y170087D01*
X45444Y169942D01*
X45433Y169787D01*
X45411Y169609D01*
X45400Y169432D01*
X45389Y169232D01*
Y169032D01*
X45400Y169043D01*
X45444Y169110D01*
X45522Y169199D01*
X45622Y169310D01*
X45733Y169443D01*
X45877Y169565D01*
X46033Y169687D01*
X46210Y169798D01*
X46221D01*
X46232Y169809D01*
X46299Y169842D01*
X46399Y169876D01*
X46532Y169931D01*
X46687Y169976D01*
X46865Y170009D01*
X47054Y170042D01*
X47254Y170053D01*
X47342D01*
X47409Y170042D01*
X47498Y170031D01*
X47587Y170020D01*
X47698Y169998D01*
X47809Y169965D01*
X48064Y169887D01*
X48197Y169831D01*
X48330Y169754D01*
X48464Y169676D01*
X48608Y169587D01*
X48741Y169476D01*
X48863Y169354D01*
X48874Y169343D01*
X48896Y169321D01*
X48930Y169287D01*
X48963Y169232D01*
X49019Y169154D01*
X49074Y169076D01*
X49130Y168977D01*
X49196Y168866D01*
X49263Y168743D01*
X49318Y168610D01*
X49374Y168455D01*
X49429Y168300D01*
X49462Y168133D01*
X49496Y167944D01*
X49518Y167756D01*
X49529Y167556D01*
Y167545D01*
Y167523D01*
Y167489D01*
Y167434D01*
X49518Y167367D01*
Y167300D01*
X49485Y167123D01*
X49451Y166912D01*
X49396Y166690D01*
X49318Y166446D01*
X49207Y166213D01*
Y166202D01*
X49196Y166190D01*
X49174Y166157D01*
X49152Y166113D01*
X49085Y166002D01*
X48985Y165858D01*
X48863Y165702D01*
X48719Y165547D01*
X48541Y165391D01*
X48352Y165258D01*
X48341D01*
X48330Y165247D01*
X48297Y165225D01*
X48253Y165214D01*
X48142Y165158D01*
X47997Y165103D01*
X47809Y165036D01*
X47598Y164992D01*
X47365Y164947D01*
X47109Y164936D01*
X47054D01*
X46998Y164947D01*
X46909D01*
X46810Y164958D01*
X46699Y164981D01*
X46565Y165014D01*
X46432Y165047D01*
X46277Y165092D01*
X46121Y165147D01*
X45966Y165214D01*
X45800Y165303D01*
X45644Y165403D01*
X45489Y165513D01*
X45333Y165647D01*
X45189Y165802D01*
X45178Y165813D01*
X45156Y165847D01*
X45122Y165891D01*
X45078Y165969D01*
X45012Y166068D01*
X44956Y166179D01*
X44889Y166324D01*
X44823Y166479D01*
X44745Y166668D01*
X44679Y166879D01*
X44623Y167112D01*
X44567Y167367D01*
X44512Y167656D01*
X44479Y167966D01*
X44457Y168300D01*
X44445Y168655D01*
Y168666D01*
Y168677D01*
Y168710D01*
Y168755D01*
X44457Y168866D01*
Y169021D01*
X44468Y169199D01*
X44490Y169410D01*
X44512Y169643D01*
X44545Y169898D01*
X44590Y170153D01*
X44645Y170431D01*
X44712Y170697D01*
X44790Y170963D01*
X44889Y171219D01*
X45000Y171463D01*
X45122Y171696D01*
X45267Y171896D01*
X45278Y171907D01*
X45300Y171929D01*
X45345Y171973D01*
X45400Y172040D01*
X45467Y172107D01*
X45555Y172173D01*
X45666Y172262D01*
X45777Y172340D01*
X45911Y172418D01*
X46055Y172506D01*
X46221Y172573D01*
X46388Y172651D01*
X46576Y172706D01*
X46776Y172750D01*
X46987Y172773D01*
X47209Y172784D01*
X47298D01*
X47365Y172773D01*
D02*
G37*
G36*
X40638Y172873D02*
X40738Y172861D01*
X40860Y172850D01*
X40982Y172839D01*
X41126Y172806D01*
X41426Y172739D01*
X41759Y172640D01*
X41926Y172573D01*
X42081Y172495D01*
X42236Y172395D01*
X42392Y172295D01*
X42403Y172284D01*
X42425Y172273D01*
X42470Y172240D01*
X42525Y172184D01*
X42581Y172129D01*
X42658Y172051D01*
X42736Y171962D01*
X42825Y171874D01*
X42914Y171763D01*
X43002Y171630D01*
X43102Y171496D01*
X43191Y171352D01*
X43269Y171185D01*
X43358Y171019D01*
X43424Y170841D01*
X43491Y170642D01*
X42492Y170408D01*
Y170420D01*
X42481Y170442D01*
X42459Y170486D01*
X42436Y170542D01*
X42414Y170608D01*
X42381Y170697D01*
X42292Y170875D01*
X42181Y171075D01*
X42048Y171274D01*
X41881Y171463D01*
X41704Y171630D01*
X41681Y171652D01*
X41615Y171696D01*
X41504Y171751D01*
X41360Y171829D01*
X41171Y171896D01*
X40960Y171962D01*
X40705Y172007D01*
X40427Y172018D01*
X40339D01*
X40283Y172007D01*
X40205D01*
X40117Y171996D01*
X39906Y171962D01*
X39673Y171918D01*
X39428Y171840D01*
X39173Y171729D01*
X38940Y171585D01*
X38929D01*
X38918Y171563D01*
X38840Y171507D01*
X38740Y171419D01*
X38618Y171285D01*
X38474Y171119D01*
X38340Y170930D01*
X38218Y170697D01*
X38107Y170442D01*
Y170431D01*
X38096Y170408D01*
X38085Y170375D01*
X38074Y170320D01*
X38052Y170253D01*
X38030Y170175D01*
X37996Y169987D01*
X37952Y169765D01*
X37908Y169520D01*
X37885Y169254D01*
X37874Y168965D01*
Y168954D01*
Y168921D01*
Y168866D01*
Y168799D01*
X37885Y168721D01*
Y168621D01*
X37896Y168510D01*
X37908Y168388D01*
X37941Y168122D01*
X37996Y167833D01*
X38063Y167545D01*
X38152Y167256D01*
Y167245D01*
X38163Y167223D01*
X38185Y167190D01*
X38207Y167134D01*
X38274Y167001D01*
X38374Y166845D01*
X38496Y166668D01*
X38651Y166479D01*
X38829Y166313D01*
X39040Y166157D01*
X39051D01*
X39073Y166146D01*
X39106Y166124D01*
X39151Y166102D01*
X39206Y166080D01*
X39273Y166046D01*
X39428Y165980D01*
X39628Y165913D01*
X39850Y165858D01*
X40094Y165813D01*
X40350Y165802D01*
X40427D01*
X40494Y165813D01*
X40571D01*
X40649Y165824D01*
X40849Y165869D01*
X41082Y165924D01*
X41315Y166013D01*
X41559Y166135D01*
X41681Y166202D01*
X41792Y166290D01*
X41804Y166301D01*
X41815Y166313D01*
X41848Y166346D01*
X41892Y166379D01*
X41937Y166435D01*
X41992Y166501D01*
X42059Y166568D01*
X42114Y166657D01*
X42181Y166757D01*
X42259Y166868D01*
X42325Y166979D01*
X42392Y167112D01*
X42447Y167256D01*
X42503Y167411D01*
X42558Y167578D01*
X42603Y167756D01*
X43624Y167500D01*
Y167489D01*
X43613Y167445D01*
X43591Y167378D01*
X43557Y167289D01*
X43524Y167190D01*
X43480Y167067D01*
X43424Y166934D01*
X43358Y166790D01*
X43202Y166479D01*
X43002Y166168D01*
X42880Y166013D01*
X42758Y165858D01*
X42625Y165724D01*
X42470Y165591D01*
X42459Y165580D01*
X42436Y165558D01*
X42381Y165536D01*
X42325Y165491D01*
X42236Y165436D01*
X42148Y165380D01*
X42026Y165325D01*
X41904Y165269D01*
X41759Y165203D01*
X41604Y165147D01*
X41437Y165092D01*
X41260Y165036D01*
X41071Y164992D01*
X40871Y164970D01*
X40660Y164947D01*
X40438Y164936D01*
X40316D01*
X40227Y164947D01*
X40128D01*
X40005Y164958D01*
X39872Y164981D01*
X39717Y165003D01*
X39395Y165058D01*
X39062Y165147D01*
X38729Y165269D01*
X38574Y165347D01*
X38418Y165436D01*
X38407Y165447D01*
X38385Y165458D01*
X38340Y165491D01*
X38296Y165536D01*
X38229Y165580D01*
X38152Y165647D01*
X38063Y165724D01*
X37974Y165813D01*
X37885Y165913D01*
X37785Y166013D01*
X37586Y166268D01*
X37397Y166568D01*
X37231Y166901D01*
Y166912D01*
X37208Y166945D01*
X37197Y167001D01*
X37164Y167067D01*
X37142Y167156D01*
X37108Y167267D01*
X37064Y167389D01*
X37031Y167523D01*
X36997Y167667D01*
X36953Y167833D01*
X36897Y168177D01*
X36853Y168566D01*
X36831Y168965D01*
Y168977D01*
Y169021D01*
Y169088D01*
X36842Y169165D01*
Y169276D01*
X36853Y169387D01*
X36864Y169532D01*
X36886Y169676D01*
X36942Y169998D01*
X37020Y170353D01*
X37131Y170708D01*
X37286Y171052D01*
X37297Y171063D01*
X37308Y171097D01*
X37330Y171141D01*
X37375Y171197D01*
X37419Y171274D01*
X37475Y171363D01*
X37619Y171563D01*
X37808Y171785D01*
X38030Y172007D01*
X38285Y172229D01*
X38585Y172418D01*
X38596Y172429D01*
X38629Y172440D01*
X38674Y172462D01*
X38729Y172495D01*
X38818Y172528D01*
X38907Y172562D01*
X39018Y172606D01*
X39140Y172651D01*
X39273Y172695D01*
X39417Y172739D01*
X39728Y172806D01*
X40083Y172861D01*
X40449Y172884D01*
X40560D01*
X40638Y172873D01*
D02*
G37*
G36*
X62449Y172823D02*
X62527D01*
X62616Y172812D01*
X62827Y172767D01*
X63060Y172712D01*
X63304Y172623D01*
X63548Y172490D01*
X63670Y172412D01*
X63781Y172323D01*
X63792Y172312D01*
X63803Y172301D01*
X63837Y172268D01*
X63870Y172234D01*
X63925Y172179D01*
X63970Y172112D01*
X64092Y171957D01*
X64214Y171757D01*
X64325Y171513D01*
X64425Y171235D01*
X64492Y170925D01*
X63548Y170847D01*
Y170858D01*
X63537Y170869D01*
X63526Y170936D01*
X63493Y171036D01*
X63448Y171158D01*
X63404Y171291D01*
X63337Y171424D01*
X63260Y171546D01*
X63182Y171646D01*
X63160Y171668D01*
X63115Y171713D01*
X63038Y171779D01*
X62927Y171857D01*
X62782Y171924D01*
X62627Y171990D01*
X62438Y172035D01*
X62238Y172057D01*
X62161D01*
X62072Y172046D01*
X61972Y172024D01*
X61839Y171990D01*
X61705Y171946D01*
X61572Y171890D01*
X61439Y171801D01*
X61417Y171790D01*
X61361Y171746D01*
X61284Y171668D01*
X61184Y171557D01*
X61073Y171424D01*
X60951Y171269D01*
X60840Y171069D01*
X60729Y170847D01*
Y170836D01*
X60718Y170814D01*
X60707Y170780D01*
X60684Y170736D01*
X60673Y170669D01*
X60651Y170592D01*
X60629Y170503D01*
X60607Y170392D01*
X60573Y170270D01*
X60551Y170137D01*
X60529Y169992D01*
X60518Y169837D01*
X60496Y169659D01*
X60485Y169482D01*
X60473Y169282D01*
Y169082D01*
X60485Y169093D01*
X60529Y169160D01*
X60607Y169249D01*
X60707Y169360D01*
X60818Y169493D01*
X60962Y169615D01*
X61117Y169737D01*
X61295Y169848D01*
X61306D01*
X61317Y169859D01*
X61384Y169892D01*
X61483Y169926D01*
X61617Y169981D01*
X61772Y170026D01*
X61950Y170059D01*
X62138Y170092D01*
X62338Y170103D01*
X62427D01*
X62494Y170092D01*
X62582Y170081D01*
X62671Y170070D01*
X62782Y170048D01*
X62893Y170014D01*
X63148Y169937D01*
X63282Y169881D01*
X63415Y169804D01*
X63548Y169726D01*
X63692Y169637D01*
X63826Y169526D01*
X63948Y169404D01*
X63959Y169393D01*
X63981Y169371D01*
X64014Y169337D01*
X64048Y169282D01*
X64103Y169204D01*
X64159Y169126D01*
X64214Y169027D01*
X64281Y168916D01*
X64347Y168794D01*
X64403Y168660D01*
X64458Y168505D01*
X64514Y168349D01*
X64547Y168183D01*
X64580Y167994D01*
X64603Y167806D01*
X64614Y167606D01*
Y167595D01*
Y167572D01*
Y167539D01*
Y167484D01*
X64603Y167417D01*
Y167351D01*
X64569Y167173D01*
X64536Y166962D01*
X64481Y166740D01*
X64403Y166496D01*
X64292Y166263D01*
Y166252D01*
X64281Y166241D01*
X64258Y166207D01*
X64236Y166163D01*
X64170Y166052D01*
X64070Y165907D01*
X63948Y165752D01*
X63803Y165597D01*
X63626Y165441D01*
X63437Y165308D01*
X63426D01*
X63415Y165297D01*
X63382Y165275D01*
X63337Y165264D01*
X63226Y165208D01*
X63082Y165153D01*
X62893Y165086D01*
X62682Y165042D01*
X62449Y164997D01*
X62194Y164986D01*
X62138D01*
X62083Y164997D01*
X61994D01*
X61894Y165008D01*
X61783Y165031D01*
X61650Y165064D01*
X61517Y165097D01*
X61361Y165142D01*
X61206Y165197D01*
X61051Y165264D01*
X60884Y165352D01*
X60729Y165452D01*
X60573Y165563D01*
X60418Y165697D01*
X60274Y165852D01*
X60263Y165863D01*
X60240Y165896D01*
X60207Y165941D01*
X60163Y166019D01*
X60096Y166118D01*
X60041Y166229D01*
X59974Y166374D01*
X59907Y166529D01*
X59830Y166718D01*
X59763Y166929D01*
X59708Y167162D01*
X59652Y167417D01*
X59597Y167706D01*
X59563Y168016D01*
X59541Y168349D01*
X59530Y168705D01*
Y168716D01*
Y168727D01*
Y168760D01*
Y168805D01*
X59541Y168916D01*
Y169071D01*
X59552Y169249D01*
X59574Y169459D01*
X59597Y169692D01*
X59630Y169948D01*
X59674Y170203D01*
X59730Y170481D01*
X59796Y170747D01*
X59874Y171013D01*
X59974Y171269D01*
X60085Y171513D01*
X60207Y171746D01*
X60351Y171946D01*
X60363Y171957D01*
X60385Y171979D01*
X60429Y172024D01*
X60485Y172090D01*
X60551Y172157D01*
X60640Y172223D01*
X60751Y172312D01*
X60862Y172390D01*
X60995Y172467D01*
X61139Y172556D01*
X61306Y172623D01*
X61472Y172701D01*
X61661Y172756D01*
X61861Y172801D01*
X62072Y172823D01*
X62294Y172834D01*
X62383D01*
X62449Y172823D01*
D02*
G37*
G36*
X55878Y172789D02*
X55978D01*
X56211Y172778D01*
X56455Y172745D01*
X56722Y172712D01*
X56966Y172656D01*
X57088Y172623D01*
X57188Y172590D01*
X57199D01*
X57210Y172579D01*
X57277Y172545D01*
X57377Y172501D01*
X57499Y172423D01*
X57632Y172323D01*
X57776Y172190D01*
X57909Y172035D01*
X58043Y171857D01*
Y171846D01*
X58054Y171835D01*
X58098Y171768D01*
X58142Y171657D01*
X58209Y171513D01*
X58265Y171346D01*
X58320Y171147D01*
X58353Y170936D01*
X58365Y170703D01*
Y170692D01*
Y170669D01*
Y170625D01*
X58353Y170569D01*
Y170492D01*
X58342Y170414D01*
X58298Y170225D01*
X58231Y170003D01*
X58142Y169770D01*
X58009Y169537D01*
X57920Y169426D01*
X57832Y169315D01*
X57821Y169304D01*
X57810Y169293D01*
X57776Y169260D01*
X57732Y169226D01*
X57676Y169182D01*
X57610Y169138D01*
X57521Y169082D01*
X57432Y169016D01*
X57321Y168960D01*
X57199Y168904D01*
X57066Y168838D01*
X56922Y168782D01*
X56755Y168738D01*
X56589Y168682D01*
X56400Y168649D01*
X56200Y168616D01*
X56222Y168605D01*
X56267Y168583D01*
X56333Y168538D01*
X56422Y168494D01*
X56622Y168372D01*
X56722Y168294D01*
X56810Y168227D01*
X56833Y168205D01*
X56888Y168150D01*
X56977Y168061D01*
X57088Y167950D01*
X57210Y167794D01*
X57354Y167628D01*
X57499Y167428D01*
X57654Y167206D01*
X58975Y165119D01*
X57710D01*
X56700Y166718D01*
Y166729D01*
X56677Y166751D01*
X56655Y166784D01*
X56622Y166829D01*
X56544Y166951D01*
X56444Y167106D01*
X56322Y167273D01*
X56200Y167450D01*
X56078Y167617D01*
X55967Y167772D01*
X55956Y167783D01*
X55922Y167828D01*
X55867Y167894D01*
X55789Y167972D01*
X55623Y168139D01*
X55534Y168216D01*
X55445Y168283D01*
X55434Y168294D01*
X55412Y168305D01*
X55368Y168327D01*
X55301Y168361D01*
X55234Y168394D01*
X55157Y168427D01*
X54979Y168483D01*
X54968D01*
X54946Y168494D01*
X54901D01*
X54846Y168505D01*
X54768Y168516D01*
X54679D01*
X54557Y168527D01*
X53247D01*
Y165119D01*
X52226D01*
Y172801D01*
X55789D01*
X55878Y172789D01*
D02*
G37*
G36*
X71135Y172873D02*
X71235Y172861D01*
X71357Y172850D01*
X71479Y172839D01*
X71623Y172806D01*
X71923Y172739D01*
X72256Y172640D01*
X72422Y172573D01*
X72578Y172495D01*
X72733Y172395D01*
X72889Y172295D01*
X72900Y172284D01*
X72922Y172273D01*
X72966Y172240D01*
X73022Y172184D01*
X73077Y172129D01*
X73155Y172051D01*
X73233Y171962D01*
X73321Y171874D01*
X73410Y171763D01*
X73499Y171630D01*
X73599Y171496D01*
X73688Y171352D01*
X73766Y171185D01*
X73854Y171019D01*
X73921Y170841D01*
X73987Y170642D01*
X72989Y170408D01*
Y170420D01*
X72977Y170442D01*
X72955Y170486D01*
X72933Y170542D01*
X72911Y170608D01*
X72877Y170697D01*
X72789Y170875D01*
X72678Y171075D01*
X72544Y171274D01*
X72378Y171463D01*
X72200Y171630D01*
X72178Y171652D01*
X72112Y171696D01*
X72001Y171751D01*
X71856Y171829D01*
X71668Y171896D01*
X71457Y171962D01*
X71201Y172007D01*
X70924Y172018D01*
X70835D01*
X70780Y172007D01*
X70702D01*
X70613Y171996D01*
X70402Y171962D01*
X70169Y171918D01*
X69925Y171840D01*
X69670Y171729D01*
X69436Y171585D01*
X69425D01*
X69414Y171563D01*
X69337Y171507D01*
X69237Y171419D01*
X69115Y171285D01*
X68970Y171119D01*
X68837Y170930D01*
X68715Y170697D01*
X68604Y170442D01*
Y170431D01*
X68593Y170408D01*
X68582Y170375D01*
X68571Y170320D01*
X68549Y170253D01*
X68526Y170175D01*
X68493Y169987D01*
X68449Y169765D01*
X68404Y169520D01*
X68382Y169254D01*
X68371Y168965D01*
Y168954D01*
Y168921D01*
Y168866D01*
Y168799D01*
X68382Y168721D01*
Y168621D01*
X68393Y168510D01*
X68404Y168388D01*
X68438Y168122D01*
X68493Y167833D01*
X68560Y167545D01*
X68649Y167256D01*
Y167245D01*
X68660Y167223D01*
X68682Y167190D01*
X68704Y167134D01*
X68771Y167001D01*
X68870Y166845D01*
X68993Y166668D01*
X69148Y166479D01*
X69325Y166313D01*
X69536Y166157D01*
X69548D01*
X69570Y166146D01*
X69603Y166124D01*
X69647Y166102D01*
X69703Y166080D01*
X69770Y166046D01*
X69925Y165980D01*
X70125Y165913D01*
X70347Y165858D01*
X70591Y165813D01*
X70846Y165802D01*
X70924D01*
X70991Y165813D01*
X71068D01*
X71146Y165824D01*
X71346Y165869D01*
X71579Y165924D01*
X71812Y166013D01*
X72056Y166135D01*
X72178Y166202D01*
X72289Y166290D01*
X72300Y166301D01*
X72311Y166313D01*
X72345Y166346D01*
X72389Y166379D01*
X72434Y166435D01*
X72489Y166501D01*
X72556Y166568D01*
X72611Y166657D01*
X72678Y166757D01*
X72755Y166868D01*
X72822Y166979D01*
X72889Y167112D01*
X72944Y167256D01*
X73000Y167411D01*
X73055Y167578D01*
X73099Y167756D01*
X74121Y167500D01*
Y167489D01*
X74110Y167445D01*
X74087Y167378D01*
X74054Y167289D01*
X74021Y167190D01*
X73976Y167067D01*
X73921Y166934D01*
X73854Y166790D01*
X73699Y166479D01*
X73499Y166168D01*
X73377Y166013D01*
X73255Y165858D01*
X73122Y165724D01*
X72966Y165591D01*
X72955Y165580D01*
X72933Y165558D01*
X72877Y165536D01*
X72822Y165491D01*
X72733Y165436D01*
X72644Y165380D01*
X72522Y165325D01*
X72400Y165269D01*
X72256Y165203D01*
X72101Y165147D01*
X71934Y165092D01*
X71756Y165036D01*
X71568Y164992D01*
X71368Y164970D01*
X71157Y164947D01*
X70935Y164936D01*
X70813D01*
X70724Y164947D01*
X70624D01*
X70502Y164958D01*
X70369Y164981D01*
X70213Y165003D01*
X69892Y165058D01*
X69559Y165147D01*
X69226Y165269D01*
X69070Y165347D01*
X68915Y165436D01*
X68904Y165447D01*
X68882Y165458D01*
X68837Y165491D01*
X68793Y165536D01*
X68726Y165580D01*
X68649Y165647D01*
X68560Y165724D01*
X68471Y165813D01*
X68382Y165913D01*
X68282Y166013D01*
X68082Y166268D01*
X67894Y166568D01*
X67727Y166901D01*
Y166912D01*
X67705Y166945D01*
X67694Y167001D01*
X67661Y167067D01*
X67638Y167156D01*
X67605Y167267D01*
X67561Y167389D01*
X67527Y167523D01*
X67494Y167667D01*
X67450Y167833D01*
X67394Y168177D01*
X67350Y168566D01*
X67328Y168965D01*
Y168977D01*
Y169021D01*
Y169088D01*
X67339Y169165D01*
Y169276D01*
X67350Y169387D01*
X67361Y169532D01*
X67383Y169676D01*
X67439Y169998D01*
X67516Y170353D01*
X67627Y170708D01*
X67783Y171052D01*
X67794Y171063D01*
X67805Y171097D01*
X67827Y171141D01*
X67871Y171197D01*
X67916Y171274D01*
X67971Y171363D01*
X68116Y171563D01*
X68304Y171785D01*
X68526Y172007D01*
X68782Y172229D01*
X69081Y172418D01*
X69092Y172429D01*
X69126Y172440D01*
X69170Y172462D01*
X69226Y172495D01*
X69314Y172528D01*
X69403Y172562D01*
X69514Y172606D01*
X69636Y172651D01*
X69770Y172695D01*
X69914Y172739D01*
X70225Y172806D01*
X70580Y172861D01*
X70946Y172884D01*
X71057D01*
X71135Y172873D01*
D02*
G37*
G36*
X78949Y167778D02*
X79992D01*
Y166912D01*
X78949D01*
Y165070D01*
X78006D01*
Y166912D01*
X74665D01*
Y167778D01*
X78183Y172750D01*
X78949D01*
Y167778D01*
D02*
G37*
G36*
X93080Y165053D02*
X92136D01*
Y171058D01*
X92125Y171047D01*
X92070Y171002D01*
X92003Y170936D01*
X91892Y170858D01*
X91770Y170758D01*
X91615Y170647D01*
X91437Y170525D01*
X91237Y170403D01*
X91226D01*
X91215Y170392D01*
X91149Y170347D01*
X91038Y170292D01*
X90904Y170225D01*
X90749Y170148D01*
X90583Y170070D01*
X90416Y169992D01*
X90250Y169926D01*
Y170836D01*
X90261D01*
X90283Y170858D01*
X90327Y170869D01*
X90383Y170902D01*
X90449Y170936D01*
X90527Y170980D01*
X90716Y171091D01*
X90938Y171213D01*
X91160Y171369D01*
X91393Y171546D01*
X91626Y171735D01*
X91637Y171746D01*
X91648Y171757D01*
X91681Y171790D01*
X91726Y171824D01*
X91826Y171935D01*
X91959Y172068D01*
X92092Y172223D01*
X92236Y172401D01*
X92359Y172579D01*
X92470Y172767D01*
X93080D01*
Y165053D01*
D02*
G37*
G36*
X85832Y172723D02*
X85932D01*
X86165Y172712D01*
X86409Y172678D01*
X86675Y172645D01*
X86920Y172590D01*
X87042Y172556D01*
X87142Y172523D01*
X87153D01*
X87164Y172512D01*
X87230Y172479D01*
X87330Y172434D01*
X87452Y172356D01*
X87586Y172257D01*
X87730Y172123D01*
X87863Y171968D01*
X87996Y171790D01*
Y171779D01*
X88007Y171768D01*
X88052Y171702D01*
X88096Y171591D01*
X88163Y171446D01*
X88218Y171280D01*
X88274Y171080D01*
X88307Y170869D01*
X88318Y170636D01*
Y170625D01*
Y170603D01*
Y170558D01*
X88307Y170503D01*
Y170425D01*
X88296Y170347D01*
X88252Y170159D01*
X88185Y169937D01*
X88096Y169704D01*
X87963Y169471D01*
X87874Y169360D01*
X87785Y169249D01*
X87774Y169237D01*
X87763Y169226D01*
X87730Y169193D01*
X87685Y169160D01*
X87630Y169115D01*
X87563Y169071D01*
X87475Y169016D01*
X87386Y168949D01*
X87275Y168893D01*
X87153Y168838D01*
X87020Y168771D01*
X86875Y168716D01*
X86709Y168671D01*
X86542Y168616D01*
X86354Y168583D01*
X86154Y168549D01*
X86176Y168538D01*
X86220Y168516D01*
X86287Y168472D01*
X86376Y168427D01*
X86575Y168305D01*
X86675Y168227D01*
X86764Y168161D01*
X86786Y168139D01*
X86842Y168083D01*
X86931Y167994D01*
X87042Y167883D01*
X87164Y167728D01*
X87308Y167561D01*
X87452Y167362D01*
X87608Y167140D01*
X88929Y165053D01*
X87663D01*
X86653Y166651D01*
Y166662D01*
X86631Y166684D01*
X86609Y166718D01*
X86575Y166762D01*
X86498Y166884D01*
X86398Y167040D01*
X86276Y167206D01*
X86154Y167384D01*
X86032Y167550D01*
X85921Y167706D01*
X85910Y167717D01*
X85876Y167761D01*
X85821Y167828D01*
X85743Y167906D01*
X85576Y168072D01*
X85488Y168150D01*
X85399Y168216D01*
X85388Y168227D01*
X85366Y168239D01*
X85321Y168261D01*
X85255Y168294D01*
X85188Y168327D01*
X85110Y168361D01*
X84933Y168416D01*
X84922D01*
X84899Y168427D01*
X84855D01*
X84800Y168438D01*
X84722Y168449D01*
X84633D01*
X84511Y168461D01*
X83201D01*
Y165053D01*
X82180D01*
Y172734D01*
X85743D01*
X85832Y172723D01*
D02*
G37*
G36*
X106734Y167778D02*
X107777D01*
Y166912D01*
X106734D01*
Y165070D01*
X105790D01*
Y166912D01*
X102449D01*
Y167778D01*
X105968Y172750D01*
X106734D01*
Y167778D01*
D02*
G37*
G36*
X99075Y172739D02*
X99175D01*
X99408Y172728D01*
X99652Y172695D01*
X99918Y172662D01*
X100163Y172606D01*
X100285Y172573D01*
X100385Y172540D01*
X100396D01*
X100407Y172528D01*
X100473Y172495D01*
X100573Y172451D01*
X100695Y172373D01*
X100829Y172273D01*
X100973Y172140D01*
X101106Y171985D01*
X101239Y171807D01*
Y171796D01*
X101250Y171785D01*
X101295Y171718D01*
X101339Y171607D01*
X101406Y171463D01*
X101461Y171297D01*
X101517Y171097D01*
X101550Y170886D01*
X101561Y170653D01*
Y170642D01*
Y170619D01*
Y170575D01*
X101550Y170520D01*
Y170442D01*
X101539Y170364D01*
X101495Y170175D01*
X101428Y169953D01*
X101339Y169720D01*
X101206Y169487D01*
X101117Y169376D01*
X101028Y169265D01*
X101017Y169254D01*
X101006Y169243D01*
X100973Y169210D01*
X100928Y169176D01*
X100873Y169132D01*
X100806Y169088D01*
X100718Y169032D01*
X100629Y168965D01*
X100518Y168910D01*
X100396Y168855D01*
X100262Y168788D01*
X100118Y168732D01*
X99952Y168688D01*
X99785Y168633D01*
X99597Y168599D01*
X99397Y168566D01*
X99419Y168555D01*
X99463Y168533D01*
X99530Y168488D01*
X99619Y168444D01*
X99818Y168322D01*
X99918Y168244D01*
X100007Y168177D01*
X100029Y168155D01*
X100085Y168100D01*
X100174Y168011D01*
X100285Y167900D01*
X100407Y167745D01*
X100551Y167578D01*
X100695Y167378D01*
X100851Y167156D01*
X102172Y165070D01*
X100906D01*
X99896Y166668D01*
Y166679D01*
X99874Y166701D01*
X99852Y166734D01*
X99818Y166779D01*
X99741Y166901D01*
X99641Y167056D01*
X99519Y167223D01*
X99397Y167400D01*
X99275Y167567D01*
X99164Y167722D01*
X99152Y167733D01*
X99119Y167778D01*
X99064Y167844D01*
X98986Y167922D01*
X98820Y168089D01*
X98731Y168166D01*
X98642Y168233D01*
X98631Y168244D01*
X98609Y168255D01*
X98564Y168277D01*
X98498Y168311D01*
X98431Y168344D01*
X98353Y168377D01*
X98176Y168433D01*
X98165D01*
X98142Y168444D01*
X98098D01*
X98042Y168455D01*
X97965Y168466D01*
X97876D01*
X97754Y168477D01*
X96444D01*
Y165070D01*
X95423D01*
Y172750D01*
X98986D01*
X99075Y172739D01*
D02*
G37*
G36*
X214140Y104093D02*
X213196D01*
Y110098D01*
X213185Y110087D01*
X213130Y110042D01*
X213063Y109976D01*
X212952Y109898D01*
X212830Y109798D01*
X212675Y109687D01*
X212497Y109565D01*
X212297Y109443D01*
X212286D01*
X212275Y109432D01*
X212208Y109387D01*
X212097Y109332D01*
X211964Y109265D01*
X211809Y109188D01*
X211642Y109110D01*
X211476Y109032D01*
X211309Y108966D01*
Y109876D01*
X211320D01*
X211343Y109898D01*
X211387Y109909D01*
X211443Y109942D01*
X211509Y109976D01*
X211587Y110020D01*
X211775Y110131D01*
X211998Y110253D01*
X212220Y110409D01*
X212453Y110586D01*
X212686Y110775D01*
X212697Y110786D01*
X212708Y110797D01*
X212741Y110830D01*
X212786Y110864D01*
X212885Y110975D01*
X213019Y111108D01*
X213152Y111263D01*
X213296Y111441D01*
X213418Y111618D01*
X213529Y111807D01*
X214140D01*
Y104093D01*
D02*
G37*
G36*
X205981Y105003D02*
X209767D01*
Y104093D01*
X204960D01*
Y111774D01*
X205981D01*
Y105003D01*
D02*
G37*
G36*
X130780Y153823D02*
X130880Y153812D01*
X131002Y153800D01*
X131124Y153789D01*
X131269Y153756D01*
X131568Y153689D01*
X131902Y153589D01*
X132068Y153523D01*
X132223Y153445D01*
X132379Y153345D01*
X132534Y153245D01*
X132545Y153234D01*
X132568Y153223D01*
X132612Y153190D01*
X132667Y153134D01*
X132723Y153079D01*
X132801Y153001D01*
X132878Y152912D01*
X132967Y152824D01*
X133056Y152713D01*
X133145Y152579D01*
X133245Y152446D01*
X133333Y152302D01*
X133411Y152135D01*
X133500Y151969D01*
X133567Y151791D01*
X133633Y151592D01*
X132634Y151358D01*
Y151370D01*
X132623Y151392D01*
X132601Y151436D01*
X132579Y151492D01*
X132556Y151558D01*
X132523Y151647D01*
X132434Y151825D01*
X132323Y152024D01*
X132190Y152224D01*
X132024Y152413D01*
X131846Y152579D01*
X131824Y152602D01*
X131757Y152646D01*
X131646Y152702D01*
X131502Y152779D01*
X131313Y152846D01*
X131102Y152912D01*
X130847Y152957D01*
X130569Y152968D01*
X130481D01*
X130425Y152957D01*
X130347D01*
X130259Y152946D01*
X130048Y152912D01*
X129815Y152868D01*
X129571Y152790D01*
X129315Y152679D01*
X129082Y152535D01*
X129071D01*
X129060Y152513D01*
X128982Y152457D01*
X128882Y152369D01*
X128760Y152235D01*
X128616Y152069D01*
X128483Y151880D01*
X128361Y151647D01*
X128250Y151392D01*
Y151381D01*
X128239Y151358D01*
X128228Y151325D01*
X128216Y151270D01*
X128194Y151203D01*
X128172Y151125D01*
X128139Y150937D01*
X128094Y150715D01*
X128050Y150471D01*
X128028Y150204D01*
X128017Y149916D01*
Y149904D01*
Y149871D01*
Y149816D01*
Y149749D01*
X128028Y149671D01*
Y149571D01*
X128039Y149460D01*
X128050Y149338D01*
X128083Y149072D01*
X128139Y148783D01*
X128205Y148495D01*
X128294Y148206D01*
Y148195D01*
X128305Y148173D01*
X128327Y148139D01*
X128350Y148084D01*
X128416Y147951D01*
X128516Y147795D01*
X128638Y147618D01*
X128793Y147429D01*
X128971Y147263D01*
X129182Y147107D01*
X129193D01*
X129215Y147096D01*
X129249Y147074D01*
X129293Y147052D01*
X129348Y147030D01*
X129415Y146996D01*
X129571Y146930D01*
X129770Y146863D01*
X129992Y146808D01*
X130237Y146763D01*
X130492Y146752D01*
X130569D01*
X130636Y146763D01*
X130714D01*
X130792Y146774D01*
X130991Y146819D01*
X131224Y146874D01*
X131458Y146963D01*
X131702Y147085D01*
X131824Y147152D01*
X131935Y147240D01*
X131946Y147252D01*
X131957Y147263D01*
X131990Y147296D01*
X132035Y147329D01*
X132079Y147385D01*
X132135Y147451D01*
X132201Y147518D01*
X132257Y147607D01*
X132323Y147707D01*
X132401Y147818D01*
X132468Y147929D01*
X132534Y148062D01*
X132590Y148206D01*
X132645Y148362D01*
X132701Y148528D01*
X132745Y148706D01*
X133766Y148450D01*
Y148439D01*
X133755Y148395D01*
X133733Y148328D01*
X133700Y148239D01*
X133666Y148139D01*
X133622Y148017D01*
X133567Y147884D01*
X133500Y147740D01*
X133344Y147429D01*
X133145Y147118D01*
X133023Y146963D01*
X132900Y146808D01*
X132767Y146674D01*
X132612Y146541D01*
X132601Y146530D01*
X132579Y146508D01*
X132523Y146486D01*
X132468Y146441D01*
X132379Y146386D01*
X132290Y146330D01*
X132168Y146275D01*
X132046Y146219D01*
X131902Y146153D01*
X131746Y146097D01*
X131580Y146042D01*
X131402Y145986D01*
X131213Y145942D01*
X131013Y145920D01*
X130803Y145897D01*
X130581Y145886D01*
X130458D01*
X130370Y145897D01*
X130270D01*
X130148Y145908D01*
X130014Y145931D01*
X129859Y145953D01*
X129537Y146008D01*
X129204Y146097D01*
X128871Y146219D01*
X128716Y146297D01*
X128560Y146386D01*
X128549Y146397D01*
X128527Y146408D01*
X128483Y146441D01*
X128438Y146486D01*
X128372Y146530D01*
X128294Y146597D01*
X128205Y146674D01*
X128117Y146763D01*
X128028Y146863D01*
X127928Y146963D01*
X127728Y147218D01*
X127539Y147518D01*
X127373Y147851D01*
Y147862D01*
X127351Y147895D01*
X127339Y147951D01*
X127306Y148017D01*
X127284Y148106D01*
X127251Y148217D01*
X127206Y148339D01*
X127173Y148472D01*
X127140Y148617D01*
X127095Y148783D01*
X127040Y149127D01*
X126995Y149516D01*
X126973Y149916D01*
Y149927D01*
Y149971D01*
Y150038D01*
X126984Y150115D01*
Y150226D01*
X126995Y150337D01*
X127007Y150482D01*
X127029Y150626D01*
X127084Y150948D01*
X127162Y151303D01*
X127273Y151658D01*
X127428Y152002D01*
X127439Y152013D01*
X127451Y152047D01*
X127473Y152091D01*
X127517Y152147D01*
X127562Y152224D01*
X127617Y152313D01*
X127761Y152513D01*
X127950Y152735D01*
X128172Y152957D01*
X128427Y153179D01*
X128727Y153368D01*
X128738Y153379D01*
X128771Y153390D01*
X128816Y153412D01*
X128871Y153445D01*
X128960Y153478D01*
X129049Y153512D01*
X129160Y153556D01*
X129282Y153601D01*
X129415Y153645D01*
X129559Y153689D01*
X129870Y153756D01*
X130225Y153812D01*
X130592Y153834D01*
X130703D01*
X130780Y153823D01*
D02*
G37*
G36*
X139361Y152702D02*
X136286D01*
X135875Y150626D01*
X135886Y150637D01*
X135908Y150648D01*
X135942Y150670D01*
X135997Y150704D01*
X136064Y150737D01*
X136142Y150781D01*
X136319Y150870D01*
X136541Y150959D01*
X136785Y151037D01*
X137052Y151092D01*
X137185Y151114D01*
X137429D01*
X137496Y151103D01*
X137585Y151092D01*
X137684Y151081D01*
X137795Y151059D01*
X137918Y151025D01*
X138184Y150948D01*
X138328Y150892D01*
X138473Y150815D01*
X138617Y150737D01*
X138761Y150648D01*
X138894Y150537D01*
X139028Y150415D01*
X139039Y150404D01*
X139061Y150382D01*
X139094Y150348D01*
X139139Y150293D01*
X139194Y150215D01*
X139250Y150138D01*
X139316Y150038D01*
X139383Y149927D01*
X139438Y149804D01*
X139505Y149671D01*
X139560Y149516D01*
X139616Y149361D01*
X139660Y149194D01*
X139693Y149005D01*
X139716Y148817D01*
X139727Y148617D01*
Y148606D01*
Y148572D01*
Y148517D01*
X139716Y148439D01*
X139705Y148350D01*
X139693Y148251D01*
X139671Y148128D01*
X139649Y148006D01*
X139583Y147718D01*
X139472Y147418D01*
X139405Y147263D01*
X139316Y147118D01*
X139227Y146963D01*
X139116Y146819D01*
X139105Y146808D01*
X139083Y146774D01*
X139039Y146730D01*
X138983Y146674D01*
X138905Y146608D01*
X138817Y146519D01*
X138706Y146441D01*
X138584Y146353D01*
X138450Y146264D01*
X138295Y146186D01*
X138128Y146108D01*
X137951Y146031D01*
X137762Y145975D01*
X137551Y145931D01*
X137329Y145897D01*
X137096Y145886D01*
X136996D01*
X136919Y145897D01*
X136830Y145908D01*
X136730Y145920D01*
X136608Y145931D01*
X136486Y145964D01*
X136208Y146031D01*
X135931Y146131D01*
X135786Y146197D01*
X135642Y146275D01*
X135509Y146364D01*
X135376Y146463D01*
X135365Y146475D01*
X135342Y146486D01*
X135320Y146530D01*
X135276Y146574D01*
X135220Y146630D01*
X135165Y146697D01*
X135098Y146785D01*
X135043Y146885D01*
X134976Y146985D01*
X134909Y147107D01*
X134787Y147374D01*
X134688Y147684D01*
X134654Y147851D01*
X134632Y148028D01*
X135620Y148106D01*
Y148095D01*
Y148073D01*
X135631Y148040D01*
X135642Y147984D01*
X135675Y147862D01*
X135720Y147696D01*
X135786Y147529D01*
X135875Y147340D01*
X135986Y147174D01*
X136119Y147018D01*
X136142Y147007D01*
X136186Y146963D01*
X136275Y146908D01*
X136397Y146841D01*
X136530Y146774D01*
X136697Y146719D01*
X136885Y146674D01*
X137096Y146663D01*
X137163D01*
X137207Y146674D01*
X137340Y146685D01*
X137496Y146730D01*
X137684Y146785D01*
X137873Y146874D01*
X138073Y147007D01*
X138162Y147085D01*
X138251Y147174D01*
X138262Y147185D01*
X138273Y147196D01*
X138295Y147229D01*
X138328Y147263D01*
X138406Y147385D01*
X138495Y147540D01*
X138573Y147729D01*
X138650Y147962D01*
X138706Y148239D01*
X138728Y148384D01*
Y148539D01*
Y148550D01*
Y148572D01*
Y148617D01*
X138717Y148672D01*
Y148739D01*
X138706Y148817D01*
X138672Y148994D01*
X138617Y149205D01*
X138539Y149416D01*
X138428Y149616D01*
X138273Y149804D01*
Y149816D01*
X138251Y149827D01*
X138195Y149882D01*
X138095Y149960D01*
X137962Y150049D01*
X137784Y150126D01*
X137585Y150204D01*
X137352Y150260D01*
X137218Y150282D01*
X137007D01*
X136919Y150271D01*
X136808Y150260D01*
X136674Y150226D01*
X136541Y150193D01*
X136397Y150138D01*
X136253Y150071D01*
X136242Y150060D01*
X136197Y150038D01*
X136131Y149982D01*
X136042Y149927D01*
X135953Y149849D01*
X135864Y149749D01*
X135764Y149649D01*
X135687Y149527D01*
X134798Y149649D01*
X135542Y153601D01*
X139361D01*
Y152702D01*
D02*
G37*
G36*
X90284Y82586D02*
X90373Y82575D01*
X90484Y82564D01*
X90606Y82542D01*
X90728Y82520D01*
X91016Y82442D01*
X91305Y82331D01*
X91449Y82264D01*
X91594Y82186D01*
X91727Y82087D01*
X91849Y81976D01*
X91860Y81965D01*
X91882Y81953D01*
X91904Y81909D01*
X91949Y81865D01*
X92004Y81809D01*
X92060Y81731D01*
X92115Y81654D01*
X92182Y81554D01*
X92293Y81343D01*
X92404Y81076D01*
X92448Y80943D01*
X92471Y80788D01*
X92493Y80632D01*
X92504Y80466D01*
Y80444D01*
Y80388D01*
X92493Y80300D01*
X92482Y80177D01*
X92459Y80044D01*
X92415Y79889D01*
X92371Y79722D01*
X92304Y79556D01*
X92293Y79534D01*
X92271Y79478D01*
X92226Y79389D01*
X92160Y79267D01*
X92071Y79134D01*
X91960Y78968D01*
X91827Y78801D01*
X91671Y78612D01*
X91649Y78590D01*
X91594Y78524D01*
X91538Y78468D01*
X91483Y78413D01*
X91416Y78346D01*
X91327Y78257D01*
X91238Y78168D01*
X91127Y78068D01*
X91016Y77958D01*
X90883Y77835D01*
X90739Y77713D01*
X90583Y77569D01*
X90406Y77425D01*
X90228Y77269D01*
X90217Y77258D01*
X90195Y77236D01*
X90151Y77203D01*
X90095Y77158D01*
X90028Y77092D01*
X89951Y77025D01*
X89773Y76881D01*
X89585Y76714D01*
X89407Y76548D01*
X89251Y76403D01*
X89185Y76348D01*
X89129Y76293D01*
X89118Y76281D01*
X89085Y76248D01*
X89041Y76204D01*
X88985Y76137D01*
X88930Y76059D01*
X88863Y75982D01*
X88730Y75793D01*
X92515D01*
Y74883D01*
X87420D01*
Y74894D01*
Y74938D01*
Y75005D01*
X87431Y75094D01*
X87442Y75194D01*
X87464Y75305D01*
X87487Y75416D01*
X87531Y75538D01*
Y75549D01*
X87542Y75560D01*
X87564Y75627D01*
X87609Y75726D01*
X87675Y75860D01*
X87764Y76015D01*
X87875Y76193D01*
X87997Y76370D01*
X88153Y76559D01*
Y76570D01*
X88175Y76581D01*
X88230Y76648D01*
X88330Y76748D01*
X88475Y76892D01*
X88641Y77058D01*
X88852Y77258D01*
X89107Y77480D01*
X89385Y77713D01*
X89396Y77724D01*
X89440Y77758D01*
X89507Y77813D01*
X89585Y77880D01*
X89684Y77969D01*
X89806Y78068D01*
X89929Y78179D01*
X90073Y78302D01*
X90350Y78568D01*
X90628Y78834D01*
X90761Y78968D01*
X90883Y79101D01*
X90994Y79223D01*
X91083Y79345D01*
Y79356D01*
X91105Y79367D01*
X91127Y79401D01*
X91150Y79445D01*
X91227Y79567D01*
X91316Y79711D01*
X91394Y79889D01*
X91472Y80077D01*
X91516Y80288D01*
X91538Y80488D01*
Y80499D01*
Y80510D01*
X91527Y80577D01*
X91516Y80688D01*
X91483Y80810D01*
X91438Y80965D01*
X91361Y81121D01*
X91261Y81276D01*
X91127Y81432D01*
X91105Y81454D01*
X91050Y81498D01*
X90972Y81554D01*
X90850Y81631D01*
X90695Y81698D01*
X90517Y81765D01*
X90306Y81809D01*
X90073Y81820D01*
X90006D01*
X89962Y81809D01*
X89829Y81798D01*
X89673Y81765D01*
X89507Y81720D01*
X89318Y81643D01*
X89141Y81543D01*
X88974Y81410D01*
X88952Y81387D01*
X88907Y81332D01*
X88841Y81243D01*
X88774Y81110D01*
X88696Y80954D01*
X88630Y80755D01*
X88586Y80533D01*
X88563Y80277D01*
X87598Y80377D01*
Y80388D01*
X87609Y80422D01*
Y80477D01*
X87620Y80555D01*
X87642Y80644D01*
X87664Y80744D01*
X87697Y80866D01*
X87731Y80988D01*
X87820Y81254D01*
X87953Y81521D01*
X88031Y81654D01*
X88130Y81787D01*
X88230Y81909D01*
X88341Y82020D01*
X88352Y82031D01*
X88375Y82042D01*
X88408Y82076D01*
X88463Y82109D01*
X88530Y82153D01*
X88608Y82198D01*
X88696Y82253D01*
X88807Y82309D01*
X88930Y82364D01*
X89063Y82420D01*
X89207Y82464D01*
X89362Y82508D01*
X89529Y82542D01*
X89707Y82575D01*
X89895Y82586D01*
X90095Y82597D01*
X90206D01*
X90284Y82586D01*
D02*
G37*
G36*
X83857Y82553D02*
X83957D01*
X84190Y82542D01*
X84434Y82508D01*
X84701Y82475D01*
X84945Y82420D01*
X85067Y82386D01*
X85167Y82353D01*
X85178D01*
X85189Y82342D01*
X85256Y82309D01*
X85356Y82264D01*
X85478Y82186D01*
X85611Y82087D01*
X85755Y81953D01*
X85888Y81798D01*
X86021Y81620D01*
Y81609D01*
X86033Y81598D01*
X86077Y81532D01*
X86121Y81421D01*
X86188Y81276D01*
X86243Y81110D01*
X86299Y80910D01*
X86332Y80699D01*
X86343Y80466D01*
Y80455D01*
Y80433D01*
Y80388D01*
X86332Y80333D01*
Y80255D01*
X86321Y80177D01*
X86277Y79989D01*
X86210Y79767D01*
X86121Y79534D01*
X85988Y79301D01*
X85899Y79190D01*
X85811Y79079D01*
X85800Y79068D01*
X85788Y79056D01*
X85755Y79023D01*
X85711Y78990D01*
X85655Y78945D01*
X85589Y78901D01*
X85500Y78846D01*
X85411Y78779D01*
X85300Y78723D01*
X85178Y78668D01*
X85045Y78601D01*
X84900Y78546D01*
X84734Y78501D01*
X84567Y78446D01*
X84379Y78413D01*
X84179Y78379D01*
X84201Y78368D01*
X84246Y78346D01*
X84312Y78302D01*
X84401Y78257D01*
X84601Y78135D01*
X84701Y78057D01*
X84789Y77991D01*
X84812Y77969D01*
X84867Y77913D01*
X84956Y77824D01*
X85067Y77713D01*
X85189Y77558D01*
X85333Y77391D01*
X85478Y77192D01*
X85633Y76970D01*
X86954Y74883D01*
X85688D01*
X84678Y76481D01*
Y76492D01*
X84656Y76515D01*
X84634Y76548D01*
X84601Y76592D01*
X84523Y76714D01*
X84423Y76870D01*
X84301Y77036D01*
X84179Y77214D01*
X84057Y77380D01*
X83946Y77536D01*
X83935Y77547D01*
X83901Y77591D01*
X83846Y77658D01*
X83768Y77736D01*
X83602Y77902D01*
X83513Y77980D01*
X83424Y78046D01*
X83413Y78057D01*
X83391Y78068D01*
X83346Y78091D01*
X83280Y78124D01*
X83213Y78157D01*
X83135Y78191D01*
X82958Y78246D01*
X82947D01*
X82925Y78257D01*
X82880D01*
X82825Y78268D01*
X82747Y78279D01*
X82658D01*
X82536Y78291D01*
X81226D01*
Y74883D01*
X80205D01*
Y82564D01*
X83768D01*
X83857Y82553D01*
D02*
G37*
G36*
X60946Y78843D02*
X61090Y78821D01*
X61268Y78787D01*
X61468Y78732D01*
X61668Y78665D01*
X61867Y78576D01*
X61878D01*
X61890Y78565D01*
X61956Y78532D01*
X62056Y78465D01*
X62167Y78388D01*
X62300Y78277D01*
X62434Y78155D01*
X62567Y78010D01*
X62678Y77844D01*
X62689Y77821D01*
X62722Y77766D01*
X62766Y77666D01*
X62822Y77544D01*
X62877Y77400D01*
X62922Y77233D01*
X62955Y77045D01*
X62966Y76856D01*
Y76834D01*
Y76767D01*
X62955Y76678D01*
X62933Y76556D01*
X62900Y76412D01*
X62844Y76256D01*
X62778Y76101D01*
X62689Y75946D01*
X62678Y75923D01*
X62644Y75879D01*
X62578Y75801D01*
X62489Y75712D01*
X62378Y75613D01*
X62245Y75502D01*
X62089Y75402D01*
X61901Y75302D01*
X61912D01*
X61934Y75291D01*
X61967Y75280D01*
X62012Y75269D01*
X62134Y75224D01*
X62289Y75158D01*
X62467Y75069D01*
X62644Y74958D01*
X62811Y74813D01*
X62966Y74647D01*
X62977Y74625D01*
X63022Y74558D01*
X63088Y74447D01*
X63155Y74303D01*
X63222Y74125D01*
X63288Y73914D01*
X63333Y73670D01*
X63344Y73404D01*
Y73393D01*
Y73359D01*
Y73304D01*
X63333Y73237D01*
X63321Y73148D01*
X63299Y73049D01*
X63277Y72938D01*
X63255Y72815D01*
X63166Y72549D01*
X63099Y72405D01*
X63033Y72272D01*
X62944Y72127D01*
X62844Y71983D01*
X62733Y71839D01*
X62600Y71705D01*
X62589Y71694D01*
X62567Y71672D01*
X62522Y71639D01*
X62467Y71595D01*
X62400Y71539D01*
X62311Y71483D01*
X62211Y71417D01*
X62089Y71361D01*
X61967Y71295D01*
X61823Y71228D01*
X61679Y71173D01*
X61512Y71117D01*
X61335Y71073D01*
X61146Y71040D01*
X60957Y71017D01*
X60746Y71006D01*
X60646D01*
X60580Y71017D01*
X60491Y71028D01*
X60391Y71040D01*
X60280Y71062D01*
X60158Y71084D01*
X59892Y71150D01*
X59614Y71262D01*
X59470Y71328D01*
X59337Y71406D01*
X59204Y71506D01*
X59070Y71606D01*
X59059Y71617D01*
X59037Y71639D01*
X59004Y71672D01*
X58970Y71717D01*
X58915Y71772D01*
X58859Y71850D01*
X58793Y71927D01*
X58726Y72027D01*
X58660Y72138D01*
X58593Y72249D01*
X58471Y72516D01*
X58371Y72827D01*
X58338Y72993D01*
X58316Y73171D01*
X59259Y73293D01*
Y73282D01*
X59270Y73260D01*
X59281Y73215D01*
X59292Y73160D01*
X59303Y73093D01*
X59326Y73015D01*
X59381Y72849D01*
X59459Y72649D01*
X59559Y72460D01*
X59670Y72283D01*
X59803Y72127D01*
X59825Y72116D01*
X59869Y72072D01*
X59958Y72016D01*
X60069Y71961D01*
X60202Y71894D01*
X60369Y71839D01*
X60558Y71794D01*
X60757Y71783D01*
X60824D01*
X60868Y71794D01*
X60991Y71805D01*
X61146Y71839D01*
X61323Y71894D01*
X61512Y71972D01*
X61701Y72083D01*
X61878Y72238D01*
X61901Y72260D01*
X61956Y72327D01*
X62023Y72427D01*
X62112Y72560D01*
X62200Y72727D01*
X62267Y72915D01*
X62323Y73137D01*
X62345Y73382D01*
Y73393D01*
Y73415D01*
Y73448D01*
X62334Y73493D01*
X62323Y73615D01*
X62289Y73759D01*
X62245Y73937D01*
X62167Y74114D01*
X62056Y74292D01*
X61912Y74458D01*
X61890Y74481D01*
X61834Y74525D01*
X61745Y74591D01*
X61623Y74669D01*
X61468Y74747D01*
X61279Y74813D01*
X61068Y74858D01*
X60835Y74880D01*
X60735D01*
X60658Y74869D01*
X60558Y74858D01*
X60447Y74836D01*
X60313Y74813D01*
X60169Y74780D01*
X60280Y75613D01*
X60336D01*
X60380Y75602D01*
X60524D01*
X60646Y75624D01*
X60791Y75646D01*
X60957Y75679D01*
X61146Y75735D01*
X61323Y75812D01*
X61512Y75912D01*
X61523D01*
X61534Y75923D01*
X61590Y75968D01*
X61668Y76045D01*
X61756Y76145D01*
X61845Y76290D01*
X61923Y76456D01*
X61978Y76645D01*
X62001Y76756D01*
Y76878D01*
Y76889D01*
Y76900D01*
Y76967D01*
X61978Y77056D01*
X61956Y77178D01*
X61912Y77311D01*
X61856Y77455D01*
X61768Y77600D01*
X61645Y77733D01*
X61634Y77744D01*
X61579Y77788D01*
X61501Y77844D01*
X61401Y77910D01*
X61268Y77966D01*
X61113Y78021D01*
X60935Y78066D01*
X60735Y78077D01*
X60646D01*
X60546Y78055D01*
X60413Y78032D01*
X60269Y77988D01*
X60125Y77933D01*
X59969Y77844D01*
X59825Y77733D01*
X59814Y77722D01*
X59770Y77666D01*
X59703Y77588D01*
X59625Y77477D01*
X59548Y77333D01*
X59470Y77155D01*
X59403Y76945D01*
X59359Y76700D01*
X58415Y76867D01*
Y76878D01*
X58426Y76911D01*
X58438Y76956D01*
X58449Y77022D01*
X58471Y77100D01*
X58504Y77189D01*
X58571Y77400D01*
X58682Y77644D01*
X58815Y77888D01*
X58981Y78121D01*
X59192Y78332D01*
X59204Y78343D01*
X59226Y78354D01*
X59259Y78376D01*
X59303Y78410D01*
X59359Y78454D01*
X59437Y78499D01*
X59514Y78543D01*
X59614Y78598D01*
X59836Y78687D01*
X60091Y78776D01*
X60391Y78832D01*
X60546Y78854D01*
X60824D01*
X60946Y78843D01*
D02*
G37*
G36*
X54608Y78809D02*
X54708D01*
X54941Y78798D01*
X55185Y78765D01*
X55452Y78732D01*
X55696Y78676D01*
X55818Y78643D01*
X55918Y78610D01*
X55929D01*
X55940Y78598D01*
X56007Y78565D01*
X56107Y78521D01*
X56229Y78443D01*
X56362Y78343D01*
X56506Y78210D01*
X56639Y78055D01*
X56773Y77877D01*
Y77866D01*
X56784Y77855D01*
X56828Y77788D01*
X56873Y77677D01*
X56939Y77533D01*
X56995Y77366D01*
X57050Y77167D01*
X57083Y76956D01*
X57094Y76723D01*
Y76712D01*
Y76689D01*
Y76645D01*
X57083Y76589D01*
Y76512D01*
X57072Y76434D01*
X57028Y76245D01*
X56961Y76023D01*
X56873Y75790D01*
X56739Y75557D01*
X56651Y75446D01*
X56562Y75335D01*
X56551Y75324D01*
X56540Y75313D01*
X56506Y75280D01*
X56462Y75246D01*
X56406Y75202D01*
X56340Y75158D01*
X56251Y75102D01*
X56162Y75036D01*
X56051Y74980D01*
X55929Y74925D01*
X55796Y74858D01*
X55651Y74802D01*
X55485Y74758D01*
X55318Y74703D01*
X55130Y74669D01*
X54930Y74636D01*
X54952Y74625D01*
X54997Y74603D01*
X55063Y74558D01*
X55152Y74514D01*
X55352Y74392D01*
X55452Y74314D01*
X55540Y74247D01*
X55563Y74225D01*
X55618Y74170D01*
X55707Y74081D01*
X55818Y73970D01*
X55940Y73815D01*
X56084Y73648D01*
X56229Y73448D01*
X56384Y73226D01*
X57705Y71139D01*
X56440D01*
X55430Y72738D01*
Y72749D01*
X55407Y72771D01*
X55385Y72804D01*
X55352Y72849D01*
X55274Y72971D01*
X55174Y73126D01*
X55052Y73293D01*
X54930Y73470D01*
X54808Y73637D01*
X54697Y73792D01*
X54686Y73803D01*
X54653Y73848D01*
X54597Y73914D01*
X54519Y73992D01*
X54353Y74159D01*
X54264Y74236D01*
X54175Y74303D01*
X54164Y74314D01*
X54142Y74325D01*
X54098Y74347D01*
X54031Y74381D01*
X53964Y74414D01*
X53887Y74447D01*
X53709Y74503D01*
X53698D01*
X53676Y74514D01*
X53631D01*
X53576Y74525D01*
X53498Y74536D01*
X53409D01*
X53287Y74547D01*
X51978D01*
Y71139D01*
X50956D01*
Y78821D01*
X54519D01*
X54608Y78809D01*
D02*
G37*
G36*
X64242Y68733D02*
X64342Y68721D01*
X64464Y68710D01*
X64586Y68699D01*
X64730Y68666D01*
X65030Y68599D01*
X65363Y68499D01*
X65529Y68433D01*
X65685Y68355D01*
X65840Y68255D01*
X65996Y68155D01*
X66007Y68144D01*
X66029Y68133D01*
X66073Y68100D01*
X66129Y68044D01*
X66184Y67989D01*
X66262Y67911D01*
X66340Y67822D01*
X66428Y67734D01*
X66517Y67623D01*
X66606Y67490D01*
X66706Y67356D01*
X66795Y67212D01*
X66873Y67045D01*
X66961Y66879D01*
X67028Y66701D01*
X67094Y66502D01*
X66095Y66269D01*
Y66280D01*
X66084Y66302D01*
X66062Y66346D01*
X66040Y66402D01*
X66018Y66468D01*
X65985Y66557D01*
X65896Y66735D01*
X65785Y66934D01*
X65651Y67134D01*
X65485Y67323D01*
X65307Y67490D01*
X65285Y67512D01*
X65219Y67556D01*
X65108Y67611D01*
X64963Y67689D01*
X64775Y67756D01*
X64564Y67822D01*
X64308Y67867D01*
X64031Y67878D01*
X63942D01*
X63887Y67867D01*
X63809D01*
X63720Y67856D01*
X63509Y67822D01*
X63276Y67778D01*
X63032Y67700D01*
X62777Y67589D01*
X62544Y67445D01*
X62533D01*
X62521Y67423D01*
X62444Y67367D01*
X62344Y67279D01*
X62222Y67145D01*
X62077Y66979D01*
X61944Y66790D01*
X61822Y66557D01*
X61711Y66302D01*
Y66291D01*
X61700Y66269D01*
X61689Y66235D01*
X61678Y66180D01*
X61656Y66113D01*
X61633Y66035D01*
X61600Y65847D01*
X61556Y65625D01*
X61511Y65381D01*
X61489Y65114D01*
X61478Y64826D01*
Y64814D01*
Y64781D01*
Y64726D01*
Y64659D01*
X61489Y64581D01*
Y64481D01*
X61500Y64370D01*
X61511Y64248D01*
X61545Y63982D01*
X61600Y63693D01*
X61667Y63405D01*
X61755Y63116D01*
Y63105D01*
X61767Y63083D01*
X61789Y63050D01*
X61811Y62994D01*
X61878Y62861D01*
X61978Y62705D01*
X62100Y62528D01*
X62255Y62339D01*
X62433Y62173D01*
X62643Y62017D01*
X62655D01*
X62677Y62006D01*
X62710Y61984D01*
X62755Y61962D01*
X62810Y61940D01*
X62877Y61906D01*
X63032Y61840D01*
X63232Y61773D01*
X63454Y61718D01*
X63698Y61673D01*
X63953Y61662D01*
X64031D01*
X64097Y61673D01*
X64175D01*
X64253Y61684D01*
X64453Y61729D01*
X64686Y61784D01*
X64919Y61873D01*
X65163Y61995D01*
X65285Y62062D01*
X65396Y62150D01*
X65407Y62161D01*
X65418Y62173D01*
X65452Y62206D01*
X65496Y62239D01*
X65540Y62295D01*
X65596Y62361D01*
X65663Y62428D01*
X65718Y62517D01*
X65785Y62617D01*
X65862Y62728D01*
X65929Y62839D01*
X65996Y62972D01*
X66051Y63116D01*
X66107Y63271D01*
X66162Y63438D01*
X66206Y63616D01*
X67228Y63360D01*
Y63349D01*
X67217Y63305D01*
X67194Y63238D01*
X67161Y63149D01*
X67128Y63050D01*
X67083Y62927D01*
X67028Y62794D01*
X66961Y62650D01*
X66806Y62339D01*
X66606Y62028D01*
X66484Y61873D01*
X66362Y61718D01*
X66229Y61584D01*
X66073Y61451D01*
X66062Y61440D01*
X66040Y61418D01*
X65985Y61396D01*
X65929Y61351D01*
X65840Y61296D01*
X65751Y61240D01*
X65629Y61185D01*
X65507Y61129D01*
X65363Y61063D01*
X65208Y61007D01*
X65041Y60952D01*
X64863Y60896D01*
X64675Y60852D01*
X64475Y60830D01*
X64264Y60807D01*
X64042Y60796D01*
X63920D01*
X63831Y60807D01*
X63731D01*
X63609Y60819D01*
X63476Y60841D01*
X63320Y60863D01*
X62999Y60918D01*
X62666Y61007D01*
X62333Y61129D01*
X62177Y61207D01*
X62022Y61296D01*
X62011Y61307D01*
X61989Y61318D01*
X61944Y61351D01*
X61900Y61396D01*
X61833Y61440D01*
X61755Y61507D01*
X61667Y61584D01*
X61578Y61673D01*
X61489Y61773D01*
X61389Y61873D01*
X61189Y62128D01*
X61001Y62428D01*
X60834Y62761D01*
Y62772D01*
X60812Y62805D01*
X60801Y62861D01*
X60768Y62927D01*
X60745Y63016D01*
X60712Y63127D01*
X60668Y63249D01*
X60634Y63383D01*
X60601Y63527D01*
X60557Y63693D01*
X60501Y64037D01*
X60457Y64426D01*
X60435Y64826D01*
Y64837D01*
Y64881D01*
Y64948D01*
X60446Y65025D01*
Y65136D01*
X60457Y65247D01*
X60468Y65392D01*
X60490Y65536D01*
X60546Y65858D01*
X60623Y66213D01*
X60734Y66568D01*
X60890Y66912D01*
X60901Y66923D01*
X60912Y66957D01*
X60934Y67001D01*
X60978Y67057D01*
X61023Y67134D01*
X61078Y67223D01*
X61223Y67423D01*
X61411Y67645D01*
X61633Y67867D01*
X61889Y68089D01*
X62188Y68278D01*
X62200Y68289D01*
X62233Y68300D01*
X62277Y68322D01*
X62333Y68355D01*
X62421Y68389D01*
X62510Y68422D01*
X62621Y68466D01*
X62743Y68511D01*
X62877Y68555D01*
X63021Y68599D01*
X63332Y68666D01*
X63687Y68721D01*
X64053Y68744D01*
X64164D01*
X64242Y68733D01*
D02*
G37*
G36*
X71645Y60929D02*
X70702D01*
Y66934D01*
X70691Y66923D01*
X70635Y66879D01*
X70569Y66812D01*
X70458Y66735D01*
X70336Y66635D01*
X70180Y66524D01*
X70003Y66402D01*
X69803Y66280D01*
X69792D01*
X69781Y66269D01*
X69714Y66224D01*
X69603Y66169D01*
X69470Y66102D01*
X69314Y66024D01*
X69148Y65947D01*
X68981Y65869D01*
X68815Y65802D01*
Y66712D01*
X68826D01*
X68848Y66735D01*
X68893Y66746D01*
X68948Y66779D01*
X69015Y66812D01*
X69092Y66857D01*
X69281Y66968D01*
X69503Y67090D01*
X69725Y67245D01*
X69958Y67423D01*
X70191Y67611D01*
X70202Y67623D01*
X70213Y67634D01*
X70247Y67667D01*
X70291Y67700D01*
X70391Y67811D01*
X70524Y67944D01*
X70658Y68100D01*
X70802Y68278D01*
X70924Y68455D01*
X71035Y68644D01*
X71645D01*
Y60929D01*
D02*
G37*
G36*
X44826Y71073D02*
X43882D01*
Y77078D01*
X43871Y77067D01*
X43815Y77022D01*
X43749Y76956D01*
X43638Y76878D01*
X43516Y76778D01*
X43360Y76667D01*
X43183Y76545D01*
X42983Y76423D01*
X42972D01*
X42961Y76412D01*
X42894Y76367D01*
X42783Y76312D01*
X42650Y76245D01*
X42495Y76168D01*
X42328Y76090D01*
X42162Y76012D01*
X41995Y75946D01*
Y76856D01*
X42006D01*
X42028Y76878D01*
X42073Y76889D01*
X42128Y76922D01*
X42195Y76956D01*
X42273Y77000D01*
X42461Y77111D01*
X42683Y77233D01*
X42905Y77389D01*
X43138Y77566D01*
X43372Y77755D01*
X43383Y77766D01*
X43394Y77777D01*
X43427Y77810D01*
X43471Y77844D01*
X43571Y77955D01*
X43705Y78088D01*
X43838Y78243D01*
X43982Y78421D01*
X44104Y78598D01*
X44215Y78787D01*
X44826D01*
Y71073D01*
D02*
G37*
G36*
X37067Y78743D02*
X37289Y78732D01*
X37511Y78710D01*
X37733Y78676D01*
X37922Y78643D01*
X37933D01*
X37955Y78632D01*
X37988D01*
X38033Y78610D01*
X38155Y78576D01*
X38310Y78521D01*
X38488Y78443D01*
X38676Y78343D01*
X38865Y78232D01*
X39043Y78088D01*
X39054Y78077D01*
X39065Y78066D01*
X39098Y78032D01*
X39142Y77999D01*
X39253Y77888D01*
X39387Y77733D01*
X39531Y77544D01*
X39686Y77322D01*
X39831Y77067D01*
X39953Y76778D01*
Y76767D01*
X39964Y76745D01*
X39986Y76700D01*
X39997Y76634D01*
X40030Y76556D01*
X40053Y76467D01*
X40075Y76367D01*
X40108Y76245D01*
X40141Y76123D01*
X40164Y75979D01*
X40219Y75668D01*
X40252Y75324D01*
X40264Y74947D01*
Y74936D01*
Y74913D01*
Y74858D01*
Y74802D01*
X40252Y74725D01*
Y74636D01*
X40241Y74425D01*
X40208Y74181D01*
X40175Y73925D01*
X40119Y73659D01*
X40053Y73393D01*
Y73382D01*
X40042Y73359D01*
X40030Y73326D01*
X40019Y73282D01*
X39975Y73160D01*
X39908Y73004D01*
X39842Y72827D01*
X39753Y72649D01*
X39642Y72460D01*
X39531Y72283D01*
X39520Y72260D01*
X39476Y72205D01*
X39409Y72127D01*
X39320Y72027D01*
X39220Y71916D01*
X39098Y71805D01*
X38976Y71683D01*
X38832Y71583D01*
X38809Y71572D01*
X38765Y71539D01*
X38687Y71495D01*
X38576Y71439D01*
X38443Y71372D01*
X38288Y71317D01*
X38110Y71250D01*
X37910Y71195D01*
X37888D01*
X37855Y71184D01*
X37822Y71173D01*
X37711Y71162D01*
X37555Y71139D01*
X37378Y71117D01*
X37167Y71095D01*
X36934Y71084D01*
X36678Y71073D01*
X33914D01*
Y78754D01*
X36867D01*
X37067Y78743D01*
D02*
G37*
G36*
X182873Y68733D02*
X182973Y68721D01*
X183095Y68710D01*
X183217Y68699D01*
X183361Y68666D01*
X183661Y68599D01*
X183994Y68499D01*
X184160Y68433D01*
X184316Y68355D01*
X184471Y68255D01*
X184626Y68155D01*
X184638Y68144D01*
X184660Y68133D01*
X184704Y68100D01*
X184760Y68044D01*
X184815Y67989D01*
X184893Y67911D01*
X184970Y67822D01*
X185059Y67734D01*
X185148Y67623D01*
X185237Y67490D01*
X185337Y67356D01*
X185426Y67212D01*
X185503Y67045D01*
X185592Y66879D01*
X185659Y66701D01*
X185725Y66502D01*
X184726Y66269D01*
Y66280D01*
X184715Y66302D01*
X184693Y66346D01*
X184671Y66402D01*
X184649Y66468D01*
X184615Y66557D01*
X184527Y66735D01*
X184415Y66934D01*
X184282Y67134D01*
X184116Y67323D01*
X183938Y67490D01*
X183916Y67512D01*
X183849Y67556D01*
X183738Y67611D01*
X183594Y67689D01*
X183405Y67756D01*
X183195Y67822D01*
X182939Y67867D01*
X182662Y67878D01*
X182573D01*
X182517Y67867D01*
X182440D01*
X182351Y67856D01*
X182140Y67822D01*
X181907Y67778D01*
X181663Y67700D01*
X181407Y67589D01*
X181174Y67445D01*
X181163D01*
X181152Y67423D01*
X181074Y67367D01*
X180975Y67279D01*
X180852Y67145D01*
X180708Y66979D01*
X180575Y66790D01*
X180453Y66557D01*
X180342Y66302D01*
Y66291D01*
X180331Y66269D01*
X180320Y66235D01*
X180309Y66180D01*
X180286Y66113D01*
X180264Y66035D01*
X180231Y65847D01*
X180187Y65625D01*
X180142Y65381D01*
X180120Y65114D01*
X180109Y64826D01*
Y64814D01*
Y64781D01*
Y64726D01*
Y64659D01*
X180120Y64581D01*
Y64481D01*
X180131Y64370D01*
X180142Y64248D01*
X180175Y63982D01*
X180231Y63693D01*
X180298Y63405D01*
X180386Y63116D01*
Y63105D01*
X180397Y63083D01*
X180420Y63050D01*
X180442Y62994D01*
X180508Y62861D01*
X180608Y62705D01*
X180730Y62528D01*
X180886Y62339D01*
X181063Y62173D01*
X181274Y62017D01*
X181285D01*
X181308Y62006D01*
X181341Y61984D01*
X181385Y61962D01*
X181441Y61940D01*
X181507Y61906D01*
X181663Y61840D01*
X181863Y61773D01*
X182085Y61718D01*
X182329Y61673D01*
X182584Y61662D01*
X182662D01*
X182728Y61673D01*
X182806D01*
X182884Y61684D01*
X183083Y61729D01*
X183317Y61784D01*
X183550Y61873D01*
X183794Y61995D01*
X183916Y62062D01*
X184027Y62150D01*
X184038Y62161D01*
X184049Y62173D01*
X184083Y62206D01*
X184127Y62239D01*
X184171Y62295D01*
X184227Y62361D01*
X184293Y62428D01*
X184349Y62517D01*
X184415Y62617D01*
X184493Y62728D01*
X184560Y62839D01*
X184626Y62972D01*
X184682Y63116D01*
X184737Y63271D01*
X184793Y63438D01*
X184837Y63616D01*
X185858Y63360D01*
Y63349D01*
X185847Y63305D01*
X185825Y63238D01*
X185792Y63149D01*
X185759Y63050D01*
X185714Y62927D01*
X185659Y62794D01*
X185592Y62650D01*
X185437Y62339D01*
X185237Y62028D01*
X185115Y61873D01*
X184993Y61718D01*
X184860Y61584D01*
X184704Y61451D01*
X184693Y61440D01*
X184671Y61418D01*
X184615Y61396D01*
X184560Y61351D01*
X184471Y61296D01*
X184382Y61240D01*
X184260Y61185D01*
X184138Y61129D01*
X183994Y61063D01*
X183838Y61007D01*
X183672Y60952D01*
X183494Y60896D01*
X183305Y60852D01*
X183106Y60830D01*
X182895Y60807D01*
X182673Y60796D01*
X182551D01*
X182462Y60807D01*
X182362D01*
X182240Y60819D01*
X182107Y60841D01*
X181951Y60863D01*
X181629Y60918D01*
X181296Y61007D01*
X180963Y61129D01*
X180808Y61207D01*
X180653Y61296D01*
X180641Y61307D01*
X180619Y61318D01*
X180575Y61351D01*
X180531Y61396D01*
X180464Y61440D01*
X180386Y61507D01*
X180298Y61584D01*
X180209Y61673D01*
X180120Y61773D01*
X180020Y61873D01*
X179820Y62128D01*
X179632Y62428D01*
X179465Y62761D01*
Y62772D01*
X179443Y62805D01*
X179432Y62861D01*
X179398Y62927D01*
X179376Y63016D01*
X179343Y63127D01*
X179298Y63249D01*
X179265Y63383D01*
X179232Y63527D01*
X179188Y63693D01*
X179132Y64037D01*
X179088Y64426D01*
X179065Y64826D01*
Y64837D01*
Y64881D01*
Y64948D01*
X179076Y65025D01*
Y65136D01*
X179088Y65247D01*
X179099Y65392D01*
X179121Y65536D01*
X179176Y65858D01*
X179254Y66213D01*
X179365Y66568D01*
X179520Y66912D01*
X179532Y66923D01*
X179543Y66957D01*
X179565Y67001D01*
X179609Y67057D01*
X179654Y67134D01*
X179709Y67223D01*
X179853Y67423D01*
X180042Y67645D01*
X180264Y67867D01*
X180520Y68089D01*
X180819Y68278D01*
X180830Y68289D01*
X180863Y68300D01*
X180908Y68322D01*
X180963Y68355D01*
X181052Y68389D01*
X181141Y68422D01*
X181252Y68466D01*
X181374Y68511D01*
X181507Y68555D01*
X181652Y68599D01*
X181962Y68666D01*
X182318Y68721D01*
X182684Y68744D01*
X182795D01*
X182873Y68733D01*
D02*
G37*
G36*
X189388Y68633D02*
X189477Y68622D01*
X189577Y68611D01*
X189688Y68599D01*
X189799Y68566D01*
X190065Y68499D01*
X190332Y68400D01*
X190465Y68333D01*
X190598Y68255D01*
X190720Y68155D01*
X190842Y68056D01*
X190853Y68044D01*
X190865Y68033D01*
X190898Y68000D01*
X190942Y67956D01*
X190987Y67889D01*
X191042Y67822D01*
X191153Y67656D01*
X191264Y67445D01*
X191364Y67201D01*
X191442Y66923D01*
X191453Y66779D01*
X191464Y66624D01*
Y66613D01*
Y66602D01*
Y66535D01*
X191453Y66435D01*
X191431Y66313D01*
X191397Y66157D01*
X191342Y66002D01*
X191275Y65847D01*
X191175Y65691D01*
X191164Y65669D01*
X191120Y65625D01*
X191053Y65558D01*
X190964Y65469D01*
X190842Y65369D01*
X190698Y65269D01*
X190532Y65170D01*
X190332Y65081D01*
X190343D01*
X190365Y65070D01*
X190398Y65059D01*
X190443Y65036D01*
X190576Y64981D01*
X190731Y64903D01*
X190898Y64792D01*
X191075Y64670D01*
X191242Y64515D01*
X191397Y64337D01*
Y64326D01*
X191408Y64315D01*
X191453Y64248D01*
X191519Y64137D01*
X191586Y63993D01*
X191653Y63815D01*
X191719Y63604D01*
X191763Y63371D01*
X191775Y63116D01*
Y63105D01*
Y63072D01*
Y63016D01*
X191763Y62950D01*
X191752Y62872D01*
X191741Y62772D01*
X191719Y62661D01*
X191686Y62539D01*
X191608Y62284D01*
X191553Y62139D01*
X191475Y62006D01*
X191397Y61862D01*
X191308Y61729D01*
X191197Y61596D01*
X191075Y61462D01*
X191064Y61451D01*
X191042Y61429D01*
X191009Y61396D01*
X190953Y61362D01*
X190876Y61307D01*
X190798Y61251D01*
X190698Y61196D01*
X190587Y61129D01*
X190465Y61063D01*
X190321Y61007D01*
X190165Y60952D01*
X190010Y60896D01*
X189832Y60863D01*
X189643Y60830D01*
X189455Y60807D01*
X189244Y60796D01*
X189133D01*
X189055Y60807D01*
X188955Y60819D01*
X188844Y60830D01*
X188722Y60852D01*
X188589Y60885D01*
X188289Y60963D01*
X188134Y61018D01*
X187990Y61074D01*
X187834Y61151D01*
X187679Y61240D01*
X187535Y61340D01*
X187401Y61462D01*
X187390Y61473D01*
X187368Y61496D01*
X187335Y61529D01*
X187290Y61584D01*
X187246Y61651D01*
X187179Y61729D01*
X187124Y61817D01*
X187057Y61929D01*
X186991Y62039D01*
X186935Y62173D01*
X186824Y62450D01*
X186780Y62617D01*
X186746Y62783D01*
X186724Y62961D01*
X186713Y63138D01*
Y63149D01*
Y63172D01*
Y63216D01*
X186724Y63260D01*
Y63327D01*
X186735Y63405D01*
X186758Y63582D01*
X186802Y63782D01*
X186868Y63982D01*
X186968Y64193D01*
X187090Y64393D01*
Y64404D01*
X187113Y64415D01*
X187157Y64470D01*
X187246Y64559D01*
X187368Y64670D01*
X187523Y64781D01*
X187712Y64903D01*
X187923Y65003D01*
X188178Y65081D01*
X188167D01*
X188156Y65092D01*
X188123Y65103D01*
X188078Y65125D01*
X187978Y65170D01*
X187845Y65236D01*
X187701Y65325D01*
X187557Y65436D01*
X187423Y65558D01*
X187301Y65691D01*
X187290Y65714D01*
X187257Y65758D01*
X187213Y65847D01*
X187168Y65958D01*
X187113Y66102D01*
X187068Y66269D01*
X187035Y66457D01*
X187024Y66657D01*
Y66668D01*
Y66690D01*
Y66735D01*
X187035Y66801D01*
X187046Y66868D01*
X187057Y66957D01*
X187102Y67145D01*
X187168Y67367D01*
X187279Y67600D01*
X187346Y67723D01*
X187423Y67845D01*
X187523Y67956D01*
X187623Y68067D01*
X187634Y68078D01*
X187657Y68089D01*
X187690Y68122D01*
X187734Y68155D01*
X187790Y68200D01*
X187868Y68244D01*
X187956Y68300D01*
X188045Y68355D01*
X188156Y68411D01*
X188278Y68466D01*
X188411Y68511D01*
X188556Y68555D01*
X188867Y68622D01*
X189044Y68633D01*
X189222Y68644D01*
X189322D01*
X189388Y68633D01*
D02*
G37*
G36*
X156203Y68733D02*
X156302Y68721D01*
X156425Y68710D01*
X156547Y68699D01*
X156691Y68666D01*
X156991Y68599D01*
X157324Y68499D01*
X157490Y68433D01*
X157646Y68355D01*
X157801Y68255D01*
X157956Y68155D01*
X157968Y68144D01*
X157990Y68133D01*
X158034Y68100D01*
X158090Y68044D01*
X158145Y67989D01*
X158223Y67911D01*
X158301Y67822D01*
X158389Y67734D01*
X158478Y67623D01*
X158567Y67490D01*
X158667Y67356D01*
X158756Y67212D01*
X158833Y67045D01*
X158922Y66879D01*
X158989Y66701D01*
X159055Y66502D01*
X158056Y66269D01*
Y66280D01*
X158045Y66302D01*
X158023Y66346D01*
X158001Y66402D01*
X157979Y66468D01*
X157945Y66557D01*
X157857Y66735D01*
X157746Y66934D01*
X157612Y67134D01*
X157446Y67323D01*
X157268Y67490D01*
X157246Y67512D01*
X157179Y67556D01*
X157068Y67611D01*
X156924Y67689D01*
X156735Y67756D01*
X156524Y67822D01*
X156269Y67867D01*
X155992Y67878D01*
X155903D01*
X155847Y67867D01*
X155770D01*
X155681Y67856D01*
X155470Y67822D01*
X155237Y67778D01*
X154993Y67700D01*
X154737Y67589D01*
X154504Y67445D01*
X154493D01*
X154482Y67423D01*
X154404Y67367D01*
X154305Y67279D01*
X154182Y67145D01*
X154038Y66979D01*
X153905Y66790D01*
X153783Y66557D01*
X153672Y66302D01*
Y66291D01*
X153661Y66269D01*
X153650Y66235D01*
X153639Y66180D01*
X153616Y66113D01*
X153594Y66035D01*
X153561Y65847D01*
X153517Y65625D01*
X153472Y65381D01*
X153450Y65114D01*
X153439Y64826D01*
Y64814D01*
Y64781D01*
Y64726D01*
Y64659D01*
X153450Y64581D01*
Y64481D01*
X153461Y64370D01*
X153472Y64248D01*
X153505Y63982D01*
X153561Y63693D01*
X153628Y63405D01*
X153716Y63116D01*
Y63105D01*
X153727Y63083D01*
X153750Y63050D01*
X153772Y62994D01*
X153838Y62861D01*
X153938Y62705D01*
X154060Y62528D01*
X154216Y62339D01*
X154393Y62173D01*
X154604Y62017D01*
X154615D01*
X154637Y62006D01*
X154671Y61984D01*
X154715Y61962D01*
X154771Y61940D01*
X154837Y61906D01*
X154993Y61840D01*
X155192Y61773D01*
X155414Y61718D01*
X155659Y61673D01*
X155914Y61662D01*
X155992D01*
X156058Y61673D01*
X156136D01*
X156214Y61684D01*
X156413Y61729D01*
X156647Y61784D01*
X156880Y61873D01*
X157124Y61995D01*
X157246Y62062D01*
X157357Y62150D01*
X157368Y62161D01*
X157379Y62173D01*
X157413Y62206D01*
X157457Y62239D01*
X157501Y62295D01*
X157557Y62361D01*
X157623Y62428D01*
X157679Y62517D01*
X157746Y62617D01*
X157823Y62728D01*
X157890Y62839D01*
X157956Y62972D01*
X158012Y63116D01*
X158067Y63271D01*
X158123Y63438D01*
X158167Y63616D01*
X159188Y63360D01*
Y63349D01*
X159177Y63305D01*
X159155Y63238D01*
X159122Y63149D01*
X159089Y63050D01*
X159044Y62927D01*
X158989Y62794D01*
X158922Y62650D01*
X158767Y62339D01*
X158567Y62028D01*
X158445Y61873D01*
X158323Y61718D01*
X158189Y61584D01*
X158034Y61451D01*
X158023Y61440D01*
X158001Y61418D01*
X157945Y61396D01*
X157890Y61351D01*
X157801Y61296D01*
X157712Y61240D01*
X157590Y61185D01*
X157468Y61129D01*
X157324Y61063D01*
X157168Y61007D01*
X157002Y60952D01*
X156824Y60896D01*
X156636Y60852D01*
X156436Y60830D01*
X156225Y60807D01*
X156003Y60796D01*
X155881D01*
X155792Y60807D01*
X155692D01*
X155570Y60819D01*
X155437Y60841D01*
X155281Y60863D01*
X154959Y60918D01*
X154626Y61007D01*
X154293Y61129D01*
X154138Y61207D01*
X153983Y61296D01*
X153972Y61307D01*
X153949Y61318D01*
X153905Y61351D01*
X153861Y61396D01*
X153794Y61440D01*
X153716Y61507D01*
X153628Y61584D01*
X153539Y61673D01*
X153450Y61773D01*
X153350Y61873D01*
X153150Y62128D01*
X152962Y62428D01*
X152795Y62761D01*
Y62772D01*
X152773Y62805D01*
X152762Y62861D01*
X152728Y62927D01*
X152706Y63016D01*
X152673Y63127D01*
X152628Y63249D01*
X152595Y63383D01*
X152562Y63527D01*
X152517Y63693D01*
X152462Y64037D01*
X152418Y64426D01*
X152395Y64826D01*
Y64837D01*
Y64881D01*
Y64948D01*
X152407Y65025D01*
Y65136D01*
X152418Y65247D01*
X152429Y65392D01*
X152451Y65536D01*
X152506Y65858D01*
X152584Y66213D01*
X152695Y66568D01*
X152851Y66912D01*
X152862Y66923D01*
X152873Y66957D01*
X152895Y67001D01*
X152939Y67057D01*
X152984Y67134D01*
X153039Y67223D01*
X153183Y67423D01*
X153372Y67645D01*
X153594Y67867D01*
X153849Y68089D01*
X154149Y68278D01*
X154160Y68289D01*
X154193Y68300D01*
X154238Y68322D01*
X154293Y68355D01*
X154382Y68389D01*
X154471Y68422D01*
X154582Y68466D01*
X154704Y68511D01*
X154837Y68555D01*
X154982Y68599D01*
X155292Y68666D01*
X155648Y68721D01*
X156014Y68744D01*
X156125D01*
X156203Y68733D01*
D02*
G37*
G36*
X162596Y68633D02*
X162652D01*
X162729Y68622D01*
X162918Y68588D01*
X163129Y68544D01*
X163362Y68466D01*
X163595Y68366D01*
X163828Y68233D01*
X163839D01*
X163850Y68211D01*
X163884Y68189D01*
X163928Y68155D01*
X164039Y68067D01*
X164183Y67944D01*
X164328Y67778D01*
X164494Y67578D01*
X164639Y67345D01*
X164772Y67079D01*
Y67068D01*
X164783Y67045D01*
X164805Y67001D01*
X164827Y66946D01*
X164849Y66868D01*
X164883Y66768D01*
X164905Y66657D01*
X164938Y66535D01*
X164972Y66391D01*
X165005Y66224D01*
X165027Y66047D01*
X165049Y65858D01*
X165071Y65647D01*
X165093Y65425D01*
X165105Y65181D01*
Y64925D01*
Y64914D01*
Y64859D01*
Y64781D01*
Y64681D01*
X165093Y64559D01*
Y64415D01*
X165082Y64248D01*
X165060Y64082D01*
X165027Y63704D01*
X164972Y63305D01*
X164894Y62927D01*
X164838Y62739D01*
X164783Y62572D01*
Y62561D01*
X164772Y62539D01*
X164750Y62495D01*
X164727Y62428D01*
X164694Y62361D01*
X164650Y62273D01*
X164539Y62084D01*
X164405Y61873D01*
X164250Y61651D01*
X164050Y61440D01*
X163828Y61251D01*
X163817D01*
X163795Y61229D01*
X163762Y61207D01*
X163717Y61185D01*
X163651Y61151D01*
X163584Y61107D01*
X163495Y61063D01*
X163406Y61029D01*
X163195Y60941D01*
X162940Y60863D01*
X162663Y60819D01*
X162352Y60796D01*
X162263D01*
X162208Y60807D01*
X162130D01*
X162041Y60819D01*
X161830Y60863D01*
X161597Y60918D01*
X161353Y61007D01*
X161109Y61129D01*
X160987Y61207D01*
X160876Y61296D01*
X160865Y61307D01*
X160853Y61318D01*
X160820Y61351D01*
X160787Y61385D01*
X160742Y61440D01*
X160687Y61507D01*
X160576Y61662D01*
X160465Y61862D01*
X160354Y62106D01*
X160265Y62383D01*
X160198Y62705D01*
X161109Y62783D01*
Y62772D01*
X161120Y62750D01*
Y62728D01*
X161131Y62683D01*
X161164Y62561D01*
X161209Y62428D01*
X161264Y62273D01*
X161342Y62117D01*
X161431Y61973D01*
X161542Y61851D01*
X161553Y61840D01*
X161597Y61806D01*
X161675Y61762D01*
X161764Y61718D01*
X161886Y61662D01*
X162030Y61618D01*
X162197Y61584D01*
X162374Y61573D01*
X162452D01*
X162530Y61584D01*
X162629Y61596D01*
X162752Y61618D01*
X162874Y61651D01*
X163007Y61695D01*
X163129Y61762D01*
X163140Y61773D01*
X163184Y61795D01*
X163251Y61840D01*
X163318Y61906D01*
X163406Y61984D01*
X163495Y62073D01*
X163584Y62173D01*
X163673Y62295D01*
X163684Y62306D01*
X163706Y62361D01*
X163750Y62439D01*
X163795Y62539D01*
X163850Y62672D01*
X163906Y62828D01*
X163961Y63005D01*
X164017Y63205D01*
Y63216D01*
X164028Y63227D01*
Y63260D01*
X164039Y63305D01*
X164061Y63416D01*
X164095Y63560D01*
X164117Y63738D01*
X164139Y63926D01*
X164150Y64137D01*
X164161Y64359D01*
Y64370D01*
Y64404D01*
Y64459D01*
Y64548D01*
X164150Y64526D01*
X164106Y64470D01*
X164039Y64393D01*
X163961Y64282D01*
X163850Y64171D01*
X163717Y64049D01*
X163562Y63926D01*
X163384Y63815D01*
X163362Y63804D01*
X163295Y63771D01*
X163195Y63727D01*
X163073Y63682D01*
X162907Y63627D01*
X162729Y63582D01*
X162530Y63549D01*
X162319Y63538D01*
X162230D01*
X162163Y63549D01*
X162074Y63560D01*
X161986Y63571D01*
X161875Y63593D01*
X161764Y63627D01*
X161508Y63704D01*
X161375Y63760D01*
X161242Y63826D01*
X161098Y63904D01*
X160964Y64004D01*
X160831Y64104D01*
X160709Y64226D01*
X160698Y64237D01*
X160676Y64259D01*
X160654Y64293D01*
X160609Y64348D01*
X160554Y64426D01*
X160498Y64504D01*
X160443Y64604D01*
X160387Y64714D01*
X160321Y64837D01*
X160265Y64970D01*
X160210Y65125D01*
X160154Y65281D01*
X160110Y65458D01*
X160088Y65647D01*
X160065Y65836D01*
X160054Y66047D01*
Y66058D01*
Y66102D01*
Y66157D01*
X160065Y66235D01*
X160076Y66335D01*
X160088Y66457D01*
X160110Y66579D01*
X160143Y66724D01*
X160221Y67012D01*
X160276Y67168D01*
X160343Y67334D01*
X160420Y67490D01*
X160520Y67634D01*
X160620Y67789D01*
X160742Y67922D01*
X160753Y67933D01*
X160776Y67956D01*
X160809Y67989D01*
X160865Y68033D01*
X160931Y68089D01*
X161020Y68155D01*
X161109Y68211D01*
X161220Y68289D01*
X161331Y68355D01*
X161464Y68411D01*
X161764Y68533D01*
X161919Y68577D01*
X162097Y68611D01*
X162274Y68633D01*
X162463Y68644D01*
X162541D01*
X162596Y68633D01*
D02*
G37*
G36*
X132078Y68733D02*
X132178Y68721D01*
X132300Y68710D01*
X132422Y68699D01*
X132566Y68666D01*
X132866Y68599D01*
X133199Y68499D01*
X133366Y68433D01*
X133521Y68355D01*
X133677Y68255D01*
X133832Y68155D01*
X133843Y68144D01*
X133865Y68133D01*
X133910Y68100D01*
X133965Y68044D01*
X134021Y67989D01*
X134098Y67911D01*
X134176Y67822D01*
X134265Y67734D01*
X134354Y67623D01*
X134442Y67490D01*
X134542Y67356D01*
X134631Y67212D01*
X134709Y67045D01*
X134798Y66879D01*
X134864Y66701D01*
X134931Y66502D01*
X133932Y66269D01*
Y66280D01*
X133921Y66302D01*
X133898Y66346D01*
X133876Y66402D01*
X133854Y66468D01*
X133821Y66557D01*
X133732Y66735D01*
X133621Y66934D01*
X133488Y67134D01*
X133321Y67323D01*
X133144Y67490D01*
X133122Y67512D01*
X133055Y67556D01*
X132944Y67611D01*
X132800Y67689D01*
X132611Y67756D01*
X132400Y67822D01*
X132145Y67867D01*
X131867Y67878D01*
X131778D01*
X131723Y67867D01*
X131645D01*
X131557Y67856D01*
X131346Y67822D01*
X131112Y67778D01*
X130868Y67700D01*
X130613Y67589D01*
X130380Y67445D01*
X130369D01*
X130358Y67423D01*
X130280Y67367D01*
X130180Y67279D01*
X130058Y67145D01*
X129914Y66979D01*
X129781Y66790D01*
X129658Y66557D01*
X129547Y66302D01*
Y66291D01*
X129536Y66269D01*
X129525Y66235D01*
X129514Y66180D01*
X129492Y66113D01*
X129470Y66035D01*
X129436Y65847D01*
X129392Y65625D01*
X129348Y65381D01*
X129325Y65114D01*
X129314Y64826D01*
Y64814D01*
Y64781D01*
Y64726D01*
Y64659D01*
X129325Y64581D01*
Y64481D01*
X129337Y64370D01*
X129348Y64248D01*
X129381Y63982D01*
X129436Y63693D01*
X129503Y63405D01*
X129592Y63116D01*
Y63105D01*
X129603Y63083D01*
X129625Y63050D01*
X129647Y62994D01*
X129714Y62861D01*
X129814Y62705D01*
X129936Y62528D01*
X130091Y62339D01*
X130269Y62173D01*
X130480Y62017D01*
X130491D01*
X130513Y62006D01*
X130546Y61984D01*
X130591Y61962D01*
X130646Y61940D01*
X130713Y61906D01*
X130868Y61840D01*
X131068Y61773D01*
X131290Y61718D01*
X131534Y61673D01*
X131790Y61662D01*
X131867D01*
X131934Y61673D01*
X132011D01*
X132089Y61684D01*
X132289Y61729D01*
X132522Y61784D01*
X132755Y61873D01*
X132999Y61995D01*
X133122Y62062D01*
X133232Y62150D01*
X133244Y62161D01*
X133255Y62173D01*
X133288Y62206D01*
X133332Y62239D01*
X133377Y62295D01*
X133432Y62361D01*
X133499Y62428D01*
X133554Y62517D01*
X133621Y62617D01*
X133699Y62728D01*
X133765Y62839D01*
X133832Y62972D01*
X133887Y63116D01*
X133943Y63271D01*
X133998Y63438D01*
X134043Y63616D01*
X135064Y63360D01*
Y63349D01*
X135053Y63305D01*
X135031Y63238D01*
X134997Y63149D01*
X134964Y63050D01*
X134920Y62927D01*
X134864Y62794D01*
X134798Y62650D01*
X134642Y62339D01*
X134442Y62028D01*
X134320Y61873D01*
X134198Y61718D01*
X134065Y61584D01*
X133910Y61451D01*
X133898Y61440D01*
X133876Y61418D01*
X133821Y61396D01*
X133765Y61351D01*
X133677Y61296D01*
X133588Y61240D01*
X133466Y61185D01*
X133343Y61129D01*
X133199Y61063D01*
X133044Y61007D01*
X132877Y60952D01*
X132700Y60896D01*
X132511Y60852D01*
X132311Y60830D01*
X132100Y60807D01*
X131878Y60796D01*
X131756D01*
X131667Y60807D01*
X131568D01*
X131446Y60819D01*
X131312Y60841D01*
X131157Y60863D01*
X130835Y60918D01*
X130502Y61007D01*
X130169Y61129D01*
X130014Y61207D01*
X129858Y61296D01*
X129847Y61307D01*
X129825Y61318D01*
X129781Y61351D01*
X129736Y61396D01*
X129670Y61440D01*
X129592Y61507D01*
X129503Y61584D01*
X129414Y61673D01*
X129325Y61773D01*
X129226Y61873D01*
X129026Y62128D01*
X128837Y62428D01*
X128671Y62761D01*
Y62772D01*
X128648Y62805D01*
X128637Y62861D01*
X128604Y62927D01*
X128582Y63016D01*
X128548Y63127D01*
X128504Y63249D01*
X128471Y63383D01*
X128437Y63527D01*
X128393Y63693D01*
X128337Y64037D01*
X128293Y64426D01*
X128271Y64826D01*
Y64837D01*
Y64881D01*
Y64948D01*
X128282Y65025D01*
Y65136D01*
X128293Y65247D01*
X128304Y65392D01*
X128326Y65536D01*
X128382Y65858D01*
X128460Y66213D01*
X128571Y66568D01*
X128726Y66912D01*
X128737Y66923D01*
X128748Y66957D01*
X128770Y67001D01*
X128815Y67057D01*
X128859Y67134D01*
X128915Y67223D01*
X129059Y67423D01*
X129248Y67645D01*
X129470Y67867D01*
X129725Y68089D01*
X130025Y68278D01*
X130036Y68289D01*
X130069Y68300D01*
X130113Y68322D01*
X130169Y68355D01*
X130258Y68389D01*
X130347Y68422D01*
X130458Y68466D01*
X130580Y68511D01*
X130713Y68555D01*
X130857Y68599D01*
X131168Y68666D01*
X131523Y68721D01*
X131889Y68744D01*
X132000D01*
X132078Y68733D01*
D02*
G37*
G36*
X140969Y67767D02*
X140958Y67756D01*
X140936Y67734D01*
X140891Y67689D01*
X140847Y67623D01*
X140780Y67545D01*
X140692Y67456D01*
X140603Y67345D01*
X140503Y67212D01*
X140403Y67079D01*
X140281Y66923D01*
X140159Y66746D01*
X140037Y66568D01*
X139903Y66368D01*
X139770Y66157D01*
X139637Y65924D01*
X139504Y65691D01*
X139493Y65680D01*
X139471Y65636D01*
X139437Y65569D01*
X139382Y65469D01*
X139326Y65347D01*
X139260Y65214D01*
X139182Y65059D01*
X139104Y64881D01*
X139016Y64681D01*
X138916Y64481D01*
X138827Y64259D01*
X138738Y64026D01*
X138560Y63549D01*
X138394Y63038D01*
Y63027D01*
X138383Y62994D01*
X138372Y62938D01*
X138350Y62872D01*
X138327Y62783D01*
X138305Y62672D01*
X138272Y62550D01*
X138250Y62417D01*
X138216Y62261D01*
X138183Y62095D01*
X138127Y61740D01*
X138072Y61351D01*
X138039Y60929D01*
X137073D01*
Y60941D01*
Y60974D01*
Y61018D01*
X137084Y61085D01*
Y61174D01*
X137095Y61285D01*
X137106Y61407D01*
X137118Y61540D01*
X137140Y61695D01*
X137162Y61851D01*
X137195Y62039D01*
X137228Y62228D01*
X137262Y62428D01*
X137306Y62650D01*
X137417Y63105D01*
Y63116D01*
X137428Y63161D01*
X137450Y63227D01*
X137484Y63327D01*
X137517Y63438D01*
X137561Y63571D01*
X137606Y63727D01*
X137672Y63893D01*
X137739Y64082D01*
X137806Y64271D01*
X137972Y64692D01*
X138172Y65136D01*
X138394Y65580D01*
X138405Y65591D01*
X138427Y65636D01*
X138461Y65691D01*
X138505Y65780D01*
X138560Y65880D01*
X138638Y66002D01*
X138716Y66135D01*
X138805Y66280D01*
X139016Y66602D01*
X139237Y66934D01*
X139493Y67279D01*
X139759Y67600D01*
X135996D01*
Y68511D01*
X140969D01*
Y67767D01*
D02*
G37*
G36*
X45757Y48413D02*
X45857Y48401D01*
X45979Y48390D01*
X46101Y48379D01*
X46245Y48346D01*
X46545Y48279D01*
X46878Y48179D01*
X47045Y48113D01*
X47200Y48035D01*
X47355Y47935D01*
X47511Y47835D01*
X47522Y47824D01*
X47544Y47813D01*
X47589Y47780D01*
X47644Y47724D01*
X47699Y47669D01*
X47777Y47591D01*
X47855Y47502D01*
X47944Y47414D01*
X48032Y47303D01*
X48121Y47169D01*
X48221Y47036D01*
X48310Y46892D01*
X48388Y46726D01*
X48477Y46559D01*
X48543Y46381D01*
X48610Y46182D01*
X47611Y45949D01*
Y45960D01*
X47600Y45982D01*
X47577Y46026D01*
X47555Y46082D01*
X47533Y46148D01*
X47500Y46237D01*
X47411Y46415D01*
X47300Y46614D01*
X47167Y46814D01*
X47000Y47003D01*
X46823Y47169D01*
X46800Y47192D01*
X46734Y47236D01*
X46623Y47291D01*
X46479Y47369D01*
X46290Y47436D01*
X46079Y47502D01*
X45824Y47547D01*
X45546Y47558D01*
X45457D01*
X45402Y47547D01*
X45324D01*
X45235Y47536D01*
X45024Y47502D01*
X44791Y47458D01*
X44547Y47380D01*
X44292Y47269D01*
X44059Y47125D01*
X44048D01*
X44036Y47103D01*
X43959Y47047D01*
X43859Y46959D01*
X43737Y46825D01*
X43593Y46659D01*
X43459Y46470D01*
X43337Y46237D01*
X43226Y45982D01*
Y45971D01*
X43215Y45949D01*
X43204Y45915D01*
X43193Y45860D01*
X43171Y45793D01*
X43149Y45715D01*
X43115Y45527D01*
X43071Y45305D01*
X43026Y45061D01*
X43004Y44794D01*
X42993Y44506D01*
Y44494D01*
Y44461D01*
Y44406D01*
Y44339D01*
X43004Y44261D01*
Y44161D01*
X43015Y44050D01*
X43026Y43928D01*
X43060Y43662D01*
X43115Y43373D01*
X43182Y43085D01*
X43271Y42796D01*
Y42785D01*
X43282Y42763D01*
X43304Y42730D01*
X43326Y42674D01*
X43393Y42541D01*
X43493Y42385D01*
X43615Y42208D01*
X43770Y42019D01*
X43948Y41853D01*
X44159Y41697D01*
X44170D01*
X44192Y41686D01*
X44225Y41664D01*
X44270Y41642D01*
X44325Y41620D01*
X44392Y41586D01*
X44547Y41520D01*
X44747Y41453D01*
X44969Y41398D01*
X45213Y41353D01*
X45468Y41342D01*
X45546D01*
X45613Y41353D01*
X45690D01*
X45768Y41364D01*
X45968Y41409D01*
X46201Y41464D01*
X46434Y41553D01*
X46678Y41675D01*
X46800Y41742D01*
X46911Y41830D01*
X46922Y41842D01*
X46934Y41853D01*
X46967Y41886D01*
X47011Y41919D01*
X47056Y41975D01*
X47111Y42041D01*
X47178Y42108D01*
X47233Y42197D01*
X47300Y42297D01*
X47378Y42408D01*
X47444Y42519D01*
X47511Y42652D01*
X47566Y42796D01*
X47622Y42951D01*
X47677Y43118D01*
X47722Y43296D01*
X48743Y43040D01*
Y43029D01*
X48732Y42985D01*
X48710Y42918D01*
X48676Y42829D01*
X48643Y42730D01*
X48599Y42607D01*
X48543Y42474D01*
X48477Y42330D01*
X48321Y42019D01*
X48121Y41708D01*
X47999Y41553D01*
X47877Y41398D01*
X47744Y41264D01*
X47589Y41131D01*
X47577Y41120D01*
X47555Y41098D01*
X47500Y41076D01*
X47444Y41031D01*
X47355Y40976D01*
X47267Y40920D01*
X47144Y40865D01*
X47022Y40809D01*
X46878Y40743D01*
X46723Y40687D01*
X46556Y40632D01*
X46379Y40576D01*
X46190Y40532D01*
X45990Y40510D01*
X45779Y40487D01*
X45557Y40476D01*
X45435D01*
X45346Y40487D01*
X45246D01*
X45124Y40498D01*
X44991Y40521D01*
X44836Y40543D01*
X44514Y40598D01*
X44181Y40687D01*
X43848Y40809D01*
X43692Y40887D01*
X43537Y40976D01*
X43526Y40987D01*
X43504Y40998D01*
X43459Y41031D01*
X43415Y41076D01*
X43348Y41120D01*
X43271Y41187D01*
X43182Y41264D01*
X43093Y41353D01*
X43004Y41453D01*
X42904Y41553D01*
X42705Y41808D01*
X42516Y42108D01*
X42349Y42441D01*
Y42452D01*
X42327Y42485D01*
X42316Y42541D01*
X42283Y42607D01*
X42261Y42696D01*
X42227Y42807D01*
X42183Y42929D01*
X42150Y43063D01*
X42116Y43207D01*
X42072Y43373D01*
X42016Y43717D01*
X41972Y44106D01*
X41950Y44506D01*
Y44517D01*
Y44561D01*
Y44628D01*
X41961Y44705D01*
Y44816D01*
X41972Y44927D01*
X41983Y45072D01*
X42005Y45216D01*
X42061Y45538D01*
X42139Y45893D01*
X42249Y46248D01*
X42405Y46592D01*
X42416Y46603D01*
X42427Y46637D01*
X42449Y46681D01*
X42494Y46737D01*
X42538Y46814D01*
X42594Y46903D01*
X42738Y47103D01*
X42927Y47325D01*
X43149Y47547D01*
X43404Y47769D01*
X43703Y47958D01*
X43715Y47969D01*
X43748Y47980D01*
X43792Y48002D01*
X43848Y48035D01*
X43937Y48068D01*
X44025Y48102D01*
X44136Y48146D01*
X44258Y48191D01*
X44392Y48235D01*
X44536Y48279D01*
X44847Y48346D01*
X45202Y48401D01*
X45568Y48424D01*
X45679D01*
X45757Y48413D01*
D02*
G37*
G36*
X52339Y48313D02*
X52428Y48302D01*
X52539Y48291D01*
X52661Y48268D01*
X52783Y48246D01*
X53072Y48168D01*
X53360Y48057D01*
X53505Y47991D01*
X53649Y47913D01*
X53782Y47813D01*
X53904Y47702D01*
X53915Y47691D01*
X53938Y47680D01*
X53960Y47636D01*
X54004Y47591D01*
X54060Y47536D01*
X54115Y47458D01*
X54171Y47380D01*
X54237Y47280D01*
X54348Y47070D01*
X54459Y46803D01*
X54504Y46670D01*
X54526Y46515D01*
X54548Y46359D01*
X54559Y46193D01*
Y46171D01*
Y46115D01*
X54548Y46026D01*
X54537Y45904D01*
X54515Y45771D01*
X54470Y45616D01*
X54426Y45449D01*
X54359Y45283D01*
X54348Y45260D01*
X54326Y45205D01*
X54282Y45116D01*
X54215Y44994D01*
X54126Y44861D01*
X54015Y44694D01*
X53882Y44528D01*
X53727Y44339D01*
X53705Y44317D01*
X53649Y44250D01*
X53594Y44195D01*
X53538Y44139D01*
X53471Y44073D01*
X53383Y43984D01*
X53294Y43895D01*
X53183Y43795D01*
X53072Y43684D01*
X52939Y43562D01*
X52794Y43440D01*
X52639Y43296D01*
X52461Y43151D01*
X52284Y42996D01*
X52273Y42985D01*
X52250Y42963D01*
X52206Y42929D01*
X52151Y42885D01*
X52084Y42818D01*
X52006Y42752D01*
X51829Y42607D01*
X51640Y42441D01*
X51462Y42274D01*
X51307Y42130D01*
X51240Y42075D01*
X51185Y42019D01*
X51174Y42008D01*
X51140Y41975D01*
X51096Y41930D01*
X51041Y41864D01*
X50985Y41786D01*
X50918Y41708D01*
X50785Y41520D01*
X54570D01*
Y40609D01*
X49475D01*
Y40621D01*
Y40665D01*
Y40732D01*
X49486Y40820D01*
X49498Y40920D01*
X49520Y41031D01*
X49542Y41142D01*
X49586Y41264D01*
Y41276D01*
X49598Y41287D01*
X49620Y41353D01*
X49664Y41453D01*
X49731Y41586D01*
X49819Y41742D01*
X49931Y41919D01*
X50053Y42097D01*
X50208Y42285D01*
Y42297D01*
X50230Y42308D01*
X50286Y42374D01*
X50386Y42474D01*
X50530Y42618D01*
X50696Y42785D01*
X50907Y42985D01*
X51163Y43207D01*
X51440Y43440D01*
X51451Y43451D01*
X51496Y43484D01*
X51562Y43540D01*
X51640Y43606D01*
X51740Y43695D01*
X51862Y43795D01*
X51984Y43906D01*
X52128Y44028D01*
X52406Y44295D01*
X52683Y44561D01*
X52817Y44694D01*
X52939Y44827D01*
X53050Y44949D01*
X53138Y45072D01*
Y45083D01*
X53161Y45094D01*
X53183Y45127D01*
X53205Y45171D01*
X53283Y45294D01*
X53372Y45438D01*
X53449Y45616D01*
X53527Y45804D01*
X53571Y46015D01*
X53594Y46215D01*
Y46226D01*
Y46237D01*
X53582Y46304D01*
X53571Y46415D01*
X53538Y46537D01*
X53494Y46692D01*
X53416Y46848D01*
X53316Y47003D01*
X53183Y47158D01*
X53161Y47181D01*
X53105Y47225D01*
X53027Y47280D01*
X52905Y47358D01*
X52750Y47425D01*
X52572Y47491D01*
X52361Y47536D01*
X52128Y47547D01*
X52062D01*
X52017Y47536D01*
X51884Y47525D01*
X51729Y47491D01*
X51562Y47447D01*
X51374Y47369D01*
X51196Y47269D01*
X51029Y47136D01*
X51007Y47114D01*
X50963Y47059D01*
X50896Y46970D01*
X50830Y46837D01*
X50752Y46681D01*
X50685Y46481D01*
X50641Y46259D01*
X50619Y46004D01*
X49653Y46104D01*
Y46115D01*
X49664Y46148D01*
Y46204D01*
X49675Y46281D01*
X49697Y46370D01*
X49720Y46470D01*
X49753Y46592D01*
X49786Y46714D01*
X49875Y46981D01*
X50008Y47247D01*
X50086Y47380D01*
X50186Y47513D01*
X50286Y47636D01*
X50397Y47747D01*
X50408Y47758D01*
X50430Y47769D01*
X50463Y47802D01*
X50519Y47835D01*
X50585Y47880D01*
X50663Y47924D01*
X50752Y47980D01*
X50863Y48035D01*
X50985Y48091D01*
X51118Y48146D01*
X51262Y48191D01*
X51418Y48235D01*
X51584Y48268D01*
X51762Y48302D01*
X51951Y48313D01*
X52151Y48324D01*
X52262D01*
X52339Y48313D01*
D02*
G37*
G36*
X45718Y26823D02*
X45818Y26811D01*
X45940Y26800D01*
X46062Y26789D01*
X46206Y26756D01*
X46506Y26689D01*
X46839Y26590D01*
X47006Y26523D01*
X47161Y26445D01*
X47316Y26345D01*
X47472Y26245D01*
X47483Y26234D01*
X47505Y26223D01*
X47550Y26190D01*
X47605Y26134D01*
X47661Y26079D01*
X47738Y26001D01*
X47816Y25912D01*
X47905Y25824D01*
X47994Y25713D01*
X48082Y25580D01*
X48182Y25446D01*
X48271Y25302D01*
X48349Y25136D01*
X48438Y24969D01*
X48504Y24791D01*
X48571Y24592D01*
X47572Y24358D01*
Y24370D01*
X47561Y24392D01*
X47538Y24436D01*
X47516Y24492D01*
X47494Y24558D01*
X47461Y24647D01*
X47372Y24825D01*
X47261Y25024D01*
X47128Y25224D01*
X46961Y25413D01*
X46784Y25580D01*
X46761Y25602D01*
X46695Y25646D01*
X46584Y25701D01*
X46440Y25779D01*
X46251Y25846D01*
X46040Y25912D01*
X45785Y25957D01*
X45507Y25968D01*
X45419D01*
X45363Y25957D01*
X45285D01*
X45196Y25946D01*
X44986Y25912D01*
X44752Y25868D01*
X44508Y25790D01*
X44253Y25679D01*
X44020Y25535D01*
X44009D01*
X43998Y25513D01*
X43920Y25457D01*
X43820Y25369D01*
X43698Y25235D01*
X43554Y25069D01*
X43421Y24880D01*
X43298Y24647D01*
X43187Y24392D01*
Y24381D01*
X43176Y24358D01*
X43165Y24325D01*
X43154Y24270D01*
X43132Y24203D01*
X43110Y24125D01*
X43076Y23937D01*
X43032Y23715D01*
X42988Y23470D01*
X42965Y23204D01*
X42954Y22915D01*
Y22904D01*
Y22871D01*
Y22816D01*
Y22749D01*
X42965Y22671D01*
Y22571D01*
X42976Y22460D01*
X42988Y22338D01*
X43021Y22072D01*
X43076Y21783D01*
X43143Y21495D01*
X43232Y21206D01*
Y21195D01*
X43243Y21173D01*
X43265Y21140D01*
X43287Y21084D01*
X43354Y20951D01*
X43454Y20795D01*
X43576Y20618D01*
X43731Y20429D01*
X43909Y20263D01*
X44120Y20107D01*
X44131D01*
X44153Y20096D01*
X44186Y20074D01*
X44231Y20052D01*
X44286Y20030D01*
X44353Y19996D01*
X44508Y19930D01*
X44708Y19863D01*
X44930Y19808D01*
X45174Y19763D01*
X45430Y19752D01*
X45507D01*
X45574Y19763D01*
X45651D01*
X45729Y19774D01*
X45929Y19819D01*
X46162Y19874D01*
X46395Y19963D01*
X46639Y20085D01*
X46761Y20152D01*
X46873Y20240D01*
X46884Y20252D01*
X46895Y20263D01*
X46928Y20296D01*
X46972Y20329D01*
X47017Y20385D01*
X47072Y20451D01*
X47139Y20518D01*
X47194Y20607D01*
X47261Y20707D01*
X47339Y20818D01*
X47405Y20929D01*
X47472Y21062D01*
X47527Y21206D01*
X47583Y21361D01*
X47638Y21528D01*
X47683Y21706D01*
X48704Y21450D01*
Y21439D01*
X48693Y21395D01*
X48671Y21328D01*
X48637Y21239D01*
X48604Y21140D01*
X48560Y21017D01*
X48504Y20884D01*
X48438Y20740D01*
X48282Y20429D01*
X48082Y20118D01*
X47960Y19963D01*
X47838Y19808D01*
X47705Y19674D01*
X47550Y19541D01*
X47538Y19530D01*
X47516Y19508D01*
X47461Y19486D01*
X47405Y19441D01*
X47316Y19386D01*
X47228Y19330D01*
X47106Y19275D01*
X46983Y19219D01*
X46839Y19153D01*
X46684Y19097D01*
X46517Y19042D01*
X46340Y18986D01*
X46151Y18942D01*
X45951Y18920D01*
X45740Y18897D01*
X45518Y18886D01*
X45396D01*
X45307Y18897D01*
X45208D01*
X45086Y18908D01*
X44952Y18931D01*
X44797Y18953D01*
X44475Y19008D01*
X44142Y19097D01*
X43809Y19219D01*
X43654Y19297D01*
X43498Y19386D01*
X43487Y19397D01*
X43465Y19408D01*
X43421Y19441D01*
X43376Y19486D01*
X43309Y19530D01*
X43232Y19597D01*
X43143Y19674D01*
X43054Y19763D01*
X42965Y19863D01*
X42866Y19963D01*
X42666Y20218D01*
X42477Y20518D01*
X42311Y20851D01*
Y20862D01*
X42288Y20895D01*
X42277Y20951D01*
X42244Y21017D01*
X42222Y21106D01*
X42188Y21217D01*
X42144Y21339D01*
X42111Y21472D01*
X42077Y21617D01*
X42033Y21783D01*
X41978Y22127D01*
X41933Y22516D01*
X41911Y22915D01*
Y22927D01*
Y22971D01*
Y23038D01*
X41922Y23115D01*
Y23226D01*
X41933Y23337D01*
X41944Y23482D01*
X41966Y23626D01*
X42022Y23948D01*
X42100Y24303D01*
X42211Y24658D01*
X42366Y25002D01*
X42377Y25013D01*
X42388Y25047D01*
X42410Y25091D01*
X42455Y25147D01*
X42499Y25224D01*
X42555Y25313D01*
X42699Y25513D01*
X42888Y25735D01*
X43110Y25957D01*
X43365Y26179D01*
X43665Y26367D01*
X43676Y26379D01*
X43709Y26390D01*
X43753Y26412D01*
X43809Y26445D01*
X43898Y26479D01*
X43987Y26512D01*
X44098Y26556D01*
X44220Y26601D01*
X44353Y26645D01*
X44497Y26689D01*
X44808Y26756D01*
X45163Y26811D01*
X45529Y26834D01*
X45640D01*
X45718Y26823D01*
D02*
G37*
G36*
X52211Y26723D02*
X52356Y26700D01*
X52533Y26667D01*
X52733Y26612D01*
X52933Y26545D01*
X53133Y26456D01*
X53144D01*
X53155Y26445D01*
X53222Y26412D01*
X53321Y26345D01*
X53432Y26268D01*
X53566Y26157D01*
X53699Y26035D01*
X53832Y25890D01*
X53943Y25724D01*
X53954Y25701D01*
X53987Y25646D01*
X54032Y25546D01*
X54087Y25424D01*
X54143Y25280D01*
X54187Y25113D01*
X54221Y24925D01*
X54232Y24736D01*
Y24714D01*
Y24647D01*
X54221Y24558D01*
X54198Y24436D01*
X54165Y24292D01*
X54110Y24137D01*
X54043Y23981D01*
X53954Y23826D01*
X53943Y23804D01*
X53910Y23759D01*
X53843Y23681D01*
X53754Y23593D01*
X53643Y23493D01*
X53510Y23382D01*
X53355Y23282D01*
X53166Y23182D01*
X53177D01*
X53199Y23171D01*
X53233Y23160D01*
X53277Y23149D01*
X53399Y23104D01*
X53555Y23038D01*
X53732Y22949D01*
X53910Y22838D01*
X54076Y22694D01*
X54232Y22527D01*
X54243Y22505D01*
X54287Y22438D01*
X54354Y22327D01*
X54420Y22183D01*
X54487Y22005D01*
X54554Y21794D01*
X54598Y21550D01*
X54609Y21284D01*
Y21273D01*
Y21239D01*
Y21184D01*
X54598Y21117D01*
X54587Y21028D01*
X54565Y20929D01*
X54542Y20818D01*
X54520Y20696D01*
X54432Y20429D01*
X54365Y20285D01*
X54298Y20152D01*
X54209Y20007D01*
X54110Y19863D01*
X53999Y19719D01*
X53865Y19586D01*
X53854Y19575D01*
X53832Y19552D01*
X53788Y19519D01*
X53732Y19475D01*
X53666Y19419D01*
X53577Y19364D01*
X53477Y19297D01*
X53355Y19241D01*
X53233Y19175D01*
X53088Y19108D01*
X52944Y19053D01*
X52778Y18997D01*
X52600Y18953D01*
X52411Y18920D01*
X52223Y18897D01*
X52012Y18886D01*
X51912D01*
X51845Y18897D01*
X51756Y18908D01*
X51656Y18920D01*
X51546Y18942D01*
X51423Y18964D01*
X51157Y19031D01*
X50880Y19142D01*
X50735Y19208D01*
X50602Y19286D01*
X50469Y19386D01*
X50336Y19486D01*
X50325Y19497D01*
X50302Y19519D01*
X50269Y19552D01*
X50236Y19597D01*
X50180Y19652D01*
X50125Y19730D01*
X50058Y19808D01*
X49992Y19907D01*
X49925Y20018D01*
X49858Y20129D01*
X49736Y20396D01*
X49636Y20707D01*
X49603Y20873D01*
X49581Y21051D01*
X50524Y21173D01*
Y21162D01*
X50535Y21140D01*
X50547Y21095D01*
X50558Y21040D01*
X50569Y20973D01*
X50591Y20895D01*
X50647Y20729D01*
X50724Y20529D01*
X50824Y20340D01*
X50935Y20163D01*
X51068Y20007D01*
X51090Y19996D01*
X51135Y19952D01*
X51224Y19896D01*
X51335Y19841D01*
X51468Y19774D01*
X51634Y19719D01*
X51823Y19674D01*
X52023Y19663D01*
X52089D01*
X52134Y19674D01*
X52256Y19685D01*
X52411Y19719D01*
X52589Y19774D01*
X52778Y19852D01*
X52966Y19963D01*
X53144Y20118D01*
X53166Y20141D01*
X53222Y20207D01*
X53288Y20307D01*
X53377Y20440D01*
X53466Y20607D01*
X53532Y20795D01*
X53588Y21017D01*
X53610Y21262D01*
Y21273D01*
Y21295D01*
Y21328D01*
X53599Y21373D01*
X53588Y21495D01*
X53555Y21639D01*
X53510Y21817D01*
X53432Y21994D01*
X53321Y22172D01*
X53177Y22338D01*
X53155Y22360D01*
X53099Y22405D01*
X53011Y22471D01*
X52889Y22549D01*
X52733Y22627D01*
X52544Y22694D01*
X52334Y22738D01*
X52101Y22760D01*
X52001D01*
X51923Y22749D01*
X51823Y22738D01*
X51712Y22716D01*
X51579Y22694D01*
X51434Y22660D01*
X51546Y23493D01*
X51601D01*
X51645Y23482D01*
X51790D01*
X51912Y23504D01*
X52056Y23526D01*
X52223Y23559D01*
X52411Y23615D01*
X52589Y23693D01*
X52778Y23792D01*
X52789D01*
X52800Y23804D01*
X52855Y23848D01*
X52933Y23926D01*
X53022Y24025D01*
X53111Y24170D01*
X53188Y24336D01*
X53244Y24525D01*
X53266Y24636D01*
Y24758D01*
Y24769D01*
Y24780D01*
Y24847D01*
X53244Y24936D01*
X53222Y25058D01*
X53177Y25191D01*
X53122Y25335D01*
X53033Y25480D01*
X52911Y25613D01*
X52900Y25624D01*
X52844Y25668D01*
X52766Y25724D01*
X52667Y25790D01*
X52533Y25846D01*
X52378Y25901D01*
X52200Y25946D01*
X52001Y25957D01*
X51912D01*
X51812Y25935D01*
X51679Y25912D01*
X51534Y25868D01*
X51390Y25812D01*
X51235Y25724D01*
X51090Y25613D01*
X51079Y25602D01*
X51035Y25546D01*
X50968Y25468D01*
X50891Y25357D01*
X50813Y25213D01*
X50735Y25036D01*
X50669Y24825D01*
X50624Y24581D01*
X49681Y24747D01*
Y24758D01*
X49692Y24791D01*
X49703Y24836D01*
X49714Y24902D01*
X49736Y24980D01*
X49770Y25069D01*
X49836Y25280D01*
X49947Y25524D01*
X50080Y25768D01*
X50247Y26001D01*
X50458Y26212D01*
X50469Y26223D01*
X50491Y26234D01*
X50524Y26256D01*
X50569Y26290D01*
X50624Y26334D01*
X50702Y26379D01*
X50780Y26423D01*
X50880Y26479D01*
X51101Y26567D01*
X51357Y26656D01*
X51656Y26712D01*
X51812Y26734D01*
X52089D01*
X52211Y26723D01*
D02*
G37*
%LPC*%
G36*
X159485Y145170D02*
X157288D01*
Y142429D01*
X159352D01*
X159430Y142440D01*
X159508D01*
X159596Y142451D01*
X159807Y142473D01*
X160040Y142517D01*
X160273Y142584D01*
X160484Y142673D01*
X160584Y142728D01*
X160662Y142795D01*
X160684Y142817D01*
X160728Y142862D01*
X160795Y142950D01*
X160873Y143061D01*
X160951Y143206D01*
X161017Y143383D01*
X161061Y143583D01*
X161084Y143816D01*
Y143827D01*
Y143838D01*
Y143894D01*
X161073Y143994D01*
X161050Y144105D01*
X161028Y144227D01*
X160984Y144371D01*
X160917Y144504D01*
X160840Y144638D01*
X160828Y144649D01*
X160795Y144693D01*
X160740Y144749D01*
X160673Y144826D01*
X160573Y144904D01*
X160462Y144971D01*
X160340Y145037D01*
X160196Y145093D01*
X160185D01*
X160140Y145104D01*
X160074Y145115D01*
X159985Y145137D01*
X159852Y145148D01*
X159685Y145159D01*
X159485Y145170D01*
D02*
G37*
G36*
X25159Y152912D02*
X22740D01*
Y150371D01*
X25026D01*
X25159Y150382D01*
X25315Y150393D01*
X25492Y150404D01*
X25670Y150426D01*
X25848Y150459D01*
X26003Y150504D01*
X26025Y150515D01*
X26070Y150537D01*
X26136Y150570D01*
X26225Y150615D01*
X26325Y150681D01*
X26425Y150759D01*
X26525Y150859D01*
X26602Y150970D01*
X26614Y150981D01*
X26636Y151025D01*
X26669Y151092D01*
X26714Y151181D01*
X26747Y151281D01*
X26780Y151392D01*
X26802Y151525D01*
X26813Y151658D01*
Y151669D01*
Y151680D01*
X26802Y151747D01*
X26791Y151847D01*
X26769Y151980D01*
X26714Y152113D01*
X26647Y152269D01*
X26547Y152413D01*
X26414Y152557D01*
X26392Y152568D01*
X26336Y152613D01*
X26247Y152668D01*
X26103Y152735D01*
X25937Y152801D01*
X25714Y152857D01*
X25459Y152901D01*
X25159Y152912D01*
D02*
G37*
G36*
X8677Y152846D02*
X6258D01*
Y150304D01*
X8544D01*
X8677Y150315D01*
X8833Y150326D01*
X9010Y150337D01*
X9188Y150359D01*
X9365Y150393D01*
X9521Y150437D01*
X9543Y150448D01*
X9587Y150471D01*
X9654Y150504D01*
X9743Y150548D01*
X9843Y150615D01*
X9943Y150693D01*
X10043Y150792D01*
X10120Y150903D01*
X10131Y150914D01*
X10153Y150959D01*
X10187Y151025D01*
X10231Y151114D01*
X10265Y151214D01*
X10298Y151325D01*
X10320Y151458D01*
X10331Y151592D01*
Y151603D01*
Y151614D01*
X10320Y151680D01*
X10309Y151780D01*
X10287Y151913D01*
X10231Y152047D01*
X10165Y152202D01*
X10065Y152346D01*
X9931Y152491D01*
X9909Y152502D01*
X9854Y152546D01*
X9765Y152602D01*
X9621Y152668D01*
X9454Y152735D01*
X9232Y152790D01*
X8977Y152835D01*
X8677Y152846D01*
D02*
G37*
G36*
X47065Y169221D02*
X46998D01*
X46954Y169210D01*
X46843Y169199D01*
X46687Y169165D01*
X46521Y169110D01*
X46332Y169021D01*
X46155Y168910D01*
X45977Y168755D01*
X45955Y168732D01*
X45911Y168677D01*
X45833Y168577D01*
X45755Y168433D01*
X45677Y168266D01*
X45600Y168055D01*
X45555Y167822D01*
X45533Y167556D01*
Y167534D01*
Y167478D01*
X45544Y167378D01*
X45555Y167256D01*
X45578Y167112D01*
X45622Y166956D01*
X45666Y166790D01*
X45733Y166623D01*
X45744Y166601D01*
X45777Y166546D01*
X45822Y166468D01*
X45888Y166368D01*
X45966Y166268D01*
X46066Y166146D01*
X46177Y166046D01*
X46310Y165946D01*
X46332Y165935D01*
X46377Y165913D01*
X46454Y165869D01*
X46554Y165835D01*
X46665Y165791D01*
X46799Y165747D01*
X46943Y165724D01*
X47098Y165713D01*
X47154D01*
X47198Y165724D01*
X47309Y165735D01*
X47453Y165769D01*
X47609Y165835D01*
X47786Y165913D01*
X47964Y166035D01*
X48053Y166102D01*
X48130Y166190D01*
Y166202D01*
X48153Y166213D01*
X48197Y166279D01*
X48264Y166390D01*
X48352Y166535D01*
X48430Y166723D01*
X48497Y166945D01*
X48541Y167201D01*
X48563Y167500D01*
Y167511D01*
Y167534D01*
Y167578D01*
X48552Y167633D01*
Y167700D01*
X48541Y167778D01*
X48508Y167955D01*
X48464Y168155D01*
X48386Y168366D01*
X48275Y168566D01*
X48130Y168755D01*
X48108Y168777D01*
X48053Y168832D01*
X47964Y168899D01*
X47842Y168988D01*
X47687Y169076D01*
X47509Y169143D01*
X47298Y169199D01*
X47065Y169221D01*
D02*
G37*
G36*
X62150Y169271D02*
X62083D01*
X62038Y169260D01*
X61927Y169249D01*
X61772Y169215D01*
X61606Y169160D01*
X61417Y169071D01*
X61239Y168960D01*
X61062Y168805D01*
X61040Y168782D01*
X60995Y168727D01*
X60918Y168627D01*
X60840Y168483D01*
X60762Y168316D01*
X60684Y168105D01*
X60640Y167872D01*
X60618Y167606D01*
Y167584D01*
Y167528D01*
X60629Y167428D01*
X60640Y167306D01*
X60662Y167162D01*
X60707Y167006D01*
X60751Y166840D01*
X60818Y166673D01*
X60829Y166651D01*
X60862Y166596D01*
X60906Y166518D01*
X60973Y166418D01*
X61051Y166318D01*
X61151Y166196D01*
X61262Y166096D01*
X61395Y165996D01*
X61417Y165985D01*
X61461Y165963D01*
X61539Y165919D01*
X61639Y165885D01*
X61750Y165841D01*
X61883Y165797D01*
X62027Y165774D01*
X62183Y165763D01*
X62238D01*
X62283Y165774D01*
X62394Y165785D01*
X62538Y165819D01*
X62693Y165885D01*
X62871Y165963D01*
X63049Y166085D01*
X63137Y166152D01*
X63215Y166241D01*
Y166252D01*
X63237Y166263D01*
X63282Y166329D01*
X63348Y166440D01*
X63437Y166585D01*
X63515Y166773D01*
X63581Y166995D01*
X63626Y167251D01*
X63648Y167550D01*
Y167561D01*
Y167584D01*
Y167628D01*
X63637Y167684D01*
Y167750D01*
X63626Y167828D01*
X63593Y168005D01*
X63548Y168205D01*
X63470Y168416D01*
X63359Y168616D01*
X63215Y168805D01*
X63193Y168827D01*
X63137Y168882D01*
X63049Y168949D01*
X62927Y169038D01*
X62771Y169126D01*
X62593Y169193D01*
X62383Y169249D01*
X62150Y169271D01*
D02*
G37*
G36*
X55667Y171946D02*
X53247D01*
Y169404D01*
X55534D01*
X55667Y169415D01*
X55823Y169426D01*
X56000Y169437D01*
X56178Y169459D01*
X56355Y169493D01*
X56511Y169537D01*
X56533Y169548D01*
X56577Y169571D01*
X56644Y169604D01*
X56733Y169648D01*
X56833Y169715D01*
X56933Y169792D01*
X57032Y169892D01*
X57110Y170003D01*
X57121Y170014D01*
X57144Y170059D01*
X57177Y170125D01*
X57221Y170214D01*
X57255Y170314D01*
X57288Y170425D01*
X57310Y170558D01*
X57321Y170692D01*
Y170703D01*
Y170714D01*
X57310Y170780D01*
X57299Y170880D01*
X57277Y171013D01*
X57221Y171147D01*
X57155Y171302D01*
X57055Y171446D01*
X56922Y171591D01*
X56899Y171602D01*
X56844Y171646D01*
X56755Y171702D01*
X56611Y171768D01*
X56444Y171835D01*
X56222Y171890D01*
X55967Y171935D01*
X55667Y171946D01*
D02*
G37*
G36*
X78006Y171219D02*
X75586Y167778D01*
X78006D01*
Y171219D01*
D02*
G37*
G36*
X85621Y171879D02*
X83201D01*
Y169337D01*
X85488D01*
X85621Y169349D01*
X85776Y169360D01*
X85954Y169371D01*
X86131Y169393D01*
X86309Y169426D01*
X86465Y169471D01*
X86487Y169482D01*
X86531Y169504D01*
X86598Y169537D01*
X86686Y169582D01*
X86786Y169648D01*
X86886Y169726D01*
X86986Y169826D01*
X87064Y169937D01*
X87075Y169948D01*
X87097Y169992D01*
X87130Y170059D01*
X87175Y170148D01*
X87208Y170247D01*
X87241Y170359D01*
X87264Y170492D01*
X87275Y170625D01*
Y170636D01*
Y170647D01*
X87264Y170714D01*
X87253Y170814D01*
X87230Y170947D01*
X87175Y171080D01*
X87108Y171235D01*
X87008Y171380D01*
X86875Y171524D01*
X86853Y171535D01*
X86798Y171579D01*
X86709Y171635D01*
X86564Y171702D01*
X86398Y171768D01*
X86176Y171824D01*
X85921Y171868D01*
X85621Y171879D01*
D02*
G37*
G36*
X105790Y171219D02*
X103370Y167778D01*
X105790D01*
Y171219D01*
D02*
G37*
G36*
X98864Y171896D02*
X96444D01*
Y169354D01*
X98731D01*
X98864Y169365D01*
X99019Y169376D01*
X99197Y169387D01*
X99375Y169410D01*
X99552Y169443D01*
X99707Y169487D01*
X99730Y169498D01*
X99774Y169520D01*
X99841Y169554D01*
X99930Y169598D01*
X100029Y169665D01*
X100129Y169743D01*
X100229Y169842D01*
X100307Y169953D01*
X100318Y169965D01*
X100340Y170009D01*
X100373Y170075D01*
X100418Y170164D01*
X100451Y170264D01*
X100485Y170375D01*
X100507Y170508D01*
X100518Y170642D01*
Y170653D01*
Y170664D01*
X100507Y170730D01*
X100496Y170830D01*
X100473Y170963D01*
X100418Y171097D01*
X100351Y171252D01*
X100251Y171396D01*
X100118Y171541D01*
X100096Y171552D01*
X100041Y171596D01*
X99952Y171652D01*
X99807Y171718D01*
X99641Y171785D01*
X99419Y171840D01*
X99164Y171885D01*
X98864Y171896D01*
D02*
G37*
G36*
X83646Y81709D02*
X81226D01*
Y79167D01*
X83513D01*
X83646Y79179D01*
X83801Y79190D01*
X83979Y79201D01*
X84157Y79223D01*
X84334Y79256D01*
X84490Y79301D01*
X84512Y79312D01*
X84556Y79334D01*
X84623Y79367D01*
X84712Y79412D01*
X84812Y79478D01*
X84911Y79556D01*
X85011Y79656D01*
X85089Y79767D01*
X85100Y79778D01*
X85122Y79822D01*
X85156Y79889D01*
X85200Y79978D01*
X85233Y80077D01*
X85267Y80189D01*
X85289Y80322D01*
X85300Y80455D01*
Y80466D01*
Y80477D01*
X85289Y80544D01*
X85278Y80644D01*
X85256Y80777D01*
X85200Y80910D01*
X85133Y81065D01*
X85034Y81210D01*
X84900Y81354D01*
X84878Y81365D01*
X84823Y81410D01*
X84734Y81465D01*
X84590Y81532D01*
X84423Y81598D01*
X84201Y81654D01*
X83946Y81698D01*
X83646Y81709D01*
D02*
G37*
G36*
X54397Y77966D02*
X51978D01*
Y75424D01*
X54264D01*
X54397Y75435D01*
X54553Y75446D01*
X54730Y75457D01*
X54908Y75479D01*
X55085Y75513D01*
X55241Y75557D01*
X55263Y75568D01*
X55307Y75591D01*
X55374Y75624D01*
X55463Y75668D01*
X55563Y75735D01*
X55663Y75812D01*
X55763Y75912D01*
X55840Y76023D01*
X55851Y76034D01*
X55873Y76079D01*
X55907Y76145D01*
X55951Y76234D01*
X55985Y76334D01*
X56018Y76445D01*
X56040Y76578D01*
X56051Y76712D01*
Y76723D01*
Y76734D01*
X56040Y76800D01*
X56029Y76900D01*
X56007Y77033D01*
X55951Y77167D01*
X55885Y77322D01*
X55785Y77466D01*
X55651Y77611D01*
X55629Y77622D01*
X55574Y77666D01*
X55485Y77722D01*
X55341Y77788D01*
X55174Y77855D01*
X54952Y77910D01*
X54697Y77955D01*
X54397Y77966D01*
D02*
G37*
G36*
X36712Y77844D02*
X34936D01*
Y71983D01*
X36756D01*
X36834Y71994D01*
X37000Y72005D01*
X37189Y72016D01*
X37389Y72038D01*
X37589Y72072D01*
X37755Y72116D01*
X37777Y72127D01*
X37833Y72138D01*
X37910Y72172D01*
X38010Y72216D01*
X38121Y72283D01*
X38232Y72349D01*
X38343Y72427D01*
X38454Y72516D01*
X38465Y72538D01*
X38510Y72582D01*
X38576Y72660D01*
X38654Y72771D01*
X38743Y72915D01*
X38843Y73082D01*
X38932Y73271D01*
X39009Y73481D01*
Y73493D01*
X39020Y73515D01*
X39032Y73548D01*
X39043Y73593D01*
X39054Y73648D01*
X39076Y73726D01*
X39098Y73803D01*
X39120Y73892D01*
X39154Y74114D01*
X39187Y74370D01*
X39209Y74658D01*
X39220Y74969D01*
Y74980D01*
Y75024D01*
Y75080D01*
X39209Y75169D01*
Y75269D01*
X39198Y75380D01*
X39187Y75513D01*
X39176Y75646D01*
X39120Y75946D01*
X39054Y76256D01*
X38954Y76545D01*
X38887Y76689D01*
X38821Y76811D01*
Y76823D01*
X38798Y76845D01*
X38776Y76878D01*
X38754Y76922D01*
X38665Y77033D01*
X38554Y77167D01*
X38410Y77311D01*
X38243Y77455D01*
X38055Y77577D01*
X37855Y77677D01*
X37833Y77688D01*
X37777Y77699D01*
X37677Y77733D01*
X37533Y77766D01*
X37355Y77788D01*
X37133Y77821D01*
X37000Y77833D01*
X36856D01*
X36712Y77844D01*
D02*
G37*
G36*
X189244Y67867D02*
X189155D01*
X189055Y67845D01*
X188922Y67822D01*
X188778Y67778D01*
X188622Y67723D01*
X188478Y67634D01*
X188334Y67512D01*
X188323Y67501D01*
X188278Y67456D01*
X188223Y67379D01*
X188167Y67279D01*
X188101Y67157D01*
X188045Y67012D01*
X188001Y66857D01*
X187990Y66679D01*
Y66668D01*
Y66657D01*
X188001Y66590D01*
X188012Y66491D01*
X188034Y66368D01*
X188078Y66224D01*
X188134Y66080D01*
X188223Y65924D01*
X188334Y65791D01*
X188345Y65780D01*
X188400Y65736D01*
X188478Y65680D01*
X188578Y65625D01*
X188711Y65558D01*
X188867Y65503D01*
X189044Y65458D01*
X189244Y65447D01*
X189266D01*
X189333Y65458D01*
X189433Y65469D01*
X189566Y65491D01*
X189710Y65536D01*
X189854Y65591D01*
X190010Y65680D01*
X190143Y65791D01*
X190154Y65802D01*
X190198Y65858D01*
X190254Y65924D01*
X190321Y66024D01*
X190387Y66146D01*
X190443Y66291D01*
X190487Y66457D01*
X190498Y66635D01*
Y66646D01*
Y66657D01*
Y66724D01*
X190476Y66824D01*
X190454Y66946D01*
X190409Y67079D01*
X190343Y67223D01*
X190254Y67367D01*
X190132Y67512D01*
X190121Y67523D01*
X190065Y67567D01*
X189988Y67623D01*
X189888Y67689D01*
X189755Y67756D01*
X189610Y67811D01*
X189433Y67856D01*
X189244Y67867D01*
D02*
G37*
G36*
X189211Y64681D02*
X189144D01*
X189100Y64670D01*
X188978Y64659D01*
X188822Y64626D01*
X188645Y64570D01*
X188467Y64493D01*
X188278Y64381D01*
X188112Y64237D01*
X188090Y64215D01*
X188045Y64159D01*
X187978Y64060D01*
X187901Y63938D01*
X187812Y63771D01*
X187745Y63582D01*
X187701Y63371D01*
X187679Y63138D01*
Y63116D01*
Y63072D01*
X187690Y62994D01*
X187701Y62894D01*
X187723Y62772D01*
X187757Y62639D01*
X187801Y62506D01*
X187856Y62361D01*
X187868Y62350D01*
X187890Y62295D01*
X187934Y62228D01*
X188001Y62150D01*
X188078Y62050D01*
X188178Y61951D01*
X188289Y61862D01*
X188423Y61773D01*
X188445Y61762D01*
X188489Y61740D01*
X188567Y61707D01*
X188667Y61673D01*
X188789Y61640D01*
X188933Y61607D01*
X189088Y61584D01*
X189244Y61573D01*
X189310D01*
X189355Y61584D01*
X189488Y61596D01*
X189643Y61629D01*
X189821Y61684D01*
X190010Y61751D01*
X190187Y61862D01*
X190365Y62006D01*
X190387Y62028D01*
X190432Y62084D01*
X190509Y62184D01*
X190587Y62306D01*
X190665Y62461D01*
X190742Y62650D01*
X190787Y62872D01*
X190809Y63105D01*
Y63116D01*
Y63138D01*
Y63172D01*
X190798Y63216D01*
X190787Y63338D01*
X190753Y63505D01*
X190698Y63671D01*
X190620Y63860D01*
X190509Y64049D01*
X190354Y64226D01*
X190332Y64248D01*
X190276Y64293D01*
X190176Y64370D01*
X190043Y64459D01*
X189877Y64537D01*
X189677Y64615D01*
X189455Y64659D01*
X189211Y64681D01*
D02*
G37*
G36*
X162696Y67867D02*
X162518D01*
X162474Y67856D01*
X162352Y67845D01*
X162208Y67800D01*
X162030Y67745D01*
X161841Y67645D01*
X161653Y67523D01*
X161564Y67434D01*
X161475Y67345D01*
Y67334D01*
X161453Y67323D01*
X161431Y67290D01*
X161408Y67256D01*
X161331Y67145D01*
X161253Y66990D01*
X161164Y66801D01*
X161087Y66568D01*
X161042Y66302D01*
X161020Y66013D01*
Y66002D01*
Y65980D01*
Y65947D01*
X161031Y65891D01*
Y65824D01*
X161042Y65758D01*
X161075Y65591D01*
X161131Y65403D01*
X161197Y65203D01*
X161308Y65003D01*
X161453Y64826D01*
X161475Y64803D01*
X161530Y64759D01*
X161630Y64681D01*
X161752Y64604D01*
X161919Y64515D01*
X162108Y64437D01*
X162319Y64393D01*
X162552Y64370D01*
X162618D01*
X162663Y64381D01*
X162785Y64393D01*
X162929Y64426D01*
X163107Y64481D01*
X163284Y64559D01*
X163462Y64670D01*
X163628Y64826D01*
X163651Y64848D01*
X163695Y64914D01*
X163762Y65014D01*
X163850Y65159D01*
X163928Y65336D01*
X163995Y65547D01*
X164039Y65802D01*
X164061Y66091D01*
Y66102D01*
Y66124D01*
Y66169D01*
X164050Y66224D01*
Y66302D01*
X164039Y66379D01*
X164006Y66557D01*
X163961Y66768D01*
X163884Y66990D01*
X163773Y67201D01*
X163628Y67390D01*
Y67401D01*
X163606Y67412D01*
X163551Y67467D01*
X163462Y67545D01*
X163340Y67634D01*
X163184Y67711D01*
X163007Y67789D01*
X162807Y67845D01*
X162696Y67867D01*
D02*
G37*
%LPD*%
D10*
X70130Y94980D02*
G03*
X70130Y94980I-500J0D01*
G01*
X69630Y123980D02*
Y127980D01*
Y128980D01*
X75630D01*
X93630D02*
X98630D01*
X99630D01*
Y123980D02*
Y128980D01*
X69630Y85980D02*
Y90980D01*
Y84980D02*
Y85980D01*
Y84980D02*
X75630D01*
X99630D02*
Y90980D01*
X94630Y84980D02*
X99630D01*
X196970Y56520D02*
Y75520D01*
X113970Y56520D02*
X196970D01*
X113970D02*
Y75520D01*
X196970Y116520D02*
Y134520D01*
X113970D02*
X196970D01*
X113970Y117520D02*
Y134520D01*
X20320Y78650D02*
Y92620D01*
X16510Y85000D02*
X20320Y78650D01*
X16510Y85000D02*
X24130D01*
X20320Y78650D02*
X24130Y85000D01*
X27320Y51680D02*
X33320D01*
Y59680D01*
X7320Y51680D02*
X13320D01*
X7320D02*
Y59680D01*
Y110680D02*
Y118680D01*
X13320D01*
X33320Y110680D02*
Y118680D01*
X27320D02*
X33320D01*
D11*
X51562Y136398D02*
X65278D01*
X51562Y108712D02*
X65278D01*
X51562Y125730D02*
Y136398D01*
X65278Y125730D02*
Y136398D01*
Y108712D02*
Y118110D01*
X51562Y108712D02*
Y118110D01*
X36322Y136398D02*
X50038D01*
X36322Y108712D02*
X50038D01*
X36322Y125730D02*
Y136398D01*
X50038Y125730D02*
Y136398D01*
Y108712D02*
Y118110D01*
X36322Y108712D02*
Y118110D01*
Y163068D02*
X50038D01*
X36322Y135382D02*
X50038D01*
Y163068D01*
X36322Y135382D02*
Y162814D01*
X51562Y163068D02*
X65278D01*
X51562Y135382D02*
X65278D01*
X51562Y152400D02*
Y163068D01*
X65278Y152400D02*
Y163068D01*
Y135382D02*
Y144780D01*
X51562Y135382D02*
Y144780D01*
X66802Y161798D02*
X80518D01*
X66802Y134112D02*
X80518D01*
Y161798D01*
X66802Y134112D02*
Y161544D01*
X80772Y134112D02*
X94488D01*
X80772Y161798D02*
X94488D01*
Y134112D02*
Y144780D01*
X80772Y134112D02*
Y144780D01*
Y152400D02*
Y161798D01*
X94488Y152400D02*
Y161798D01*
X94742D02*
X108458D01*
X94742Y134112D02*
X108458D01*
X94742Y151130D02*
Y161798D01*
X108458Y151130D02*
Y161798D01*
Y134112D02*
Y143510D01*
X94742Y134112D02*
Y143510D01*
X108712Y134112D02*
X122428D01*
X108712Y161798D02*
X122428D01*
X108712Y134112D02*
Y161798D01*
X122428Y134366D02*
Y161798D01*
X51562Y109728D02*
X65278D01*
X51562Y82042D02*
X65278D01*
X51562Y99060D02*
Y109728D01*
X65278Y99060D02*
Y109728D01*
Y82042D02*
Y91440D01*
X51562Y82042D02*
Y91440D01*
X36322Y82042D02*
X50038D01*
X36322Y109728D02*
X50038D01*
Y82042D02*
Y92710D01*
X36322Y82042D02*
Y92710D01*
Y100330D02*
Y109728D01*
X50038Y100330D02*
Y109728D01*
X73152Y59182D02*
Y72898D01*
X100838Y59182D02*
Y72898D01*
X73152D02*
X100838D01*
X73406Y59182D02*
X100838D01*
X177292Y10414D02*
X196088D01*
X177292Y55626D02*
X196088D01*
X177292Y10414D02*
Y55626D01*
X196088Y10414D02*
Y55626D01*
X150622Y10414D02*
X169418D01*
X150622Y55626D02*
X169418D01*
X150622Y10414D02*
Y55626D01*
X169418Y10414D02*
Y55626D01*
X123952Y10414D02*
X142748D01*
X123952Y55626D02*
X142748D01*
X123952Y10414D02*
Y55626D01*
X142748Y10414D02*
Y55626D01*
D12*
X58420Y31750D02*
Y57150D01*
X118110Y31750D02*
Y57150D01*
X58420Y31750D02*
X77470D01*
X58420Y57150D02*
X77470D01*
X99060D02*
X118110D01*
X99060Y31750D02*
X118110D01*
X99060Y8890D02*
X118110D01*
X99060Y34290D02*
X118110D01*
X58420D02*
X77470D01*
X58420Y8890D02*
X77470D01*
X118110D02*
Y34290D01*
X58420Y8890D02*
Y34290D01*
M02*
