G04*
G04 #@! TF.GenerationSoftware,Altium Limited,Altium Designer,22.0.2 (36)*
G04*
G04 Layer_Color=8421504*
%FSLAX44Y44*%
%MOMM*%
G71*
G04*
G04 #@! TF.SameCoordinates,AA8787E4-6BF2-44C4-880E-DB6B4E9B3A54*
G04*
G04*
G04 #@! TF.FilePolarity,Positive*
G04*
G01*
G75*
%ADD13R,0.3000X1.3000*%
%ADD14R,0.7620X0.7620*%
%ADD15R,2.1940X3.4200*%
%ADD16R,0.7620X0.7620*%
%ADD17R,2.0000X1.8000*%
%ADD18R,1.2700X1.5240*%
%ADD19R,1.5240X1.5240*%
D13*
X74630Y119980D02*
D03*
X81130D02*
D03*
X87630D02*
D03*
X94130D02*
D03*
X74630Y93980D02*
D03*
X81130D02*
D03*
X87630D02*
D03*
X94130D02*
D03*
D14*
X58420Y129540D02*
D03*
Y115570D02*
D03*
X43180Y129540D02*
D03*
Y115570D02*
D03*
Y156210D02*
D03*
Y142240D02*
D03*
X58420Y156210D02*
D03*
Y142240D02*
D03*
X73660Y154940D02*
D03*
Y140970D02*
D03*
X87630D02*
D03*
Y154940D02*
D03*
X101600D02*
D03*
Y140970D02*
D03*
X115570D02*
D03*
Y154940D02*
D03*
X58420Y102870D02*
D03*
Y88900D02*
D03*
X43180D02*
D03*
Y102870D02*
D03*
D15*
X190970Y96520D02*
D03*
X118110D02*
D03*
D16*
X80010Y66040D02*
D03*
X93980D02*
D03*
D17*
X20320Y64680D02*
D03*
Y106680D02*
D03*
D18*
X186690Y21590D02*
D03*
Y44450D02*
D03*
X160020Y21590D02*
D03*
Y44450D02*
D03*
X133350Y21590D02*
D03*
Y44450D02*
D03*
D19*
X71120D02*
D03*
X105410D02*
D03*
Y21590D02*
D03*
X71120D02*
D03*
M02*
