G04*
G04 #@! TF.GenerationSoftware,Altium Limited,Altium Designer,22.0.2 (36)*
G04*
G04 Layer_Color=128*
%FSLAX44Y44*%
%MOMM*%
G71*
G04*
G04 #@! TF.SameCoordinates,AA8787E4-6BF2-44C4-880E-DB6B4E9B3A54*
G04*
G04*
G04 #@! TF.FilePolarity,Positive*
G04*
G01*
G75*
%ADD32C,0.0508*%
D32*
X218520Y17780D02*
X228520D01*
X223520Y12780D02*
Y22780D01*
X15320Y40640D02*
X25320D01*
X20320Y35640D02*
Y45640D01*
X15320Y132080D02*
X25320D01*
X20320Y127080D02*
Y137080D01*
X15320Y168910D02*
X25320D01*
X20320Y163910D02*
Y173910D01*
X15320Y17780D02*
X25320D01*
X20320Y12780D02*
Y22780D01*
X218520Y132080D02*
X228520D01*
X223520Y127080D02*
Y137080D01*
X218520Y154940D02*
X228520D01*
X223520Y149940D02*
Y159940D01*
X218520Y40640D02*
X228520D01*
X223520Y35640D02*
Y45640D01*
X6120Y125730D02*
X9120D01*
X7620Y124230D02*
Y127230D01*
X28980Y140970D02*
X31980D01*
X30480Y139470D02*
Y142470D01*
X197890Y69850D02*
X200890D01*
X199390Y68350D02*
Y71350D01*
X7390Y158750D02*
X10390D01*
X8890Y157250D02*
Y160250D01*
X40410Y63500D02*
X43410D01*
X41910Y62000D02*
Y65000D01*
X56920Y168910D02*
X59920D01*
X58420Y167410D02*
Y170410D01*
X86130Y166370D02*
X89130D01*
X87630Y164870D02*
Y167870D01*
X103910Y8890D02*
X106910D01*
X105410Y7390D02*
Y10390D01*
X130580Y8890D02*
X133580D01*
X132080Y7390D02*
Y10390D01*
X155980Y8890D02*
X158980D01*
X157480Y7390D02*
Y10390D01*
X180110Y8890D02*
X183110D01*
X181610Y7390D02*
Y10390D01*
X227100Y175260D02*
X230100D01*
X228600Y173760D02*
Y176760D01*
X214400Y175260D02*
X217400D01*
X215900Y173760D02*
Y176760D01*
M02*
