G04*
G04 #@! TF.GenerationSoftware,Altium Limited,Altium Designer,22.0.2 (36)*
G04*
G04 Layer_Color=2752767*
%FSLAX44Y44*%
%MOMM*%
G71*
G04*
G04 #@! TF.SameCoordinates,AA8787E4-6BF2-44C4-880E-DB6B4E9B3A54*
G04*
G04*
G04 #@! TF.FilePolarity,Positive*
G04*
G01*
G75*
%ADD10C,0.2540*%
%ADD11C,0.1524*%
%ADD32C,0.0508*%
%ADD33C,0.0677*%
%ADD34C,0.4064*%
D10*
X391657Y140899D02*
X395656D01*
X393657D01*
Y152895D01*
X391657Y150896D01*
X401654D02*
X403653Y152895D01*
X407652D01*
X409651Y150896D01*
Y148896D01*
X407652Y146897D01*
X405653D01*
X407652D01*
X409651Y144897D01*
Y142898D01*
X407652Y140899D01*
X403653D01*
X401654Y142898D01*
X533412Y150896D02*
X535411Y152895D01*
X539410D01*
X541409Y150896D01*
Y142898D01*
X539410Y140899D01*
X535411D01*
X533412Y142898D01*
Y150896D01*
X545408Y140899D02*
Y142898D01*
X547407D01*
Y140899D01*
X545408D01*
X555405Y150896D02*
X557404Y152895D01*
X561403D01*
X563402Y150896D01*
Y148896D01*
X561403Y146897D01*
X559403D01*
X561403D01*
X563402Y144897D01*
Y142898D01*
X561403Y140899D01*
X557404D01*
X555405Y142898D01*
X567401Y140899D02*
Y148896D01*
X569400D01*
X571400Y146897D01*
Y140899D01*
Y146897D01*
X573399Y148896D01*
X575398Y146897D01*
Y140899D01*
X579397D02*
Y148896D01*
X581396D01*
X583396Y146897D01*
Y140899D01*
Y146897D01*
X585395Y148896D01*
X587394Y146897D01*
Y140899D01*
X607388D02*
X603389Y144897D01*
Y148896D01*
X607388Y152895D01*
X613386Y140899D02*
X617385D01*
X615385D01*
Y152895D01*
X613386Y150896D01*
X623383Y140899D02*
X627382D01*
X625382D01*
Y152895D01*
X623383Y150896D01*
X633380Y140899D02*
Y142898D01*
X635379D01*
Y140899D01*
X633380D01*
X643376Y150896D02*
X645376Y152895D01*
X649374D01*
X651374Y150896D01*
Y148896D01*
X649374Y146897D01*
X651374Y144897D01*
Y142898D01*
X649374Y140899D01*
X645376D01*
X643376Y142898D01*
Y144897D01*
X645376Y146897D01*
X643376Y148896D01*
Y150896D01*
X645376Y146897D02*
X649374D01*
X655372Y140899D02*
X659371D01*
X657372D01*
Y152895D01*
X655372Y150896D01*
X665369Y140899D02*
X669368D01*
X667369D01*
Y152895D01*
X665369Y150896D01*
X675366Y140899D02*
Y148896D01*
X677365D01*
X679365Y146897D01*
Y140899D01*
Y146897D01*
X681364Y148896D01*
X683363Y146897D01*
Y140899D01*
X687362D02*
X691361D01*
X689362D01*
Y148896D01*
X687362D01*
X697359Y140899D02*
X701358D01*
X699358D01*
Y152895D01*
X697359D01*
X707356Y140899D02*
X711355Y144897D01*
Y148896D01*
X707356Y152895D01*
X804725Y140899D02*
Y152895D01*
X810723D01*
X812722Y150896D01*
Y146897D01*
X810723Y144897D01*
X804725D01*
X816721Y152895D02*
X824718D01*
X820720D01*
Y140899D01*
X828717Y152895D02*
Y140899D01*
Y146897D01*
X836714D01*
Y152895D01*
Y140899D01*
X908092D02*
Y152895D01*
X914090D01*
X916089Y150896D01*
Y146897D01*
X914090Y144897D01*
X908092D01*
X912091D02*
X916089Y140899D01*
X922087D02*
X926086D01*
X928085Y142898D01*
Y146897D01*
X926086Y148896D01*
X922087D01*
X920088Y146897D01*
Y142898D01*
X922087Y140899D01*
X932084Y148896D02*
Y142898D01*
X934084Y140899D01*
X940082D01*
Y148896D01*
X944080Y140899D02*
Y148896D01*
X950078D01*
X952078Y146897D01*
Y140899D01*
X964074Y152895D02*
Y140899D01*
X958076D01*
X956076Y142898D01*
Y146897D01*
X958076Y148896D01*
X964074D01*
X391657Y126896D02*
X393657Y128895D01*
X397655D01*
X399655Y126896D01*
Y124896D01*
X397655Y122897D01*
X399655Y120897D01*
Y118898D01*
X397655Y116899D01*
X393657D01*
X391657Y118898D01*
Y120897D01*
X393657Y122897D01*
X391657Y124896D01*
Y126896D01*
X393657Y122897D02*
X397655D01*
X533412Y116899D02*
X537411D01*
X535411D01*
Y128895D01*
X533412Y126896D01*
X543409Y116899D02*
Y124896D01*
X545408D01*
X547407Y122897D01*
Y116899D01*
Y122897D01*
X549407Y124896D01*
X551406Y122897D01*
Y116899D01*
X555405D02*
Y124896D01*
X557404D01*
X559403Y122897D01*
Y116899D01*
Y122897D01*
X561403Y124896D01*
X563402Y122897D01*
Y116899D01*
X583396D02*
X579397Y120897D01*
Y124896D01*
X583396Y128895D01*
X589394Y126896D02*
X591393Y128895D01*
X595392D01*
X597391Y126896D01*
Y124896D01*
X595392Y122897D01*
X593392D01*
X595392D01*
X597391Y120897D01*
Y118898D01*
X595392Y116899D01*
X591393D01*
X589394Y118898D01*
X601390D02*
X603389Y116899D01*
X607388D01*
X609387Y118898D01*
Y126896D01*
X607388Y128895D01*
X603389D01*
X601390Y126896D01*
Y124896D01*
X603389Y122897D01*
X609387D01*
X613386Y116899D02*
Y118898D01*
X615385D01*
Y116899D01*
X613386D01*
X623383Y126896D02*
X625382Y128895D01*
X629381D01*
X631380Y126896D01*
Y124896D01*
X629381Y122897D01*
X627382D01*
X629381D01*
X631380Y120897D01*
Y118898D01*
X629381Y116899D01*
X625382D01*
X623383Y118898D01*
X635379Y128895D02*
X643376D01*
Y126896D01*
X635379Y118898D01*
Y116899D01*
X647375D02*
Y124896D01*
X649374D01*
X651374Y122897D01*
Y116899D01*
Y122897D01*
X653373Y124896D01*
X655372Y122897D01*
Y116899D01*
X659371D02*
X663370D01*
X661371D01*
Y124896D01*
X659371D01*
X669368Y116899D02*
X673367D01*
X671367D01*
Y128895D01*
X669368D01*
X679365Y116899D02*
X683363Y120897D01*
Y124896D01*
X679365Y128895D01*
X804725Y116899D02*
Y128895D01*
X810723D01*
X812722Y126896D01*
Y122897D01*
X810723Y120897D01*
X804725D01*
X816721Y128895D02*
X824718D01*
X820720D01*
Y116899D01*
X828717Y128895D02*
Y116899D01*
Y122897D01*
X836714D01*
Y128895D01*
Y116899D01*
X908092D02*
Y128895D01*
X914090D01*
X916089Y126896D01*
Y122897D01*
X914090Y120897D01*
X908092D01*
X912091D02*
X916089Y116899D01*
X922087D02*
X926086D01*
X928085Y118898D01*
Y122897D01*
X926086Y124896D01*
X922087D01*
X920088Y122897D01*
Y118898D01*
X922087Y116899D01*
X932084Y124896D02*
Y118898D01*
X934084Y116899D01*
X940082D01*
Y124896D01*
X944080Y116899D02*
Y124896D01*
X950078D01*
X952078Y122897D01*
Y116899D01*
X964074Y128895D02*
Y116899D01*
X958076D01*
X956076Y118898D01*
Y122897D01*
X958076Y124896D01*
X964074D01*
X399655Y92899D02*
X391657D01*
X399655Y100896D01*
Y102895D01*
X397655Y104895D01*
X393657D01*
X391657Y102895D01*
X403653Y92899D02*
X407652D01*
X405653D01*
Y104895D01*
X403653Y102895D01*
X431196Y104895D02*
X439193D01*
X435195D01*
Y92899D01*
X445191D02*
X449190D01*
X451189Y94898D01*
Y98897D01*
X449190Y100896D01*
X445191D01*
X443192Y98897D01*
Y94898D01*
X445191Y92899D01*
X457188Y102895D02*
Y100896D01*
X455188D01*
X459187D01*
X457188D01*
Y94898D01*
X459187Y92899D01*
X467184Y100896D02*
X471183D01*
X473182Y98897D01*
Y92899D01*
X467184D01*
X465185Y94898D01*
X467184Y96897D01*
X473182D01*
X477181Y92899D02*
X481180D01*
X479180D01*
Y104895D01*
X477181D01*
D11*
X297434Y146899D02*
G03*
X297434Y146899I-4572J0D01*
G01*
D32*
X221488Y15748D02*
Y19812D01*
X225552D01*
Y15748D01*
X221488D01*
X18288Y38608D02*
Y42672D01*
X22352D01*
Y38608D01*
X18288D01*
Y130048D02*
Y134112D01*
X22352D01*
Y130048D01*
X18288D01*
Y166878D02*
Y170942D01*
X22352D01*
Y166878D01*
X18288D01*
Y15748D02*
Y19812D01*
X22352D01*
Y15748D01*
X18288D01*
X221488Y130048D02*
Y134112D01*
X225552D01*
Y130048D01*
X221488D01*
Y152908D02*
Y156972D01*
X225552D01*
Y152908D01*
X221488D01*
Y38608D02*
Y42672D01*
X225552D01*
Y38608D01*
X221488D01*
X288290Y118327D02*
Y127471D01*
X297434D01*
Y118327D01*
X288290D01*
D33*
X9652Y125730D02*
G03*
X9652Y125730I-2032J0D01*
G01*
X32512Y140970D02*
G03*
X32512Y140970I-2032J0D01*
G01*
X201422Y69850D02*
G03*
X201422Y69850I-2032J0D01*
G01*
X10922Y158750D02*
G03*
X10922Y158750I-2032J0D01*
G01*
X43942Y63500D02*
G03*
X43942Y63500I-2032J0D01*
G01*
X60452Y168910D02*
G03*
X60452Y168910I-2032J0D01*
G01*
X89662Y166370D02*
G03*
X89662Y166370I-2032J0D01*
G01*
X107442Y8890D02*
G03*
X107442Y8890I-2032J0D01*
G01*
X134112D02*
G03*
X134112Y8890I-2032J0D01*
G01*
X159512D02*
G03*
X159512Y8890I-2032J0D01*
G01*
X183642D02*
G03*
X183642Y8890I-2032J0D01*
G01*
X230632Y175260D02*
G03*
X230632Y175260I-2032J0D01*
G01*
X217932D02*
G03*
X217932Y175260I-2032J0D01*
G01*
D34*
X297887Y181695D02*
X295488Y184094D01*
X290689D01*
X288290Y181695D01*
Y179296D01*
X290689Y176896D01*
X295488D01*
X297887Y174497D01*
Y172098D01*
X295488Y169699D01*
X290689D01*
X288290Y172098D01*
X302685Y179296D02*
Y172098D01*
X305085Y169699D01*
X312282D01*
Y167299D01*
X309883Y164900D01*
X307484D01*
X312282Y169699D02*
Y179296D01*
X317081Y169699D02*
Y179296D01*
X319480D01*
X321879Y176896D01*
Y169699D01*
Y176896D01*
X324278Y179296D01*
X326678Y176896D01*
Y169699D01*
X331476Y184094D02*
Y169699D01*
X338674D01*
X341073Y172098D01*
Y174497D01*
Y176896D01*
X338674Y179296D01*
X331476D01*
X348271Y169699D02*
X353069D01*
X355468Y172098D01*
Y176896D01*
X353069Y179296D01*
X348271D01*
X345871Y176896D01*
Y172098D01*
X348271Y169699D01*
X360267D02*
X365065D01*
X362666D01*
Y184094D01*
X360267D01*
X391657D02*
Y169699D01*
Y176896D01*
X401254D01*
Y184094D01*
Y169699D01*
X406053D02*
X410851D01*
X408452D01*
Y179296D01*
X406053D01*
X420448Y181695D02*
Y179296D01*
X418049D01*
X422847D01*
X420448D01*
Y172098D01*
X422847Y169699D01*
X454037Y181695D02*
X451638Y184094D01*
X446839D01*
X444440Y181695D01*
Y172098D01*
X446839Y169699D01*
X451638D01*
X454037Y172098D01*
X461235Y169699D02*
X466033D01*
X468432Y172098D01*
Y176896D01*
X466033Y179296D01*
X461235D01*
X458835Y176896D01*
Y172098D01*
X461235Y169699D01*
X473231Y179296D02*
Y172098D01*
X475630Y169699D01*
X482828D01*
Y179296D01*
X487626Y169699D02*
Y179296D01*
X494824D01*
X497223Y176896D01*
Y169699D01*
X504421Y181695D02*
Y179296D01*
X502021D01*
X506820D01*
X504421D01*
Y172098D01*
X506820Y169699D01*
X543009Y184094D02*
X533412D01*
Y176896D01*
X538210D01*
X533412D01*
Y169699D01*
X547807D02*
X552606D01*
X550206D01*
Y179296D01*
X547807D01*
X559803Y169699D02*
Y179296D01*
X567001D01*
X569400Y176896D01*
Y169699D01*
X574199D02*
X578997D01*
X576598D01*
Y179296D01*
X574199D01*
X586195Y169699D02*
X593392D01*
X595792Y172098D01*
X593392Y174497D01*
X588594D01*
X586195Y176896D01*
X588594Y179296D01*
X595792D01*
X600590Y184094D02*
Y169699D01*
Y176896D01*
X602989Y179296D01*
X607788D01*
X610187Y176896D01*
Y169699D01*
X622183D02*
X617385D01*
X614986Y172098D01*
Y176896D01*
X617385Y179296D01*
X622183D01*
X624582Y176896D01*
Y174497D01*
X614986D01*
X638978Y184094D02*
Y169699D01*
X631780D01*
X629381Y172098D01*
Y176896D01*
X631780Y179296D01*
X638978D01*
X658172Y184094D02*
Y169699D01*
Y176896D01*
X667768D01*
Y184094D01*
Y169699D01*
X674966D02*
X679765D01*
X682164Y172098D01*
Y176896D01*
X679765Y179296D01*
X674966D01*
X672567Y176896D01*
Y172098D01*
X674966Y169699D01*
X686962D02*
X691761D01*
X689361D01*
Y184094D01*
X686962D01*
X706156Y169699D02*
X701358D01*
X698958Y172098D01*
Y176896D01*
X701358Y179296D01*
X706156D01*
X708555Y176896D01*
Y174497D01*
X698958D01*
X737346Y181695D02*
X734947Y184094D01*
X730148D01*
X727749Y181695D01*
Y179296D01*
X730148Y176896D01*
X734947D01*
X737346Y174497D01*
Y172098D01*
X734947Y169699D01*
X730148D01*
X727749Y172098D01*
X742144Y169699D02*
X746943D01*
X744544D01*
Y179296D01*
X742144D01*
X754141D02*
X763737D01*
X754141Y169699D01*
X763737D01*
X775734D02*
X770935D01*
X768536Y172098D01*
Y176896D01*
X770935Y179296D01*
X775734D01*
X778133Y176896D01*
Y174497D01*
X768536D01*
X804725Y169699D02*
Y184094D01*
X811923D01*
X814322Y181695D01*
Y176896D01*
X811923Y174497D01*
X804725D01*
X819120Y169699D02*
X823919D01*
X821519D01*
Y184094D01*
X819120D01*
X833515Y179296D02*
X838314D01*
X840713Y176896D01*
Y169699D01*
X833515D01*
X831116Y172098D01*
X833515Y174497D01*
X840713D01*
X847911Y181695D02*
Y179296D01*
X845512D01*
X850310D01*
X847911D01*
Y172098D01*
X850310Y169699D01*
X864705D02*
X859907D01*
X857508Y172098D01*
Y176896D01*
X859907Y179296D01*
X864705D01*
X867105Y176896D01*
Y174497D01*
X857508D01*
X881500Y184094D02*
Y169699D01*
X874302D01*
X871903Y172098D01*
Y176896D01*
X874302Y179296D01*
X881500D01*
X908092Y184094D02*
Y169699D01*
Y176896D01*
X917689D01*
Y184094D01*
Y169699D01*
X924886D02*
X929685D01*
X932084Y172098D01*
Y176896D01*
X929685Y179296D01*
X924886D01*
X922487Y176896D01*
Y172098D01*
X924886Y169699D01*
X936883D02*
X941681D01*
X939282D01*
Y184094D01*
X936883D01*
X956076Y169699D02*
X951278D01*
X948879Y172098D01*
Y176896D01*
X951278Y179296D01*
X956076D01*
X958476Y176896D01*
Y174497D01*
X948879D01*
X977670Y184094D02*
X987266D01*
X982468D01*
Y169699D01*
X992065Y179296D02*
Y172098D01*
X994464Y169699D01*
X1001662D01*
Y167299D01*
X999262Y164900D01*
X996863D01*
X1001662Y169699D02*
Y179296D01*
X1006460Y164900D02*
Y179296D01*
X1013658D01*
X1016057Y176896D01*
Y172098D01*
X1013658Y169699D01*
X1006460D01*
X1028053D02*
X1023255D01*
X1020855Y172098D01*
Y176896D01*
X1023255Y179296D01*
X1028053D01*
X1030452Y176896D01*
Y174497D01*
X1020855D01*
X269826Y191299D02*
X1057044D01*
X269826Y158899D02*
X1057044D01*
X269826Y191299D02*
Y86899D01*
X1057044Y191299D02*
Y86899D01*
X382425Y191299D02*
Y86899D01*
X524180Y191299D02*
Y86899D01*
X795493Y191299D02*
Y86899D01*
X898860Y191299D02*
Y86899D01*
X269826Y110899D02*
X1057044D01*
X269826Y86899D02*
X1057044D01*
M02*
